<svg width="1440" height="1556" fill="none" xmlns="http://www.w3.org/2000/svg"><path d="M1439.77 795.875 0 795.874V0h1439.77v795.875Z" fill="#4698FB" fill-opacity=".15"/><g opacity=".12" clip-path="url(#a)"><path d="M1595.35 236.828a133.888 133.888 0 0 1 36.71 4.653c7.04 1.906 16.17 3.661 20.42-2.398 2.23-3.177 2.07-7.314 2.46-11.203 2.35-25.181 40.02-41.68 32.63-69.106-6.92-25.647-47.02-28.993-53.76-57.696-5.64-24.01 17.61-44.726 38.38-58.314 20.76-13.588 44.8-32.408 41.62-56.923-2.97-23.124-28.88-34.862-51.76-37.812-22.87-2.95-48.02-1.98-66.23-16-8.11-6.225-14.02-14.928-21.8-21.537-7.79-6.61-18.88-11.043-28.3-6.69-12.18 5.618-14.66 22.985-9.36 35.233 4.56 10.563 13.46 16.966 19.49 26.262 5.04 7.75 10.43 15.952 14.46 24.39 9.05 18.8 12.35 40.283 11.32 61.25-1.45 29.716-10.98 58.575-22.03 86.337-13.1 32.893-34.53 61.854-60.95 85.301-3.5 3.113-7.14 6.186-9.73 10.112-2.59 3.926-3.98 8.953-2.48 13.349 2.25 6.547 9.73 9.335 16.47 10.673 6.23 1.214 13.81 5.902 19.85 5.786 6.79-.165 15.25-6.503 20.79-10.072 14.04-9.055 24.93-13.688 41.69-15.122 3.39-.272 6.75-.44 10.11-.473Z" stroke="url(#b)" stroke-opacity=".65" stroke-width=".5" stroke-linecap="round" stroke-linejoin="round"/><path d="M1562.62 93.922a189.588 189.588 0 0 0 3.83-37.606c-.03-25.27-5.98-50.664-18.11-72.588-12.13-21.923-30.93-39.505-42.94-61.746-9.47-17.524-11.3-49.585 13.9-55.803 16.61-4.103 31.05 10.153 43.55 21.594a189.144 189.144 0 0 0 84.97 44.648c18.79 4.32 38.5 5.855 56.02 13.817 17.53 7.962 32.97 24.71 31.86 44.293-1.43 25.19-27.3 40.753-49.13 53.356-21.83 12.604-45.77 33.838-39.76 58.184 7.3 29.668 62.01 37.111 50.56 71.933-3.47 10.539-11.32 19-18.78 27.157-7.47 8.157-15.44 18.282-13.73 29.215a43.987 43.987 0 0 0 5.9 16.522 42.801 42.801 0 0 0 11.86 12.75c8.49 6.026 18.51 9.441 28.46 12.563 29.73 9.32 58.38 16.17 86.49-3.588 15.42-10.842 27.28-27.63 45.01-33.69 21.84-7.451 42.24 3.663 59.99 14.774 19.6 12.239 35.33 29.577 54.68 42.494 28.57 19.078 63.35 28.774 96.88 35.166 35.3 6.733 70.89 4.984 104.88 17.602 79.91 29.663 133.82 110.027 156.33 190.486 6.65 23.7 6.76 50.873-6.59 71.916-18.05 28.448-52.66 34.124-80.8 47.327-15.66 7.342-32.35 10.942-47.61 19.526a154.516 154.516 0 0 0-40.62 32.959c-11.62 13.335-21.23 28.879-35.8 38.91-15.25 10.456-34.67 13.518-52.64 10.576-19.21-3.137-37.56-12.608-52.29-25.142-16.73-14.241-26.29-35.394-32.71-56.662-4.75-15.789-8.13-32.55-5.31-48.981 5.21-30.44 29.19-52.954 46.75-76.828 15.52-21.141 30.55-54.101 23.15-80.696a46.95 46.95 0 0 0-8.58-16.671 46.127 46.127 0 0 0-14.35-11.889c-22.07-11.609-48.64-5.389-72.97-7.86-35.7-3.687-53.56-25.25-74.4-51.831a373.383 373.383 0 0 0-60.14-60.74c-9.73-7.786-20.19-16.863-31.02-22.887-12.79-7.114-28.94-10.583-42.74-15.444-38.65-13.648-77.72-26.431-117.8-35.383-18.43-4.088-38.64 1.803-55.28 11.247-14.92 8.409-24.18 27.037-42.1 30.021-7.43 1.234-14.9-.771-22.07-2.81-6.48-1.795-13.01-3.879-19.78-4.145-6.28-.231-12.89 1.651-18.74-1.41-8.07-4.236-9.29-16.173-4.96-24.43 4.32-8.256 12.45-13.692 20.24-18.755 16.85-10.94 32.85-20.635 46.84-35.372 17.74-18.723 27.9-41.697 37.37-65.493a236.228 236.228 0 0 0 12.23-40.586v0Z" stroke="url(#c)" stroke-opacity=".65" stroke-width=".5" stroke-linecap="round" stroke-linejoin="round"/><path d="M1456.66-309.77c22.41-1.656 46.47-2.72 68.58-1.287 25.01 1.673 52.02 12.503 61.39 35.897 6.19 15.474 5.37 42.463-3.16 57.285-16.67 28.863-47.55 24.511-74.44 34.859-15.59 5.994-32.68 15.798-37.9 32.605-2.22 7.098-3.29 14.55-10.21 17.863-6.59 3.159-18.03 1.221-24.87.239-17.14-2.451-33.28-9.286-49.52-15.059-41.21-14.769-84.72-21.311-127.66-29.406-19.64-3.706-41.68-6.033-59.68-14.95-15.33-7.588-31.02-8.69-47.11-14.433-13.98-4.963-27.05-13.959-33.93-27.207-8.12-15.637-10.56-31.957-29.32-36.997-17.99-4.843-37.15-4.742-55.56-2.193-23.19 3.167-45.734 10.21-68.308 16.681-12.062 3.462-24.597 6.807-36.894 4.914-12.296-1.894-24.347-10.383-26.445-22.787-2.329-13.827 7.838-26.781 10.181-40.706 2.098-12.421-2.27-25.142-9.473-35.258-7.203-10.116-17.104-17.791-27.195-24.921-5.989-4.224-12.648-9.161-13.515-16.542-.748-5.907 2.718-11.694 7.255-15.543 4.537-3.849 10.118-6.144 15.494-8.615 19.474-8.928 38.06-21.362 50.385-39.084 12.325-17.723 17.521-41.391 9.595-61.131-2.938-7.371-7.466-16.07-2.791-22.606 5.123-7.17 15.851-4.48 24.487-5.296 13.108-1.241 23.227-11.853 33.562-20.342 19.892-16.287 39.912-9.113 62.732-6.566 25.26 2.824 50.87 2 76.05-2.447 22.92-4.061 39.99-21.697 60.81-31.646 27.4-13.104 49.48-10.6 77.07-.698 25.74 9.183 49.37 24.25 71.5 40.044 17.54 12.585 35.15 24.34 39.01 47.662 2.88 17.579-1.55 35.746-8.01 52.511-4 10.359-8.8 20.453-13.27 30.64-2.75 6.283-5.39 12.621-7.62 19.116-2.65 8.187-2.88 16.932-.67 25.152 2.86 11.577 20.24 18.776 15.68 32.013-1.6 4.612-4.8 8.578-6.19 13.265-2.7 9.193 2.4 19.121 9.89 24.789 20.4 15.466 48.84 12.594 72.86 10.647 2.43-.102 4.8-.277 7.21-.462Z" stroke="url(#d)" stroke-opacity=".65" stroke-width=".5" stroke-linecap="round" stroke-linejoin="round"/><path d="M449.573 561.014a23.802 23.802 0 0 0 8.245-9.071c6.328-12.858-5.332-29.874-8.575-41.832-6.267-23.236 3.172-45.419 15.651-65.28 13.806-21.946 30.282-46.208 25.021-71.332-6.463-30.797-59.878-67.779-86.808-37.82-8.187 9.089-11.359 21.571-13.34 33.62-1.98 12.048-3.053 24.494-8.221 35.582-5.477 11.888-15.076 21.311-22.639 32.01-24.026 34.244 13.046 74.373 33.046 102.034 7.612 10.536 15.827 21.564 27.843 26.416 8.558 3.423 21.045 1.554 29.777-4.327Z" stroke="url(#e)" stroke-opacity=".65" stroke-width="2" stroke-linecap="round" stroke-linejoin="round"/><path d="M382.508 421.366c-8.18 21.875-13.847 43.526-1.872 66.625 7.119 13.742 17.725 25.213 28.192 36.519 3.914 4.217 8.26 8.67 13.903 9.531 12.206 1.883 13.975-16.259 13.378-24.732.999-14.431-7.143-26.594-1.293-40.976 7.499-18.367 21.347-35.99 31.531-53.076 6.636-11.134 13.507-23.154 12.922-36.018-.586-12.863-8.44-23.795-17.723-32.205-7.056-6.386-15.362-11.805-24.651-13.651-9.289-1.845-19.871.231-26.777 7.053-8.32 8.218-9.729 20.909-11.684 32.434-2.758 16.734-9.998 32.683-15.926 48.496Z" stroke="url(#f)" stroke-opacity=".65" stroke-width=".5" stroke-linecap="round" stroke-linejoin="round"/><path d="M389.841 452.792a38.416 38.416 0 0 0 2.24 10.117c6.812 17.948 23.515 20.059 33.657 4.126 10.867-17.046 15.153-35.85 23.448-54.083 4.855-10.616 9.665-21.542 10.632-33.155.966-11.613-2.429-24.099-11.43-31.125-10.201-7.947-26.508-6.425-35.442 3.312-6.128 6.675-8.543 15.877-10.74 24.652-5.045 20.166-10.113 40.419-12.112 61.096a82.122 82.122 0 0 0-.253 15.06v0Z" stroke="url(#g)" stroke-opacity=".65" stroke-width=".5" stroke-linecap="round" stroke-linejoin="round"/><path d="M341.472 449.563c-.375.819-.74 1.644-1.091 2.491-11.607 28.123-15.069 60.623-5.657 89.505 4.89 15.047 12.3 29.088 21.911 41.517 28.084 36.202 91.629 34.944 117.271-5.843 19.27-30.664 3.685-65.083 8.74-98.039 3.852-25.11 18.179-63.394 35.748-80.884 3.856-3.845 8.368-7.652 9.565-12.918 1.739-7.621-3.937-14.572-9.181-20.11-16.918-17.825-34.342-37.559-57.094-47.872-13.622-6.177-31.234-10.941-46.292-10.357-12.633.466-24.266 5.849-31.357 16.763-6.576 10.119-5.349 21.126-7.184 32.394-1.67 10.384-5.359 21.432-8.763 31.552-7.12 21.168-17.461 41.936-26.616 61.801Z" stroke="url(#h)" stroke-opacity=".65" stroke-width=".5" stroke-linecap="round" stroke-linejoin="round"/><path d="M473.926 539.625c-.371-10.498-2.298-20.917-3.145-31.406-2.532-32.535 5.299-65.246 22.352-93.357 6.67-10.93 14.979-21.935 15.266-34.678.372-16.921-13.509-30.212-27.46-39.274-20.802-13.428-48.565-34.365-74.046-15.798-10.184 7.411-16.273 19.301-20.196 31.307-6.315 19.291-10.855 38.799-20.503 56.904-6.56 12.298-13.851 24.374-17.882 37.693-10.409 34.475 11.269 70.226 30.872 96.268 9.801 13.035 20.006 26.402 34.156 34.472 14.15 8.071 33.347 9.465 46.143-1.077 9.887-8.122 14.026-21.606 14.51-34.377.02-2.243.012-4.461-.067-6.677Z" stroke="url(#i)" stroke-opacity=".65" stroke-width=".5" stroke-linecap="round" stroke-linejoin="round" stroke-dasharray="8 3 4 3"/><path d="M849.473-10.944c3.765 11.37 4.928 23.504 3.402 35.498-.912 6.694-2.705 13.375-2.082 20.076.622 6.7 4.434 13.639 10.867 15.197 4.357 1.096 8.975-.493 13.096-2.54 21.517-10.57 36.35-34.15 36.469-58.197.188-27-18.846-46.585-35.695-64.937-12.31-13.42-44.736-34.155-56.506-8.51-9.066 19.76 6.868 29.783 17.872 41.527a59.195 59.195 0 0 1 12.577 21.886v0Z" stroke="url(#j)" stroke-opacity=".65" stroke-width=".5" stroke-linecap="round" stroke-linejoin="round"/><path d="M718.168 340.222c5.448-13.182 7.647-30.651-3.212-39.404-12.422-10.008-31.97.154-40.268 14.215-8.298 14.061-10.252 31.033-17.92 45.444-13.846 25.781-44.558 32.136-67.679 46.59-17.664 11.12-30.928 28.198-37.384 48.137-7.036 21.982-8.065 65.972 21.061 72.304 10.001 2.172 20.426-.59 30.397-3.288 20.211-5.452 41.33-1.529 57.396-18.241 12.606-13.12 14.62-31.277 14.288-48.492-.425-20.104 2.422-39.511 10.864-58.071 4.299-9.462 10.466-14.214 16.509-22.016 7.76-10.103 12.413-25.077 15.948-37.178Z" stroke="url(#k)" stroke-opacity=".65" stroke-width=".5" stroke-linecap="round" stroke-linejoin="round"/><path d="M581.622 512.337c5.721-2.371 11.446-5.421 15.472-6.969 14.07-5.594 27.987-11.645 41.969-17.473 5.054-2.104 10.407-4.461 13.435-9.081 7.053-10.823 8.094-37.883 4.962-49.792-2.33-8.905-8.202-17.317-16.868-20.121-12.294-3.963-41.718 1.986-53.461 7.632-19.605 9.42-29.11 35.679-32.646 55.511-2.381 13.321-3.213 41.098 14.148 43.248 3.496.402 8.217-1.029 12.989-2.955Z" stroke="url(#l)" stroke-opacity=".65" stroke-width=".5" stroke-linecap="round" stroke-linejoin="round"/><path d="M704.062 345.496c16.288-32.343-27.498-33.04-28.581-6.94-.297 7.333 4.93 17.414 12.427 19.289 9.104 2.334 12.1-4.32 16.154-12.349Z" stroke="url(#m)" stroke-opacity=".65" stroke-width=".5" stroke-linecap="round" stroke-linejoin="round"/><path d="M618.228 480.263c2.489-1.599 5.071-3.285 6.641-5.812 3.583-5.775.57-13.161-2.477-19.119-2.586-5.124-5.324-10.393-9.363-14.513-4.04-4.119-9.688-7.011-15.462-6.302-6.302.759-11.502 5.516-15.494 10.559-9.346 11.626-28.153 44.416-8.499 55.125 14.539 7.926 33.404-12.745 44.654-19.938Z" stroke="url(#n)" stroke-opacity=".65" stroke-width="2" stroke-linecap="round" stroke-linejoin="round"/><path d="M888.062 478.057c-6.302 5.539-21.636 20.886-18.274 30.019 5.12 13.964 32.285 4.27 43.456 8.45 5.058 1.899 10.145 5.403 15.39 3.906 4.456-1.285 7.323-5.985 7.909-10.626 3.22-25.433-26.336-51.235-48.481-31.749Z" stroke="url(#o)" stroke-opacity=".65" stroke-width=".5" stroke-linecap="round" stroke-linejoin="round" stroke-dasharray="8 3"/><path d="M907.292 501.77c4.622-3.659 7.644-8.438 6.738-13.303-1.331-6.938-10.068-10.267-16.677-7.798-4.979 1.877-19.188 17.292-16.725 23.182 3.319 7.888 17.838 4.923 26.664-2.081Z" stroke="url(#p)" stroke-opacity=".65" stroke-width=".5" stroke-linecap="round" stroke-linejoin="round"/><path d="M901.541 545.006c31.407 3.053 67.263-.686 75.809-31.839 4.145-15.126-7.944-30.248-15.775-41.508-10.333-14.874-21.705-28.957-33.039-43.033a19.551 19.551 0 0 0-4.393-4.395c-20.005-12.84-46.497 23.754-54.747 36.892-11.526 18.355-38.091 26.409-42.184 49.92-4.268 24.487 23.605 24.394 39.907 28.161a276.57 276.57 0 0 0 34.422 5.802v0Z" stroke="url(#q)" stroke-opacity=".65" stroke-width=".5" stroke-linecap="round" stroke-linejoin="round"/><path d="M953.683 325.577a4.282 4.282 0 0 1 1.761 0 4.195 4.195 0 0 1 1.601.708c1.389 1.34.63 3.711-.274 5.515-3.892 7.967-14.419 43.749-25.176 25.552-8.396-14.266 8.549-30.484 22.088-31.775Z" stroke="url(#r)" stroke-opacity=".65" stroke-width=".5" stroke-linecap="round" stroke-linejoin="round"/><path d="M453.524 976.765a222.15 222.15 0 0 0 28.684-13.143c18.202-9.918 37.518-20.64 54.421-32.414 29.255-20.374 53.391-44.243 75.127-72.504 17.723-22.99 34.125-51.905 32.212-82.203-2.221-35.142-36.518-57.27-62.94-74.454-27.79-18.058-61.489-33.131-95.605-25.777-19.985 4.292-38.39 18.476-57.091 26.546-37.12 15.918-73.196 15.261-111.994 11.372-31.915-3.205-54.241 9.92-78.506 30.197-5.384 4.523-11.008 9.319-13.619 15.883-3.476 8.732-.923 18.404-.186 27.738.731 11.969-1.735 23.981-7.141 34.78a68.726 68.726 0 0 1-23.586 26.605c-9.986 6.42-22.498 10.998-27.371 21.887-5.52 12.346 1.85 26.517 11.091 36.008 9.241 9.492 20.823 17.257 26.491 29.31 6.038 12.806 4.652 29.084 13.572 39.994 7.815 9.561 21.169 12.023 33.445 13.521a646.916 646.916 0 0 0 66.281 4.734c46.605.906 93.129-1.696 136.715-18.08Z" stroke="url(#s)" stroke-opacity=".65" stroke-width="2" stroke-linecap="round" stroke-linejoin="round"/><path d="M719.574 966.899c22.414-1.656 46.467-2.72 68.58-1.287 25.01 1.673 52.024 12.503 61.389 35.898 6.188 15.47 5.368 42.46-3.161 57.28-16.665 28.87-47.543 24.51-74.435 34.86-15.588 6-32.685 15.8-37.897 32.61-2.227 7.1-3.3 14.55-10.216 17.86-6.592 3.16-18.031 1.22-24.867.24-17.144-2.45-33.283-9.29-49.522-15.06-41.207-14.77-84.724-21.31-127.664-29.41-19.636-3.7-41.677-6.03-59.677-14.95-15.329-7.58-31.022-8.69-47.111-14.43-13.977-4.96-27.052-13.96-33.929-27.2-8.118-15.64-10.562-31.96-29.316-37-17.996-4.85-37.156-4.74-55.566-2.19-23.188 3.16-45.731 10.2-68.305 16.68-12.062 3.46-24.597 6.8-36.893 4.91-12.297-1.89-24.348-10.38-26.446-22.79-2.329-13.825 7.838-26.778 10.181-40.703 2.098-12.421-2.27-25.142-9.504-35.205-7.233-10.063-17.104-17.791-27.195-24.922-5.989-4.223-12.647-9.16-13.515-16.541-.748-5.907 2.718-11.694 7.255-15.543 4.537-3.849 10.118-6.145 15.495-8.615 19.473-8.928 38.06-21.362 50.385-39.084 12.325-17.723 17.521-41.391 9.595-61.131-2.939-7.371-7.466-16.07-2.792-22.606 5.124-7.17 15.852-4.48 24.487-5.296 13.109-1.241 23.228-11.854 33.562-20.342 19.896-16.287 39.914-9.113 62.729-6.566 25.266 2.823 50.873 2 76.055-2.447 22.915-4.062 39.986-21.697 60.811-31.646 27.401-13.104 49.477-10.6 77.069-.698 25.703 9.236 49.373 24.249 71.497 40.044 17.546 12.584 35.155 24.34 39.016 47.662 2.88 17.579-1.551 35.745-8.015 52.511-3.998 10.359-8.8 20.453-13.237 30.587-2.754 6.282-5.388 12.62-7.627 19.115-2.648 8.188-2.877 16.933-.66 25.153 2.853 11.576 20.236 18.776 15.671 32.013-1.595 4.611-4.8 8.577-6.189 13.265-2.702 9.192 2.406 19.12 9.89 24.789 20.4 15.466 48.839 12.593 72.862 10.646 2.428-.101 4.803-.276 7.21-.461Z" stroke="url(#t)" stroke-opacity=".65" stroke-width=".5" stroke-linecap="round" stroke-linejoin="round"/><path d="M658.872-128.208a20.947 20.947 0 0 0-11.417-6.251c-17.913-3.76-40.853 7.522-55.552 16.993-18.31 11.714-33.951 27.21-50.423 41.432-10.206 8.817-20.878 17.267-32.579 23.944-10.119 5.762-18.237 8.395-25.967 17.223-13.25 15.146-25.916 32.884-12.772 52.204 7.091 10.477 19.543 15.44 30.323 21.905 15.001 9.021 27.552 21.62 36.584 36.725 7.645 12.783 6.977 29.689 17.127 40.656a40.308 40.308 0 0 0 5.5 4.878c12.191 9.038 27.686 12.211 42.793 14.11a330.616 330.616 0 0 0 57.226 2.173c20.974-1.012 41.612-9.652 52.143-29.644 10.255-19.372-.02-44.695-3.578-64.197-4.465-24.508-21.457-36.035-37.84-53.395-12.491-13.226-23.245-30.443-21.044-48.804 1.479-12.381 8.609-23.315 13.021-35.038 4.412-11.723 4.281-26.381-3.545-34.914Z" stroke="url(#u)" stroke-opacity=".65" stroke-width=".5" stroke-linecap="round" stroke-linejoin="round"/><path d="M612.991 788.789c-5.917-35.078-44.595-60.061-75.081-72.201-32.814-13.101-69.316-14.267-103.356-3.301-26.681 8.711-52.888 20.901-80.706 22.146-20.041.884-42.148-1.879-61.817 2.851-26.409 6.343-32.245 27.784-23.903 51.197 3.67 10.304 7.934 21.333 4.979 31.997-3.676 13.282-17.051 21.107-29.349 27.185-12.297 6.079-25.851 13.062-30.74 25.971-3.926 10.401-1.067 21.896 1.814 32.51 4.456 16.29 9.079 32.988 19.303 46.225 14.412 18.662 41.536 25.796 63.588 31.223 31.721 7.8 64.814 8.92 97.244 3.29 32.43-5.63 63.511-17.89 91.332-36.027 23.317-15.178 48.749-31.617 67.597-52.524 27.121-30.217 66.636-65.888 59.095-110.542Z" stroke="url(#v)" stroke-opacity=".65" stroke-width=".5" stroke-linecap="round" stroke-linejoin="round"/><path d="M998.784 838.978a21.165 21.165 0 0 0-6.852-2.538c-8.52-1.472-16.813 5.642-19.862 13.924-3.798 10.347-4.745 30.738-1.647 41.265 2.47 8.519 6.15 16.814 6.388 25.717.581 21.344-20.022 39.337-41.081 41.336-21.059 1.998-41.297-8.467-57.207-22.205-15.613-13.483-26.841-28.463-46.37-36.773-9.212-3.9-19.498-5.938-29.403-3.883-8.997 1.899-18.206 8.653-18.511 17.896-.222 6.964 4.867 13.179 10.951 16.253 10.857 5.516 24.755 5.355 36.368 9.393a81.856 81.856 0 0 1 30.493 18.442c34.362 33.613 6.698 83.305 6.04 123.335-.407 25 9.62 50.16 32.114 61.3 26.682 13.2 57.72 14.4 87.069 15.33 16.006.5 25.946.08 32.666-15.98 7.08-17.07 1.94-28.67-.66-44.95-3.03-18.98 3.24-43.18 5.97-62.13 4.64-32.25 10.15-64.597 9.45-97.062-.44-20.85-3.59-41.793-10.91-61.25-4.4-11.579-12.45-30.4-25.006-37.42Z" stroke="url(#w)" stroke-opacity=".65" stroke-width=".5" stroke-linecap="round" stroke-linejoin="round" stroke-dasharray="8 3"/><path d="M578.584 48.741c7.207-2.45 13.373-7.39 17.404-13.939 5.706-9.26 6.718-20.59 6.807-31.405.102-11.7-.568-23.024-3.322-34.317-2.243-8.983-1.174-18.636-4.091-27.413-2.778-8.37-10.31-15.754-19.095-15.28-10.702.53-17.628 11.327-24.098 20.132a121.368 121.368 0 0 1-33.02 31.024c-5.282 3.362-10.912 6.367-15.264 10.904-4.352 4.538-7.264 11.14-5.581 17.134 1.61 5.71 6.823 9.429 11.7 12.698l28.981 19.428c7.227 4.84 14.638 9.77 23.069 11.9 5.442 1.296 11.167.995 16.51-.866Z" stroke="url(#x)" stroke-opacity=".65" stroke-width="2" stroke-linecap="round" stroke-linejoin="round"/><path d="M466.033 171.828c6.342 3.42 10.214 9.967 13.807 16.227l15.696 27.361c2.605 4.539 5.28 9.318 5.427 14.609.199 8.754-7.204 16.607-15.651 18.681-27.909 6.853-53.325-27.68-58.144-51.216-1.244-6.08-1.622-12.653.917-18.393 4.961-11.378 28.36-12.437 37.948-7.269Z" stroke="url(#y)" stroke-opacity=".65" stroke-width=".5" stroke-linecap="round" stroke-linejoin="round"/><path d="M341.288 976.168a203.033 203.033 0 0 0 47.872 1.112c34.988-3.461 69.738-17.555 96.302-41.597 21.997-19.926 41.061-43.702 47.166-73.483 10.583-51.511-13.483-123.338-73.543-124.947-37.102-.914-73.839 9.513-105.418 29.921-6.362 4.129-13.12 9.76-13.461 17.337-.258 5.752 3.401 10.914 7.952 14.364 4.551 3.45 9.858 5.493 14.773 8.288 15.545 8.848 26.616 25.637 27.543 43.79.927 18.154-8.868 36.968-24.918 45.561-18.89 10.173-41.953 5.44-61.601-2.159-14.93-5.783-32.134-13.006-46.238-4.879-13.221 7.63-16.776 26.657-10.71 40.471 11.007 24.966 35.512 31.667 60.161 38.863a240.662 240.662 0 0 0 34.12 7.358v0Z" stroke="url(#z)" stroke-opacity=".65" stroke-width="2" stroke-linecap="round" stroke-linejoin="round"/><path d="M835.254 851.165c-11.829-6.616-22.703-15.561-36.099-17.11-40.885-4.739-64.722 45.19-91.991 66.157-12.312 9.489-31.332 15.856-46.246 19.672-11.215 2.859-26.925 3.42-25.3 20.076.9 9.413 8.698 16.866 17.48 20.021 24.617 8.908 51.136 1.678 76.423-.73 12.526-1.194 24.595.014 37.194-.825 15.382-1.049 31.023-1.083 45.97 2.823 21.217 5.554 41.227 20.639 46.33 42.191 7.043 29.6-13.473 57.41-15.312 86.55-2.124 33.95 17.668 61.18 46.991 75.67 22.197 10.98 46.741 12.67 70.283 18.62 25.879 6.53 53.713 7.94 80.083 12.54 9.23 1.6 19.39 3.06 27.56-1.8 10.02-5.96 13.24-19.6 10.97-31.01-2.27-11.41-8.7-21.29-14.07-31.48-13.8-26.22-21.01-55.58-21.01-85.54.06-39.43 8.96-78.163 15.22-117.004 2.8-17.351 6.03-35.447 7.68-52.79 1.73-18.096-6.35-40.887-12.71-57.356-8.39-21.724-22.99-41.802-42.71-54.08-15.752-9.789-38.252-19.914-55.332-6.823-14.169 10.856-16.66 26.454-21.986 42.161-5.422 16.09-14.623 31.162-27.781 42.02-17.389 14.345-42.054 20.333-62.653 12.341a72.675 72.675 0 0 1-8.984-4.294v0Z" stroke="url(#A)" stroke-opacity=".65" stroke-width=".5" stroke-linecap="round" stroke-linejoin="round"/><path d="M1355.06 26.22c-25.75 1.574-58.73 20.62-63.47 47.372-1.18 6.697 1.14 11.227 1.64 17.445.5 6.217-2.37 12.265.59 18.569a17.596 17.596 0 0 0 5.86 6.839 17.494 17.494 0 0 0 8.48 3.014c8.58.616 16.31-5.009 23.92-9.266 10.97-6.122 23.08-9.745 35.49-10.608 11.1-.768 23.21.421 32.4-6.072 7.42-5.236 11.23-14.794 10.81-23.817-.41-9.022-4.62-17.519-10.4-24.305a55.717 55.717 0 0 0-19-14.24 55.995 55.995 0 0 0-23.25-5.044c-1.03-.004-2.01.002-3.07.112Z" stroke="url(#B)" stroke-opacity=".65" stroke-width="2" stroke-linecap="round" stroke-linejoin="round"/><path d="M494.592 536.506c1.152 12.169-2.503 22.556-7.267 33.594-2.511 5.813-8.739 15.977 1.192 14.405 3.542-.565 6.612-5.403 9.936-6.959 4.346-2.03 9.016-2.1 13.663-1.914 9.501.351 18.972 4.017 28.601 1.647 15.457-3.843 14.177-14.951 3.45-24.605a212.005 212.005 0 0 1-29.25-32.406c-3.225-4.402-14.217-28.578-17.936-28.115-10.937 1.345-2.98 38.054-2.389 44.353Z" stroke="url(#C)" stroke-opacity=".65" stroke-width="2" stroke-linecap="round" stroke-linejoin="round"/><path d="M597.61 485.821c-21.348 16.4-30.283-5.696-18.788-23.614 3.479-5.425 9.583-9.659 15.865-8.969 6.861.77 12.053 7.526 12.288 14.513.235 6.988-3.804 13.791-9.365 18.07Z" stroke="url(#D)" stroke-opacity=".65" stroke-width=".5" stroke-linecap="round" stroke-linejoin="round" stroke-dasharray="8 3"/><path d="M397.857 427.958a109.115 109.115 0 0 1-1.303 5.716c-3.421 13.416 1.99 46.442 21.583 26.646 4.511-4.573 6.841-10.817 9.048-16.848l15.435-42.411c3.148-8.622 6.334-17.621 5.372-26.687-.961-9.066-7.426-18.132-16.431-18.693-5.802-.37-11.451 2.836-15.373 7.253-3.923 4.417-6.375 9.937-8.513 15.441-6.654 17.095-6.403 32.674-9.818 49.583Z" stroke="url(#E)" stroke-opacity=".65" stroke-width="2" stroke-linecap="round" stroke-linejoin="round"/><path d="M437.993 372.005c-1.651-7.606-11.597-6.922-16.364-2.866-3.633 3.123-5.715 7.666-7.689 12.045-2.398 5.353-4.9 10.888-4.786 16.741.141 13.104 15.229 17.63 16.087 2.025.186-3.538-.172-7.192 1.343-10.488 1.515-3.296 4.565-5.506 7.187-8.007 2.622-2.501 4.975-5.951 4.222-9.45Z" stroke="url(#F)" stroke-opacity=".65" stroke-width=".5" stroke-linecap="round" stroke-linejoin="round" stroke-dasharray="8 3 4 3"/><path d="M523.652 649.26c11.591 3.572 22.251 11.06 32.839 20.379 4.969 4.287 12.444 8.745 17.475 4.33 4.177-3.66 2.819-10.43.556-15.368-6.92-14.904-24.031-33.861-39.046-40.984-15.565-7.398-40.349.933-54.721 8.565-11.442 6.061-21.273 15.238-31.588 22.9-8.812 6.573-6.478 17.679 6.577 15.259 6.117-1.136 11.884-5.338 17.258-8.477 15.486-9.032 33.608-11.875 50.65-6.604Z" stroke="url(#G)" stroke-opacity=".65" stroke-width=".5" stroke-linecap="round" stroke-linejoin="round" stroke-dasharray="8 3"/><path d="M247.625 868.472c-7.171 6.201-13.015 16.132-15.617 23.496-3.667 10.408-1.19 21.796 1.852 32.276 9.403 32.211 39.852 45.11 69.714 53.456 38.551 10.76 79.602 9.776 118.068-2.83 29.388-9.683 56.356-25.939 78.875-47.545 22.32-21.158 39.063-44.203 54.905-70.25 13.816-22.705 17.375-51.702 8.517-76.477-15.146-42.335-57.714-56.883-99.259-56.853-43.567.025-84.278 21.97-128.082 24.809-14.227.921-28.827 3.017-37.459 16.432a33.71 33.71 0 0 0-5.004 14.754 32.936 32.936 0 0 0 2.193 15.299c3.467 8.399 10.204 14.785 16.628 21.09 6.423 6.304 12.897 13.12 15.472 21.841 2.575 8.721-.064 19.822-8.149 24.006-4.363 2.276-9.469 2.236-14.349 2.142-14.161-.275-36.091-5.049-49.626-.764a25 25 0 0 0-8.679 5.118Z" stroke="url(#H)" stroke-opacity=".65" stroke-width=".5" stroke-linecap="round" stroke-linejoin="round"/><path d="m412.575 872.381-1.25 3.775c-6.215 19.023-.499 33.515 21.516 31.516 9.836-.903 19.023-5.94 26.612-12.481 16.618-14.379 35.231-33.294 42.397-54.492 3.946-11.637 5.076-24.446 1.596-36.087-4.394-14.694-15.936-26.465-29.643-32.974-13.707-6.509-29.418-8.132-44.623-6.74-12.678 1.191-32.975 6.24-34.499 22.396-.654 6.8 2.422 13.356 6.323 18.843 3.902 5.487 8.681 10.317 12.226 16.038 10.632 17.189 5.12 32.929-.655 50.206Z" stroke="url(#I)" stroke-opacity=".65" stroke-width=".5" stroke-linecap="round" stroke-linejoin="round" stroke-dasharray="8 3 4 3"/><path d="M617.719-51.863c-.56-15.572.463-47.594-23.222-43.664-25.68 4.267-40.304 27.627-59.664 42.408-15.867 12.117-32.92 22.712-46.857 37.008-4.225 4.341-8.356 9.503-8.622 15.534-.433 10.162 9.708 16.797 18.15 22.054a185.032 185.032 0 0 1 41.024 34.75c10.355 11.737 17.916 27.068 29.948 37.15 14.328 11.988 36.861 13.437 54.183 7.876a67.425 67.425 0 0 0 22.815-12.832 68.531 68.531 0 0 0 16.352-20.629c8.955-17.526 5.912-33.383-5.908-47.697-8.71-10.532-19.255-18.125-26.239-30.3-7.277-12.636-11.38-26.93-11.96-41.658v0Z" stroke="url(#J)" stroke-opacity=".65" stroke-width=".5" stroke-linecap="round" stroke-linejoin="round"/><path d="M661.756 226.754c5.013-2.993 11.316-7.765 9.16-13.153-1.22-3.073-4.791-4.354-8.03-4.891-20.498-3.437-41.376 10.156-52.354 28.259-10.979 18.103-14.024 39.92-15.079 61.001a24.362 24.362 0 0 0 .804 9.556c1.053 2.977 3.662 5.661 6.838 5.849 4.965.285 8.337-5.003 10.52-9.53 7.893-16.239 17.592-31.477 24.33-48.141 5.357-13.362 10.705-21.112 23.811-28.95Z" stroke="url(#K)" stroke-opacity=".65" stroke-width=".5" stroke-linecap="round" stroke-linejoin="round" stroke-dasharray="8 3"/><path d="m585.542 480.556 8.802-15.246" stroke="url(#L)" stroke-opacity=".65" stroke-width=".5" stroke-linecap="round" stroke-linejoin="round"/><path d="m582.492 468.624 14.897 8.601" stroke="url(#M)" stroke-opacity=".65" stroke-width=".5" stroke-linecap="round" stroke-linejoin="round"/><path d="m456.028 221.472 8.802-15.245" stroke="url(#N)" stroke-opacity=".65" stroke-width=".5" stroke-linecap="round" stroke-linejoin="round"/><path d="m452.978 209.541 14.898 8.601" stroke="url(#O)" stroke-opacity=".65" stroke-width=".5" stroke-linecap="round" stroke-linejoin="round"/><path d="m1037.89 59.03 8.8-15.235" stroke="url(#P)" stroke-opacity=".65" stroke-width=".5" stroke-linecap="round" stroke-linejoin="round"/><path d="m1034.85 47.114 14.9 8.601" stroke="url(#Q)" stroke-opacity=".65" stroke-width=".5" stroke-linecap="round" stroke-linejoin="round"/><path d="m544.507 19.605 8.802-15.245" stroke="url(#R)" stroke-opacity=".65" stroke-width=".5" stroke-linecap="round" stroke-linejoin="round"/><path d="m541.451 7.684 14.897 8.601" stroke="url(#S)" stroke-opacity=".65" stroke-width=".5" stroke-linecap="round" stroke-linejoin="round"/><path d="m1357.36 72.217 8.8-15.245" stroke="url(#T)" stroke-opacity=".65" stroke-width=".5" stroke-linecap="round" stroke-linejoin="round"/><path d="m1354.31 60.296 14.89 8.601" stroke="url(#U)" stroke-opacity=".65" stroke-width=".5" stroke-linecap="round" stroke-linejoin="round"/><path d="M1067.09-12.134c-23.08 3.785-40.72 30.026-46.7 51.06-7.87 27.736 1.43 54.724 17.97 76.674 3.46 4.594 7.47 9.106 12.86 11.082 2.57.922 5.32 1.229 8.05.896a18.097 18.097 0 0 0 7.69-2.813c11.66-7.726 6.85-25.282 7.86-37.21 1.21-14.268 3.99-28.52 9.59-41.799 3.16-7.554 7.16-14.803 9.51-22.64 2.35-7.835 2.79-16.672-1.05-23.743-4.81-8.873-15.8-13.137-25.78-11.507Z" stroke="url(#V)" stroke-opacity=".65" stroke-width=".5" stroke-linecap="round" stroke-linejoin="round"/><path d="M878.028 696.745c.019 6.451-.268 14.725 5.605 17.109 3.481 1.414 7.641-.341 10.169-3.208 2.528-2.866 3.827-6.627 5.056-10.244a560.855 560.855 0 0 0 8.766-29.182c2.234-8.214 4.224-17.208.865-24.906-3.131-7.156-10.236-11.584-17.238-14.918-13.2-6.33-65.097-25.129-51.174 9.265 4.81 11.884 16.723 15.018 24.962 23.675 8.225 8.693 12.861 20.259 12.989 32.409v0Z" stroke="url(#W)" stroke-opacity=".65" stroke-width=".5" stroke-linecap="round" stroke-linejoin="round" stroke-dasharray="8 3"/><path d="M780.647 737.379c3.176-12.919-2.331-29.575-18.156-26.172-11.415 2.46-20.85 17.17-24.479 27.657-3.759 10.88.26 20.364 11.963 22.95 15.447 3.4 27.267-10.542 30.672-24.435Z" stroke="url(#X)" stroke-opacity=".65" stroke-width=".5" stroke-linecap="round" stroke-linejoin="round" stroke-dasharray="8 3"/><path d="m757.325 742.17 8.796-15.235" stroke="url(#Y)" stroke-opacity=".65" stroke-width=".5" stroke-linecap="round" stroke-linejoin="round"/><path d="m754.279 730.255 14.887 8.595" stroke="url(#Z)" stroke-opacity=".65" stroke-width=".5" stroke-linecap="round" stroke-linejoin="round"/><path d="m893.629 502.747 8.802-15.245" stroke="url(#aa)" stroke-opacity=".65" stroke-width=".5" stroke-linecap="round" stroke-linejoin="round"/><path d="m890.583 490.833 14.897 8.6" stroke="url(#ab)" stroke-opacity=".65" stroke-width=".5" stroke-linecap="round" stroke-linejoin="round"/><path d="M908.13 1153.44c27.295 7.25 55.652 9.05 83.816 9.99 16.324.53 38.784 1.95 43.354-19.14 2.4-11.14-1.32-22.48-3.76-33.55-5.95-27.01-3.26-57.44-.63-84.89 4.7-49.332 23.04-97.755 16.66-147.53-3.57-27.819-16.11-55.601-37.48-73.684-7.04-5.947-20.599-16.643-30.204-16.812-12.329-.253-21.152 15.605-24.84 25.377-7.205 19.203-12.6 37.863-18.084 57.733-3.399 12.393-8.867 25.081-19.417 32.381-11.961 8.258-28.035 7.745-41.621 2.922-19.22-6.756-32.339-20.813-50.262-29.6-10.807-5.289-23.117-8.24-35.078-6.465-12.653 1.845-24.175 8.74-33.644 17.458-8.013 7.374-13.291 17.859-21.255 24.978-5.917 5.28-14.152 5.306-20.449 10.451-3.679 3.011-6.15 8.251-4.197 12.599 2.345 5.326 9.29 6.285 15.097 6.503 28.222 1.031 57.266.039 85.102 4.62 34.031 5.591 59.25 30.861 59.664 66.729.301 26.73-12.69 51.73-12.888 77.93-.126 15.25 5.141 28.5 13.066 41.13 8.227 13.05 20.862 16.3 35.389 20.34l1.661.53Z" stroke="url(#ac)" stroke-opacity=".65" stroke-width=".5" stroke-linecap="round" stroke-linejoin="round"/><path d="M988.091 431.207a6.607 6.607 0 0 0 2.082 1.627c2.358 1.007 5.15-1.069 5.96-3.552.81-2.483.224-5.19-.227-7.721-3.611-18.738.056-32.196 2.436-50.653.371-2.85.197-6.51-2.423-7.541-2.621-1.031-5.381 1.66-7.121 4.074-6.604 9.038-15.59 17.951-16.782 29.547-1.388 13.497 7.29 25.259 16.075 34.219Z" stroke="url(#ad)" stroke-opacity=".65" stroke-width=".5" stroke-linecap="round" stroke-linejoin="round" stroke-dasharray="8 3"/><path d="M1152.41 617.455c-6.22-2.04-18.6 2.813-23.27 7.219a12.341 12.341 0 0 0-3.51 5.473 12.241 12.241 0 0 0-.27 6.463c3.98 14.125 21.77.255 27.44-5.168 2.59-2.475 5.11-5.873 4.27-9.338a7.055 7.055 0 0 0-1.75-2.922 6.84 6.84 0 0 0-2.91-1.727v0Z" stroke="url(#ae)" stroke-opacity=".65" stroke-width=".5" stroke-linecap="round" stroke-linejoin="round" stroke-dasharray="8 3"/><path d="M1027.44 47.89c-2.65 10.697-2.39 21.866.76 32.308 1.54 5.148 3.98 10.26 8.33 13.322 4.34 3.062 11 3.229 14.66-.768 3.99-4.364 2.89-11.1 2.38-16.967-.88-10.167.83-20.445 4.97-29.856 2.2-4.986 5.13-9.81 6.19-15.093 1.07-5.284-.08-11.595-4.55-14.505-3.33-2.162-7.81-1.967-11.48-.313a26.907 26.907 0 0 0-9.24 7.7c-9.53 11.604-14.61 26.245-14.29 41.171" stroke="url(#af)" stroke-opacity=".65" stroke-width=".5" stroke-linecap="round" stroke-linejoin="round" stroke-dasharray="8 3"/><path d="M403.282 876.761c-6.189 15.137-17.274 25.958-31.379 33.631-9.538 5.189-35.906 10.477-38.191 23.343-.96 5.432 1.792 10.964 5.9 14.485 4.108 3.521 9.356 5.402 14.558 6.859 18.031 4.859 36.994 5.53 55.482 1.963 18.489-3.568 36.03-11.282 51.325-22.572 55.308-41.491 83.409-161.275-2.625-182.959-14.626-3.692-29.665-1.892-44.144 2.274-13.054 3.812-31.597 7.745-42.439 16.224-5.326 4.159-9.229 10.942-8.076 17.565 1.234 7.153 7.618 11.917 13.242 16.341 12.466 9.836 23.769 22.092 28.592 37.388 3.607 11.303 2.42 24.065-2.245 35.458Z" stroke="url(#ag)" stroke-opacity=".65" stroke-width=".5" stroke-linecap="round" stroke-linejoin="round"/><path d="M456.608 849.148c3.643.691 7.41.527 11.014-.48a24.91 24.91 0 0 0 9.779-5.332 33.582 33.582 0 0 0 10.635-19.478c.407-2.231.603-4.493.587-6.754.05-6.575-1.821-12.981-5.38-18.411a26.749 26.749 0 0 0-9.464-8.682 26.787 26.787 0 0 0-12.429-3.263c-34.572.339-36.266 55.492-4.742 62.4Z" stroke="url(#ah)" stroke-opacity=".65" stroke-width="2" stroke-linecap="round" stroke-linejoin="round"/><path d="M1381.77 76.126c3.09-.402 6.57-1.529 7.8-4.434.34-.934.47-1.93.37-2.91a6.39 6.39 0 0 0-.94-2.752 16.315 16.315 0 0 0-2.9-3.805 46.986 46.986 0 0 0-26.55-13.189c-12.65-1.768-22.08 7.029-16.63 20.194 4.95 12.148 28.12 8.274 38.85 6.896Z" stroke="url(#ai)" stroke-opacity=".65" stroke-width=".5" stroke-linecap="round" stroke-linejoin="round"/><path d="M1106.21 214.548c5.58 1.805 9.03 8.621 10.69 14.005 1.27 4.094 1.25 8.808-.97 12.544-2.23 3.736-6.98 6.074-11 4.633-6.22-2.177-3.94-14.107-5.97-19.564-1.39-3.641-2.46-8.513.67-10.961 1.86-1.438 4.4-1.287 6.58-.657Z" stroke="url(#aj)" stroke-opacity=".65" stroke-width=".5" stroke-linecap="round" stroke-linejoin="round"/><path d="M571.608 39.408c5.659-2.407 9.707-9.276 10.653-23.085.461-6.656.803-13.395-.442-19.93s-4.193-12.904-9.31-17.007c-14.12-11.315-70.019 1.236-60.236 25.538 2.232 5.545 7.179 9.365 11.931 12.946 13.385 10.068 34.607 27.016 47.404 21.538Z" stroke="url(#ak)" stroke-opacity=".65" stroke-width=".5" stroke-linecap="round" stroke-linejoin="round" stroke-dasharray="8 3 4 3"/><path d="M548.01 27.798c3.942 2.56 9.129 4.547 14.103.95 3.863-2.777 6.276-8.277 6.508-12.952a18.493 18.493 0 0 0-.978-6.877 23.388 23.388 0 0 0-2.429-4.964c-4.09-6.432-24.86-23.204-32.06-6.892-5.365 11.982 8.978 26.944 14.856 30.735Z" stroke="url(#al)" stroke-opacity=".65" stroke-width=".5" stroke-linecap="round" stroke-linejoin="round"/><path d="M1140.17 814.317c-19.68-25.663-64.23-15.547-65.27 19.807-.29 9.48 2.37 18.703 3.87 28.038 2.64 16.422-.38 32.733-4.03 48.869-1.69 7.536-13.23 37.754 1.62 38.567 3.12.158 6.08-1.455 8.83-3.013 14.47-8.257 33.68-10.858 46.3-21.968 29.54-25.938 31.56-80.467 8.68-110.3Z" stroke="url(#am)" stroke-opacity=".65" stroke-width="2" stroke-linecap="round" stroke-linejoin="round"/><path d="M488.235 231.23c.033-2.648-1.421-5.076-2.867-7.23-5.797-9.021-13.268-27.435-23.854-31.476-10.586-4.04-18.307 4.652-17.894 14.692.432 10.392 7.805 22.181 15.858 28.136 6.428 4.76 28.589 10.406 28.757-4.122Z" stroke="url(#an)" stroke-opacity=".65" stroke-width=".5" stroke-linecap="round" stroke-linejoin="round" stroke-dasharray="8 3 4 3"/><path d="M505.811 210.993c3.92 10.136 9.209 23.758 2.89 34.294-5.315 8.847-20.746 12.549-30.463 12.599-24.323.114-47.111-28.193-54.055-49.224-3.694-11.056-4.743-23.86.942-34.21 8.555-15.587 33.204-14.633 48.289-12.96 7.505.83 15.038 4.157 19.23 10.436 6.869 10.406 8.54 27.102 13.167 39.065Z" stroke="url(#ao)" stroke-opacity=".65" stroke-width=".5" stroke-linecap="round" stroke-linejoin="round"/><path d="M778.848 1299.27c-6.831-16.98-16.109-33.04-26.257-48.16-20.853-31.1-50.241-60.58-79.911-83.26-31.185-23.82-68.733-34.6-107.034-42.3-26.339-5.28-53.203-6.02-79.108-12.97-45.709-12.2-93.987-24.47-130.449-55.45-19.878-16.93-37.049-32.51-65.16-32.97a72.273 72.273 0 0 0-31.583 6.52c-10.028 4.69-15.293 11.41-22.998 18.92-14.837 14.43-34.349 22.86-54.725 23.63-17.293.32-34.154-4.77-48.269-14.59-10.131-6.94-27.463-20.74-28.272-34.2-.485-7.89 4.063-15.34 9.469-21.2 5.406-5.856 11.781-10.8 16.496-17.214a42.785 42.785 0 0 0 7.069-15.573 42.119 42.119 0 0 0 .376-17.009c-2.524-13.203-10.865-22.643-22.45-28.339-10.801-5.3-22.479-11.843-26.223-24.204-4.152-13.745 4.255-28.978 15.862-37.653 11.606-8.676 25.882-12.491 39.523-17.127 13.641-4.636 27.655-10.759 36.463-22.341 20.55-27.216 6.868-68.053-17.79-86.204-26.923-19.8-64.686-12.948-95.693-21.375-22.762-6.19-44.743-19.208-55.984-40.096-8.912-16.592-12.053-38.761-28.755-47.213-14.024-7.089-41.79-.722-52.15 11.965-13.477 16.476-14.458 46.408-11.195 66.037 4.425 26.571 20.708 48.497 34.782 70.481a303.777 303.777 0 0 1 28.31 56.603c12.993 34.538 7.568 70.032-8.268 103.63a190.91 190.91 0 0 1-7.216 13.82c-9.662 16.735-22.038 34.712-36.422 47.742-14.99 13.57-37.218 21.78-55.263 31.23-6.148 3.23-12.416 6.55-17.221 11.61-9.82 10.36-11.625 25.73-12.92 39.9-1.247 13.64 1.617 22.8 16.089 23.01 12.826.18 25.221-4.89 37.834-6.78 18.835-2.83 38.518 1.37 56.663-4.68 16.175-5.4 28.79-18.18 42.67-28.29 24.203-17.68 52.412-16.69 79.751-9.62 54.676 14.18 108.369 40.84 154.6 73.14 16.54 11.57 33.175 25.3 44.918 41.98 12.496 17.75 21.362 35.77 40.037 48.3 17.975 12.08 38.761 15.66 60.207 15.56 15.773-.07 32.073-2.28 47.584 1.2 13.975 3.12 24.737 18.05 28.952 31.49 12.098 38.49-17.732 81.13-45.126 105.77-41.21 37.12-25.317 71-10.681 117.41 10.713 33.98 36.368 64.52 69.744 77.15 16.505 6.41 34.677 7.4 51.984 2.85 25.787-7.04 36.844-26.68 56.205-42.73 20.371-16.9 45.76-27.33 70.636-34.96 24.532-7.51 49.704-13.17 73.147-23.77 16.179-7.33 31.667-17.25 43.717-30.61 19.613-21.72 26.068-59.12 25.341-87.34-.432-18.05-4.733-35.33-11.306-51.72Z" stroke="url(#ap)" stroke-opacity=".65" stroke-width="2" stroke-linecap="round" stroke-linejoin="round"/><path d="M653.335 1141.82a261.388 261.388 0 0 0-64.169-23.06c-25.874-5.61-51.394-7.48-77.246-13.31-29.009-6.53-58.09-13.11-86.199-22.81-28.771-9.98-49.675-24.26-71.344-45.45-30.483-29.74-77.532-29.16-110.795-1.89-11.049 9.05-20.291 20.74-33.007 27.08-30.314 15.13-96.861-1.08-87.906-45.61 2.304-11.2 11.626-19.421 17.985-28.97a59.437 59.437 0 0 0 8.689-21.317 58.46 58.46 0 0 0-.104-22.892 54.876 54.876 0 0 0-.73-3.032c-3.83-13.891-12.7-25.719-24.858-33.147-6.584-3.986-14.68-7.298-17.169-14.678-2.489-7.381 2.026-15.513 7.636-21.125 16.303-16.234 40.954-20.06 59.703-33.279a72.507 72.507 0 0 0 21.295-24.071 72.395 72.395 0 0 0 8.814-30.89c.98-21.648-9.399-47.174-27.906-58.767-42.516-26.618-98.522-9.56-138.463-41.528-10.819-8.69-19.707-19.577-26.111-31.984-5.781-11.21-5.916-21.757-17.006-28.741-17.658-11.117-43.57-12.091-60.29 2.342-36.98 31.929-27.919 81.249-7.921 119.165 10.432 19.768 23.627 37.968 33.24 58.171 30.066 63.163 24.576 140.183-32.017 187.499-15.326 12.814-32.723 22.824-50.837 30.864-12.052 5.34-42.558 10.04-46.834 25.04-1.239 4.54.608 9.17 2.032 13.6 1.887 6 2.827 12.29 2.786 18.63-.009 11.06-7.856 23.52 4.368 30.68 5.374 3.1 11.907 3.38 18.134 2.92 13.269-.99 25.987-5.42 39.116-7.35 25.287-3.66 55.55 6.47 77.8-9.31 15.066-10.68 25.506-27.18 43.7-32.48 20.575-6 42.602-2.24 62.79 2.62 40.572 9.82 80.916 28.78 117.511 48.87 18.946 10.4 39.21 21.52 56.258 35.83 18.177 15.26 27.233 32.97 38.344 53.63 12.921 24.02 42.625 33.24 68.113 35.19 24.386 1.87 60.535.91 74.431 25.7 8.175 14.65 6.029 33.47-.978 49.01-14.247 31.59-54.224 56.44-54.476 93.49-.066 10.18 1.516 20.5-.915 30.4-1.29 5.28-3.74 10.6-2.897 15.91.91 5.99 5.625 10.43 9.631 14.87 14.591 16.14 8.371 36.88 16.699 54.79 9.765 20.54 26.426 36.81 47.07 45.96 26.583 11.82 69.008 15.33 95.479-.2 10.344-6.05 18.368-15.37 27.017-23.72 19.188-18.57 43.721-30.42 69.871-33.75 33.944-4.25 66.741-15.79 96.186-33.83 13.771-8.39 28.19-17.02 36.729-30.8l1.635-2.69c18.138-30.55 27.766-66.24 25.724-101.55-2.333-40.47-21.438-68.1-41.687-100.97-26.071-42.26-62.989-76.46-106.921-99.06Z" stroke="url(#aq)" stroke-opacity=".65" stroke-width=".5" stroke-linecap="round" stroke-linejoin="round"/><path d="M26.597 1033.33a133.912 133.912 0 0 1 36.707 4.65c7.036 1.91 16.17 3.67 20.416-2.39 2.237-3.18 2.074-7.32 2.463-11.21 2.354-25.178 40.018-41.676 32.635-69.103-6.928-25.646-47.023-28.993-53.766-57.695-5.64-24.01 17.617-44.726 38.381-58.314 20.763-13.588 44.798-32.409 41.624-56.923-2.977-23.125-28.885-34.863-51.758-37.812-22.873-2.95-48.062-1.96-66.297-15.992-8.104-6.225-14.015-14.929-21.802-21.538-7.786-6.609-18.88-11.042-28.295-6.69-12.184 5.618-14.657 22.986-9.364 35.234 4.56 10.562 13.464 16.965 19.49 26.261 5.048 7.751 10.432 15.952 14.459 24.391 9.05 18.8 12.352 40.282 11.322 61.249-1.452 29.716-10.975 58.575-22.028 86.337-13.1 32.894-34.533 61.855-60.947 85.305-3.502 3.11-7.148 6.18-9.733 10.11-2.586 3.92-3.946 8.97-2.338 13.39 2.25 6.54 9.733 9.33 16.473 10.67 6.282 1.24 13.808 5.9 19.849 5.79 6.79-.17 15.246-6.51 20.785-10.08 14.044-9.05 24.939-13.68 41.693-15.12 3.303-.32 6.672-.49 10.031-.52Z" stroke="url(#ar)" stroke-opacity=".65" stroke-width=".5" stroke-linecap="round" stroke-linejoin="round"/><path d="M68.609 925.849c11.258 7.677 25.956 10.574 34.413 21.159 6.83 8.554 6.364 21.364 1.764 31.517-4.339 9.58-12.316 15.16-17.939 23.535-4.206 6.25-4.388 14.34-10.648 19.81-9.601 8.37-23.93 5.15-36.173 2.63a193.629 193.629 0 0 0-42.315-3.92c-5.615.12-11.555.42-16.653-1.91-19.11-8.65-2.068-33.677 5.486-44.337 17.8-25.116 33.281-53.13 40.412-83.2 7.66-32.232 3.409-63.284-1.148-95.292-.498-3.508-.98-7.162.136-10.56 1.474-4.426 5.434-7.587 9.558-9.688 15.466-7.895 35.95-3.161 46.136 10.649 6.864 9.311 8.517 22.053 5.27 33.271-6.602 22.815-33.91 32.326-39.012 57.127-3.253 15.669 3.486 31.943 14.054 43.577a36.92 36.92 0 0 0 6.659 5.632v0Z" stroke="url(#as)" stroke-opacity=".65" stroke-width="2" stroke-linecap="round" stroke-linejoin="round"/><path d="M-6.138 890.425a189.146 189.146 0 0 0 3.831-37.606c-.034-25.27-5.984-50.664-18.11-72.588-12.126-21.923-30.932-39.505-42.944-61.746-9.468-17.524-11.292-49.585 13.908-55.803 16.604-4.103 31.05 10.153 43.545 21.594a189.13 189.13 0 0 0 84.973 44.648c18.784 4.319 38.495 5.855 56.02 13.817 17.526 7.962 32.972 24.711 31.854 44.293-1.43 25.19-27.299 40.753-49.129 53.356-21.83 12.604-45.762 33.839-39.76 58.184 7.308 29.668 62.017 37.111 50.563 71.933-3.465 10.539-11.317 19-18.785 27.157-7.467 8.156-15.434 18.286-13.72 29.216a43.874 43.874 0 0 0 5.897 16.52 42.803 42.803 0 0 0 11.855 12.75c8.497 6.03 18.515 9.44 28.468 12.56 29.729 9.32 58.375 16.17 86.486-3.58 15.422-10.85 27.276-27.63 45.011-33.69 21.836-7.45 42.241 3.66 59.986 14.77 19.602 12.24 35.333 29.58 54.683 42.49 28.573 19.08 63.352 28.78 96.879 35.17 35.298 6.73 70.892 4.98 104.885 17.6 79.902 29.66 133.817 110.03 156.324 190.49 6.651 23.7 6.765 50.87-6.59 71.91-18.047 28.45-52.664 34.13-80.801 47.33-15.661 7.34-32.349 10.94-47.604 19.53a154.244 154.244 0 0 0-40.625 32.96c-11.621 13.33-21.233 28.87-35.798 38.91-15.255 10.45-34.668 13.51-52.639 10.57-19.216-3.13-37.561-12.61-52.294-25.14-16.729-14.24-26.292-35.39-32.712-56.66-4.745-15.79-8.125-32.55-5.306-48.98 5.21-30.44 29.187-52.96 46.754-76.83 15.519-21.14 30.542-54.1 23.151-80.7a47.142 47.142 0 0 0-8.58-16.67 46.387 46.387 0 0 0-14.352-11.89c-22.074-11.61-48.646-5.39-72.974-7.86-35.698-3.68-53.563-25.25-74.394-51.83a373.737 373.737 0 0 0-60.122-60.75c-9.726-7.79-20.19-16.87-31.017-22.89-12.79-7.11-28.945-10.58-42.744-15.44-38.652-13.65-77.721-26.44-117.796-35.39-18.431-4.09-38.646 1.81-55.284 11.25-14.919 8.41-24.177 27.04-42.103 30.02-7.421 1.23-14.899-.77-22.066-2.81-6.477-1.79-13.008-3.88-19.785-4.14-6.271-.24-12.888 1.65-18.73-1.41-8.075-4.24-9.292-16.18-4.969-24.43 4.323-8.26 12.452-13.7 20.241-18.76 16.85-10.94 32.857-20.63 46.84-35.371 17.741-18.724 27.9-41.697 37.37-65.494a236.119 236.119 0 0 0 12.21-40.57v0Z" stroke="url(#at)" stroke-opacity=".65" stroke-width=".5" stroke-linecap="round" stroke-linejoin="round"/><path d="M209.14 612.338a218.432 218.432 0 0 0 12.225 48.45c4.122 10.891 8.565 24.563.549 33.213-6.463 6.993-17.362 6.232-26.623 4.914l-79.351-11.244c-21.873-3.096-50.837-1.931-69.45-14.635-22.094-15.054-29.202-45.91-23.84-72.675 4.177-20.895 14.745-40.88 14.1-62.09-.443-14.838-6.668-28.617-16.261-39.731a78.806 78.806 0 0 0-29.77-21.301c-25.732-10.388-47.745-3.734-74.054-2.725-25.282 1.008-51.711 2.104-77.119 1.408-6.838-.161-14.122-.749-19.839-4.532-5.716-3.783-9.198-11.821-5.842-17.97 3.355-6.148 11.612-7.58 18.571-8.782 24.648-4.316 47.481-16.352 65.256-34.4 9.808-10.026 17.923-21.753 28.556-30.877 10.915-9.302 22.934-13.314 36.94-12.987 14.334.332 24.447 8.937 37.005 15.01 17.568 8.323 37.817 9.207 56.325 2.461 18.434-6.918 33.693-20.659 42.645-38.404 5.456-10.865 8.363-22.79 13.027-34.013 4.663-11.223 11.648-22.241 22.379-27.791 29.243-15.118 67.087 35.342 78.715 57.433 12.402 23.558 21.139 56.561 15.007 83.604-6.612 29.22-10.963 59.49-15.68 89.364-5.357 33.888-7.857 66.163-3.471 98.3Z" stroke="url(#au)" stroke-opacity=".65" stroke-width="2" stroke-linecap="round" stroke-linejoin="round"/><path d="M322.249 229.715a96.036 96.036 0 0 0-8.712 13.553c-7.734 14.429-16.92 28.106-29.66 38.552-15.863 13.07-37.56 20.161-56.987 14.676-20.116-5.684-38.03-28.652-29.121-49.964 3.207-7.667 7.466-14.924 9.743-22.901 4.006-14.142 1.543-29.082 2.365-43.687 1.139-20.266 8.65-39.661 16.257-58.575 7.607-18.914 15.519-38.092 17.513-58.304 1.609-16.207-1.269-32.181-9.443-46.065-8.697-14.78-20.886-19.477-32.798-31.063-17.692-17.18-21.992-42.912-22.339-66.944-.395-27.79 2.119-53.007 25.222-71.968 10.166-8.316 21.871-14.665 32.14-22.921 14.293-11.48 23.081-27.301 24.537-45.596 1.207-15.006-10.968-40.831-2.072-53.455 6.354-9.013 20.011-10.916 27.658-3.082 7.648 7.834 9.553 20.595 9.736 31.154.159 10.745-.984 21.774 2.02 32.034 7.514 25.758 53.568 38.134 76.057 42.493 21.784 4.236 44.499 8.059 65.991-.116 13.674-5.198 26.679-12.598 41.036-15.33 20.334-3.864 41.377 11.377 41.759 33.116.39 22.78-22.173 51.033-37.807 65.483-19.833 18.338-44.322 29.52-58.867 53.705-9.935 16.536-14.653 41.033-8.82 59.451 6.572 20.717 26.226 38.604 38.036 56.274 7.161 10.717 26.941 38.975 8.115 48.943-5.864 3.098-12.629 3.603-19.084 4.941-29.066 6-53.607 31.365-58.895 60.882-1.599 8.892-2.754 19.8-10.914 23.586-10.413 4.854-20.543-6.385-31.788-3.954-8.189 1.627-15.263 7.926-20.878 15.082Z" stroke="url(#av)" stroke-opacity=".65" stroke-width="2" stroke-linecap="round" stroke-linejoin="round"/><path d="M487.751-154.008a39.203 39.203 0 0 0-19.63-11.063c-17.461-3.826-35.225 4.472-52.9 8.027-12.004 2.403-24.027.611-35.944 2.597-7.655 1.255-14.489 4.401-22.368 4.746-22.188.907-45.2-8.861-60.928-24.112-6.961-6.743-15.598-15.431-24.682-11.725-5.891 2.4-8.686 9.042-11.971 14.564-10.812 18.199-31.33 28.071-45.245 44.01-17.456 20.009-23.007 49.813-13.794 74.31 12.233 32.71 43.352 52.492 50.784 88.501 4.418 21.517.458 44.054-5.603 65.379-6.061 21.325-14.192 42.036-18.397 63.723-5.064 26.057.245 51.89-7.403 78.341-1.507 5.3-3.398 10.975-2.024 16.35 1.215 5.099 5.247 9.087 9.624 11.926 28.552 18.513 52.468-6.008 66.919-30.007 13.889-23.047 25.751-48.058 56.566-45.587 7.397.583 15.181 2.778 22.022-.308 9.214-4.17 12.188-15.588 16.137-24.997 6.179-14.599 16.956-26.792 30.623-34.649 8.571-4.882 18.927-8.776 22.897-17.86 5.143-11.741-3.391-24.257-10.102-34.912-8.589-13.682-14.748-28.809-18.208-44.713-3.099-14.272-8.172-31.798-4.919-46.389 5.943-26.6 21.619-50.121 43.85-65.794 13.39-9.292 29.307-15.877 38.547-29.337a42.246 42.246 0 0 0 6.88-18.357 41.31 41.31 0 0 0-2.183-19.331 39.091 39.091 0 0 0-8.548-13.333v0Z" stroke="url(#aw)" stroke-opacity=".65" stroke-width=".5" stroke-linecap="round" stroke-linejoin="round"/><path d="M167.112 358.812a21.165 21.165 0 0 0-6.852-2.538c-8.52-1.472-16.813 5.642-19.862 13.924-3.798 10.347-4.745 30.738-1.646 41.265 2.469 8.519 6.149 16.814 6.387 25.717.582 21.345-20.022 39.337-41.081 41.336-21.058 1.999-41.297-8.466-57.206-22.205-15.614-13.483-26.842-28.463-46.37-36.773-9.212-3.899-19.499-5.937-29.404-3.883-8.997 1.899-18.206 8.654-18.51 17.897-.223 6.964 4.866 13.178 10.95 16.252 10.857 5.516 24.756 5.355 36.369 9.393a81.87 81.87 0 0 1 30.492 18.442c34.362 33.613 6.698 83.304 6.04 123.338-.407 25.001 9.62 50.152 32.115 61.296 26.68 13.233 57.683 14.465 87.017 15.443 16.009.505 25.942.083 32.665-15.98 7.085-17.074 1.942-28.668-.661-44.951-3.026-18.983 3.239-43.183 5.972-62.13 4.644-32.244 10.154-64.596 9.451-97.061-.438-20.849-3.593-41.793-10.906-61.25-4.353-11.691-12.407-30.512-24.96-37.532Z" stroke="url(#ax)" stroke-opacity=".65" stroke-width=".5" stroke-linecap="round" stroke-linejoin="round" stroke-dasharray="8 3"/><path d="M142.027 514.764c.207-1.512.348-3.005.527-4.419.994-9.98 1.765-20.174 5.65-29.449 3.344-7.999 10.614-15.718 19.009-14.558 8.683 1.239 13.025 11.052 14.672 19.819 4.678 25.51-1.23 51.491-4.019 77.017-2.826 25.902.046 52.115 1.662 77.886.446 7.222.722 15.098-3.48 21.056-5.423 7.664-15.999 9.033-25.235 8.921-32.228-.407-87.948-11.598-102.038-45.535-4.704-11.227-3.007-24.177-1.253-36.385 3.154-22.053 8.882-41.938 21.943-60.527 3.55-5.043 9.493-10.392 14.94-7.8 14.13 6.739 2.77 42.381 27.698 37.425 19.946-3.961 27.425-25.559 29.924-43.451Z" stroke="url(#ay)" stroke-opacity=".65" stroke-width=".5" stroke-linecap="round" stroke-linejoin="round"/><path d="M387.702 235.404c4.241-2.063 6.515-6.963 7.018-11.652.503-4.688-.435-9.401-.852-14.081-1.215-13.411 1.784-26.954 8.569-38.707 6.786-11.754 17.015-21.122 29.237-26.775a63.848 63.848 0 0 1 20.866-5.77c8.435-.805 17.666-.156 24.62-5.191 20.536-14.897.372-46.043-10.977-59.83-14.861-18.027-36.841-32.222-43.373-56.008-5.316-19.34 1.884-40.716 14.292-56.76 19.362-25.036 48.762-40.305 69.315-64.837 15.436-18.452 30.487-38.232 40.056-60.567 4.533-10.589 8.052-21.99 7.007-33.361-2.521-26.988-25.992-37.305-48.301-25.29-19.248 10.363-33.26 28.8-52.772 38.586-30.173 15.049-66.054 10.958-97.611.554-20.571-6.769-41.935-17.686-50.392-37.803-4.579-10.914-4.753-23.17-6.14-34.979-1.388-11.809-4.58-24.263-13.401-32.008-13.034-11.469-31.229-4.923-34.878 11.794-3.477 15.625 2.493 30.661 3.323 46.006.851 15.883-4.252 30.171-14.059 42.836-11.01 14.269-25.457 26.255-40.498 35.573-14.403 8.933-21.471 25.761-25.051 42.022-5.502 25.038-7.976 61.47 4.865 84.388 4.442 7.912 12.593 17.37 20.547 21.792 13.914 7.807 24.515 14.055 31.744 29.335 23.59 49.82-22.012 105.781-26.845 156.142-1.993 20.667.899 43.075-9.995 60.815-3.516 5.73-8.321 10.644-11.301 16.669-12.51 25.318 26.572 38.462 43.672 42.647 30.203 7.395 63.698-4.957 80.297-32.865 4.876-8.206 8.084-17.291 12.482-25.774 4.399-8.482 10.315-16.642 18.732-21.017 10.025-5.191 18.334-2.536 26.236 3.8 6.22 5.264 14.252 14.881 23.568 10.316Z" stroke="url(#az)" stroke-opacity=".65" stroke-width=".5" stroke-linecap="round" stroke-linejoin="round"/><path d="M3.583 371c-11.83-6.617-22.703-15.561-36.099-17.111-40.885-4.739-64.722 45.191-91.991 66.158-12.288 9.446-31.332 15.855-46.259 19.621-11.215 2.859-26.925 3.421-25.3 20.076.9 9.414 8.698 16.867 17.532 20.052 24.617 8.908 51.136 1.678 76.423-.731 12.527-1.194 24.595.015 37.195-.825 15.381-1.049 31.022-1.083 45.969 2.823 21.217 5.554 41.228 20.64 46.33 42.196 7.043 29.6-13.472 57.403-15.311 86.542-2.124 33.953 17.667 61.182 46.99 75.671 22.198 10.986 46.742 12.674 70.283 18.62 25.879 6.529 53.713 7.945 80.082 12.545 9.236 1.602 19.39 3.053 27.559-1.806 10.024-5.958 13.239-19.592 10.969-31.002-2.269-11.411-8.694-21.29-14.064-31.484-13.802-26.225-21.014-55.584-21.014-85.54.059-39.429 8.963-78.163 15.226-117.004 2.796-17.351 6.022-35.447 7.677-52.791 1.729-18.095-6.348-40.887-12.711-57.355-8.388-21.724-22.994-41.802-42.712-54.08-15.75-9.789-38.251-19.914-55.331-6.824-14.169 10.856-16.66 26.455-21.985 42.161-5.423 16.09-14.624 31.162-27.782 42.021-17.371 14.411-42.074 20.392-62.66 12.378A72.674 72.674 0 0 1 3.582 371v0Z" stroke="url(#aA)" stroke-opacity=".65" stroke-width=".5" stroke-linecap="round" stroke-linejoin="round"/><path d="m281.488 420.79 8.795-15.235" stroke="url(#aB)" stroke-opacity=".65" stroke-width=".5" stroke-linecap="round" stroke-linejoin="round"/><path d="m278.442 408.875 14.897 8.601" stroke="url(#aC)" stroke-opacity=".65" stroke-width=".5" stroke-linecap="round" stroke-linejoin="round"/><path d="M76.459 673.274c27.294 7.248 55.652 9.052 83.816 9.992 16.326.532 38.781 1.95 43.35-19.144 2.409-11.135-1.315-22.477-3.754-33.545-5.957-27.015-3.26-57.446-.635-84.897 4.707-49.327 23.045-97.751 16.658-147.526-3.566-27.819-16.108-55.6-37.479-73.684-7.032-5.946-20.595-16.642-30.2-16.812-12.277-.222-21.152 15.605-24.84 25.378-7.205 19.203-12.6 37.862-18.085 57.733-3.398 12.393-8.918 25.051-19.416 32.381-11.961 8.258-28.035 7.744-41.62 2.922-19.22-6.756-32.34-20.813-50.263-29.6-10.807-5.29-23.117-8.241-35.078-6.465-12.653 1.844-24.175 8.739-33.644 17.457-8.013 7.374-13.291 17.86-21.255 24.979-5.917 5.279-14.152 5.305-20.449 10.45-3.679 3.011-6.098 8.282-4.197 12.6 2.345 5.325 9.29 6.285 15.097 6.503 28.222 1.03 57.266.039 85.102 4.62 34.03 5.59 59.25 30.861 59.664 66.733.3 26.728-12.69 51.726-12.888 77.925-.126 15.248 5.14 28.502 13.066 41.135 8.227 13.048 20.862 16.3 35.39 20.332l1.66.533Z" stroke="url(#aD)" stroke-opacity=".65" stroke-width=".5" stroke-linecap="round" stroke-linejoin="round"/><path d="M166.129 574.597c-.772-7.283-3.485-16.197-10.702-17.045-5.043-.628-9.712 3.401-12.148 7.981-2.436 4.579-3.327 9.796-5.339 14.578-7.15 17.064-29.021 26.665-44.514 16.047-4.288-2.944-7.803-9.414-12.739-11.043-9.123-2.998-18.371 6.755-19.183 15.436-2.08 21.992 16.304 36.99 35.775 44.968 10.386 4.266 19.882 9.21 31.367 10.493 7.57.838 15.573-.059 22.232-3.96 8.366-4.886 13.637-14.015 16.119-23.404 4.552-17.416.99-36.623-.868-54.051Z" stroke="url(#aE)" stroke-opacity=".65" stroke-width="2" stroke-linecap="round" stroke-linejoin="round"/><path d="M456.197-99.186c5.462-9.869 11.573-30.058 1.466-38.049-7.452-5.891-19.921-7.005-29.119-7.592-16.825-1.061-39.905 9.289-53.121 19.575-12.768 9.92-21.033 24.426-30.156 37.827-9.123 13.4-20.705 25.948-35.755 32.735-15.35 6.926-31.886 9.181-42.162 24.483-18.281 27.221.236 70.992 25.123 86.85 8.352 5.318 19.141 10.398 20.084 20.433.836 9.164-7.358 16.49-14.704 22.108-12.533 9.559-25.211 19.489-34.441 32.26-12.036 16.669-25.187 75.747 11.331 73.213 8.658-.591 15.61-7.159 22.679-12.44 12.74-9.448 27.661-15.36 43.243-17.135 10.036-1.129 21.003-.797 29.044-7.091 9.853-7.703 11.152-21.932 16.825-33.126 7.798-15.357 24.769-26.624 26.109-43.71.859-10.923-5.129-20.862-9.737-30.672-10.215-21.8-11.18-42.84-11.826-66.547-.732-25.957 10.955-41.423 31.04-58.013 12.565-10.477 26.112-20.713 34.077-35.11Z" stroke="url(#aF)" stroke-opacity=".65" stroke-width="2" stroke-linecap="round" stroke-linejoin="round"/><path d="M272.084-112.713a77.553 77.553 0 0 0-20.046 16.57c-12.459 14.666-18.387 34.465-17.222 53.55.649 9.71 3.587 19.076 8.569 27.317 4.845 8.174 6.658 15.646 9.129 25.003 6.176 22.914 16.841 41.895 28.045 62.606 3.23 5.978 6.517 13.153 3.57 19.41-2.528 5.363-8.647 7.774-13.548 11.029-14.747 9.842-24.117 36.562-29.612 52.922-5.134 15.278-6.023 32.184-4.363 48.179.93 8.906 3.858 17.831 9.829 24.343 27.218 29.899 40.605-17.297 57.494-30.824 8.941-7.179 22.028-11.936 33.012-13.964 12.414-2.294 26.508.808 37.859-6.129 14.337-8.745 16.056-29.201 26.721-42.321 7.616-9.348 20.081-15.358 23.56-26.882 3.068-10.116-2.017-20.513-6.174-30.12a177.934 177.934 0 0 1-13.28-50.222c-1.339-11.895-6.059-26.79-4.671-38.727 4.202-36.087 47.022-59.382 65.053-88.066 6.58-10.486 11.215-23.555 6.998-35.026-5.204-14.154-21.773-20.316-36.771-21.06-23.899-1.173-50.971 6.489-72.152 18.063-19.99 10.928-40.985 7.701-62.916 12.941a107.818 107.818 0 0 0-29.084 11.408Z" stroke="url(#aG)" stroke-opacity=".65" stroke-width=".5" stroke-linecap="round" stroke-linejoin="round"/><path d="M233.13 450.746c-1.021 6.234-3.734 14.03-2.684 20.325 2.747 16.466 26.874-1.507 35.915-4.586 15.958-5.553 32.902-10.268 44.527-23.657 23.02-26.499 20.075-61.18 22.907-93.646a289.97 289.97 0 0 0-2.823-71.506c-.834-5.134-2.333-10.964-6.976-13.149-4.644-2.184-10.376.493-13.766 4.493-3.391 4-5.159 9.079-7.636 13.706-12.52 23.341-36.756 25.25-59.767 27.412-5.762.546-20.63-.279-23.299 6.024-3.471 8.196 8.91 20.748 11.319 27.955a192.812 192.812 0 0 1 8.017 34.276c3.56 25.163-1.844 48.328-5.734 72.353Z" stroke="url(#aH)" stroke-opacity=".65" stroke-width=".5" stroke-linecap="round" stroke-linejoin="round"/><path d="M308.498 334.152c-19.684-25.663-64.224-15.547-65.241 19.825-.289 9.479 2.37 18.703 3.87 28.037 2.647 16.423-.38 32.733-4.027 48.87-1.69 7.535-13.231 37.754 1.616 38.566 3.125.159 6.08-1.455 8.836-3.012 14.47-8.257 33.673-10.859 46.297-21.968 29.513-25.957 31.526-80.486 8.649-110.318Z" stroke="url(#aI)" stroke-opacity=".65" stroke-width="2" stroke-linecap="round" stroke-linejoin="round"/><path d="M252.871 440.199c-1.652 3.727-3.52 8.139-1.523 11.618 1.997 3.479 6.65 3.967 10.623 3.665 8.24-.627 16.267-3.149 23.467-7.375a55.984 55.984 0 0 0 18.07-17.008 56.22 56.22 0 0 0 8.985-23.168c1.222-8.28.56-16.695-1.935-24.601-5.224-16.521-36.111-41.985-47.537-16.098-4.102 9.363-1.399 22.087-1.543 31.891a105.1 105.1 0 0 1-8.607 41.076Z" stroke="url(#aJ)" stroke-opacity=".65" stroke-width=".5" stroke-linecap="round" stroke-linejoin="round" stroke-dasharray="8 3"/><path d="M303.507 409.132c.806-7.109-.878-14.181-7.631-17.994-8.958-5.059-18.257.892-21.512 10.035-3.255 9.142-16.157 31.681-2.618 37.498 11.109 4.767 24.122-8.77 28.257-17.731a39.174 39.174 0 0 0 3.504-11.808v0Z" stroke="url(#aK)" stroke-opacity=".65" stroke-width=".5" stroke-linecap="round" stroke-linejoin="round"/><path d="M110.98 636.819c5.608-.11 11.525-1.645 15.701-5.588 4.176-3.944 5.956-10.747 3.117-15.578-2.957-5.154-9.51-6.625-15.344-7.611-9.024-1.536-42.821-13.246-39.507 3.845 2.764 14.419 22.903 25.153 36.033 24.932Z" stroke="url(#aL)" stroke-opacity=".65" stroke-width=".5" stroke-linecap="round" stroke-linejoin="round"/><path d="M-52.824 819.1c-6.83-16.98-16.108-33.033-26.257-48.155-20.853-31.104-50.241-60.583-79.91-83.259-31.185-23.82-68.733-34.604-107.034-42.305-26.339-5.278-53.203-6.021-79.108-12.962-45.709-12.205-93.987-24.474-130.449-55.456-19.879-16.924-37.049-32.511-65.16-32.967-10.83-.246-21.626 1.982-31.583 6.519-10.028 4.693-15.293 11.412-22.998 18.922-14.838 14.43-34.349 22.854-54.725 23.628-17.293.324-34.154-4.773-48.269-14.591-10.131-6.941-27.463-20.736-28.272-34.196-.485-7.898 4.063-15.343 9.469-21.202 5.406-5.858 11.781-10.802 16.495-17.215a42.778 42.778 0 0 0 7.07-15.573 42.142 42.142 0 0 0 .376-17.01c-2.524-13.202-10.866-22.643-22.45-28.338-10.802-5.3-22.479-11.843-26.223-24.204-4.152-13.745 4.255-28.978 15.862-37.654 11.606-8.675 25.882-12.491 39.523-17.126 13.641-4.636 27.655-10.759 36.462-22.341 20.551-27.216 6.869-68.053-17.789-86.205-26.923-19.799-64.686-12.947-95.693-21.374-22.762-6.191-44.744-19.208-55.985-40.096-8.911-16.592-12.052-38.761-28.754-47.213-14.024-7.089-41.791-.722-52.151 11.964-13.476 16.476-14.457 46.408-11.194 66.038 4.467 26.594 20.708 48.497 34.823 70.505a303.72 303.72 0 0 1 28.31 56.602c12.993 34.539 7.568 70.033-8.267 103.631a191.36 191.36 0 0 1-7.217 13.82c-9.662 16.735-22.037 34.712-36.421 47.742-14.99 13.574-37.218 21.777-55.263 31.232-6.149 3.231-12.417 6.549-17.221 11.605-9.821 10.36-11.625 25.73-12.92 39.905-1.247 13.636 1.616 22.793 16.089 23.006 12.826.185 25.221-4.886 37.834-6.782 18.835-2.829 38.518 1.372 56.662-4.678 16.175-5.4 28.79-18.175 42.67-28.29 24.203-17.673 52.413-16.692 79.752-9.618 54.676 14.176 108.368 40.835 154.599 73.144 16.541 11.564 33.175 25.295 44.918 41.976 12.496 17.755 21.363 35.768 40.037 48.295 17.976 12.08 38.761 15.669 60.207 15.568 15.773-.072 32.073-2.279 47.585 1.201 13.974 3.118 24.736 18.041 28.951 31.483 12.098 38.49-17.731 81.129-45.125 105.769-41.242 37.101-25.349 70.987-10.703 117.405 10.714 33.97 36.368 64.52 69.744 77.15 16.508 6.39 34.682 7.38 51.987 2.82 25.786-7.05 36.843-26.68 56.205-42.73 20.371-16.9 45.76-27.33 70.635-34.96 24.532-7.51 49.705-13.175 73.148-23.77 16.178-7.327 31.666-17.251 43.716-30.607 19.614-21.728 26.068-59.124 25.341-87.347-.454-18.036-4.755-35.315-11.329-51.706Z" stroke="url(#aM)" stroke-opacity=".65" stroke-width="2" stroke-linecap="round" stroke-linejoin="round"/><path d="M-178.336 661.652a262.05 262.05 0 0 0-64.169-23.062c-25.873-5.604-51.394-7.472-77.246-13.305-29.009-6.535-58.09-13.112-86.199-22.815-28.77-9.972-49.675-24.254-71.344-45.446-30.483-29.742-77.532-29.16-110.795-1.893-11.049 9.054-20.291 20.74-33.007 27.088-30.314 15.124-96.861-1.083-87.906-45.618 2.305-11.195 11.626-19.417 17.985-28.966a59.445 59.445 0 0 0 8.689-21.317 58.46 58.46 0 0 0-.104-22.892 54.66 54.66 0 0 0-.73-3.032c-3.83-13.891-12.7-25.719-24.858-33.147-6.584-3.986-14.68-7.298-17.169-14.679-2.489-7.381 2.026-15.512 7.636-21.125 16.304-16.234 40.954-20.06 59.703-33.279a72.494 72.494 0 0 0 21.295-24.07 72.4 72.4 0 0 0 8.814-30.891c.98-21.648-9.399-47.173-27.906-58.766-42.516-26.618-98.522-9.56-138.462-41.528-10.82-8.69-19.708-19.578-26.112-31.984-5.781-11.211-5.916-21.757-17.006-28.742-17.658-11.117-43.571-12.091-60.29 2.343-36.98 31.929-27.919 81.248-7.921 119.164 10.432 19.768 23.627 37.969 33.239 58.172 30.067 63.163 24.577 140.182-32.016 187.499-15.326 12.812-32.723 22.826-50.837 30.865-12.052 5.341-42.557 10.041-46.838 25.035-1.29 4.517.61 9.174 2.036 13.599a60.835 60.835 0 0 1 2.786 18.63c-.009 11.06-7.852 23.523 4.368 30.68 5.375 3.103 11.907 3.385 18.134 2.923 13.269-.992 25.988-5.423 39.116-7.347 25.287-3.657 55.55 6.468 77.801-9.312 15.065-10.679 25.505-27.177 43.7-32.475 20.574-6.009 42.601-2.243 62.79 2.619 40.571 9.82 80.916 28.772 117.51 48.865 18.998 10.429 39.21 21.517 56.258 35.828 18.177 15.261 27.233 32.972 38.344 53.629 12.921 24.028 42.625 33.248 68.113 35.197 24.386 1.866 60.484.876 74.431 25.695 8.175 14.65 6.029 33.469-.977 49.013-14.248 31.592-54.225 56.443-54.477 93.492-.066 10.174 1.517 20.493-.915 30.395-1.29 5.284-3.74 10.607-2.897 15.917.91 5.987 5.625 10.425 9.631 14.866 14.591 16.145 8.372 36.875 16.699 54.795 9.765 20.54 26.426 36.8 47.07 45.95 26.583 11.82 69.008 15.33 95.479-.19 10.344-6.06 18.368-15.37 27.017-23.73 19.188-18.57 43.721-30.42 69.871-33.75 33.944-4.25 66.741-15.78 96.186-33.829 13.77-8.391 28.19-17.017 36.73-30.797l1.634-2.688c18.138-30.552 27.766-66.243 25.724-101.552-2.31-40.485-21.425-68.118-41.675-100.988-26.077-42.254-62.999-76.452-106.933-99.044v0Z" stroke="url(#aN)" stroke-opacity=".65" stroke-width=".5" stroke-linecap="round" stroke-linejoin="round"/><path d="m1110.23 561.37 78.25-62.678v-65.668l52.03-41.678c-2.03-3.072-1.44-6.97 1.78-9.553 3.96-3.17 10.4-3.17 14.35 0 3.96 3.167 3.96 8.324 0 11.494-3.23 2.578-8.09 3.06-11.92 1.431l-50.29 40.284v65.664l-81.74 65.474H967.85v-4.77h142.38ZM986.536 595.575l-16.772 13.166-.605 41.492-52.009 40.841c1.557 2.702.932 6.009-1.871 8.201-3.548 2.787-9.234 2.733-12.7-.119-3.466-2.849-3.399-7.423.149-10.21 2.798-2.197 6.92-2.622 10.248-1.303l18.867-14.823.546-37.409c-4.146-1.075-7.129-4.217-7.075-7.893.066-4.508 4.682-8.138 10.295-8.085 5.614.053 10.123 3.769 10.057 8.277-.053 3.672-3.132 6.761-7.303 7.757l-.476 32.611 25.327-19.889.606-41.491 18.548-14.557c-1.562-2.702-.937-6.009 1.861-8.206 3.548-2.786 9.234-2.733 12.699.12 3.462 2.856 3.402 7.427-.149 10.213-2.797 2.193-6.919 2.622-10.243 1.307Z" fill="#547BF9" fill-opacity=".65"/><path d="M1230.46 567.17h47.36l31.04-24.817V470l25.39-20.298c-1.6-2.667-1.02-5.96 1.75-8.166 3.5-2.803 9.19-2.803 12.69 0 3.51 2.803 3.51 7.347 0 10.149-2.76 2.214-6.88 2.667-10.22 1.395l-23.63 18.895v72.357l-28.58 22.838h58.48c1.28-3.321 5.16-5.746 9.72-5.746 5.61 0 10.18 3.647 10.18 8.133 0 4.482-4.57 8.132-10.18 8.132-4.56 0-8.44-2.424-9.72-5.745h-111.82l-44.87 35.876h-220.2v-4.774h217.73l44.88-35.876ZM627.863 578.174c3.828 1.631 8.704 1.152 11.921-1.442 3.952-3.18 3.952-8.356 0-11.541-3.951-3.18-10.387-3.18-14.339 0-3.228 2.59-3.818 6.51-1.791 9.592l-13.533 10.896H559.18l-28.442 22.892h-27.221c-1.273-3.334-5.137-5.771-9.694-5.771-5.594 0-10.147 3.668-10.147 8.166 0 4.503 4.553 8.166 10.147 8.166 4.557 0 8.421-2.437 9.694-5.77h29.689l28.437-22.892h42.52l-43.105 34.697-33.615 27.055h-66.584c-1.278-3.337-5.137-5.766-9.694-5.766-5.594 0-10.146 3.66-10.146 8.162 0 4.502 4.552 8.162 10.146 8.162 4.557 0 8.416-2.429 9.694-5.766h69.042l31.157-25.077v53.908l-41.395 33.317c-3.331-1.28-7.437-.818-10.193 1.4-3.495 2.813-3.495 7.378 0 10.19 3.495 2.809 9.166 2.809 12.661 0 2.756-2.222 3.331-5.522 1.735-8.203l43.145-34.721v-60.682l51.521-41.467 9.331-7.505Z" fill="#547BF9" fill-opacity=".65"/><path d="M560.711 542.669h-74.836l-27.405-22.344h-57.541c-1.278-3.396-5.16-5.867-9.737-5.867-5.619 0-10.192 3.728-10.192 8.305 0 4.581 4.573 8.305 10.192 8.305 4.577 0 8.459-2.475 9.737-5.867h55.067l27.399 22.344h70.104l-23.095 18.826h-63.155c-1.237-2.846-4.557-4.892-8.475-4.892-4.964 0-8.99 3.282-8.99 7.33s4.026 7.334 8.99 7.334c3.918 0 7.238-2.047 8.475-4.896h65.635l29.069-23.702H831.14v-4.876H560.711ZM646.878 663.223c2.031-3.1 1.435-7.049-1.795-9.655-3.96-3.201-10.404-3.201-14.369 0-3.96 3.2-3.96 8.413 0 11.613 3.224 2.615 8.105 3.093 11.942 1.451l13.567 10.961v41.258l28.502 23.035v22.047c-4.151 1.031-7.185 4.161-7.185 7.852 0 4.53 4.567 8.217 10.168 8.217 5.606 0 10.167-3.687 10.167-8.217 0-3.691-3.034-6.821-7.184-7.852v-24.046l-28.503-23.031v-34.438l43.201 34.911 33.687 27.226v53.927c-4.156 1.035-7.18 4.161-7.18 7.852 0 4.531 4.557 8.218 10.162 8.218 5.606 0 10.163-3.687 10.163-8.218 0-3.691-3.024-6.817-7.18-7.852v-55.918l-31.222-25.235h67.12l41.483 33.527c-1.594 2.698-1.018 6.023 1.744 8.255 3.502 2.831 9.185 2.831 12.687 0 3.498-2.83 3.498-7.423 0-10.254-2.767-2.232-6.876-2.698-10.214-1.405l-43.231-34.944h-75.555l-51.63-41.728-9.345-7.557ZM1078.23 171.91h74.84l27.4 21.74h57.54c1.28 3.305 5.16 5.709 9.74 5.709 5.62 0 10.19-3.627 10.19-8.081 0-4.457-4.57-8.081-10.19-8.081-4.58 0-8.46 2.409-9.74 5.709h-55.07l-27.4-21.74h-70.1l23.1-18.317h63.15c1.24 2.769 4.56 4.76 8.48 4.76 4.96 0 8.99-3.194 8.99-7.132 0-3.938-4.03-7.136-8.99-7.136-3.92 0-7.24 1.991-8.48 4.764h-65.63l-29.07 23.061H807.8v4.744h270.43ZM624.409 566.14c.275-.276.803-.808 1.667-1.667-.701.685-1.331 1.33-1.667 1.667Z" fill="#547BF9" fill-opacity=".65"/><path d="M603.274 632.232v51.236c-4.166 1.033-7.207 4.159-7.207 7.841 0 4.524 4.579 8.206 10.206 8.206 5.622 0 10.196-3.682 10.196-8.206 0-3.682-3.035-6.808-7.207-7.841v-49.243l78.687-63.269H831.14v-4.816H685.476l-82.202 66.092ZM677.868 425.324c1.277 3.318 5.149 5.738 9.727 5.738 5.608 0 10.17-3.64 10.17-8.117 0-4.473-4.562-8.12-10.17-8.12-4.573 0-8.45 2.419-9.727 5.738h-19.213l-36.145-28.827h-40.357l-19.316-15.407c2.04-3.069 1.442-6.962-1.792-9.546-3.965-3.163-10.422-3.163-14.387 0-3.966 3.167-3.966 8.318 0 11.485 3.228 2.575 8.115 3.056 11.957 1.429l21.067 16.8h40.356l30.166 24.066H541.333l-47.237-37.683c2.034-3.064 1.437-6.962-1.797-9.541-3.965-3.163-10.428-3.163-14.393 0-3.965 3.166-3.965 8.317 0 11.484 3.234 2.576 8.121 3.052 11.963 1.43l48.992 39.071 44.209.004-47.525 37.9h-58.741c-1.236-2.781-4.552-4.781-8.466-4.781-4.959 0-8.98 3.208-8.98 7.167 0 3.952 4.021 7.164 8.98 7.164 3.914 0 7.23-2 8.466-4.785h61.213l53.493-42.665h73.113l13.245-.004ZM1042.98 326.23c1.28 3.37 5.15 5.826 9.73 5.826 5.61 0 10.17-3.695 10.17-8.241 0-4.542-4.56-8.246-10.17-8.246-4.57 0-8.45 2.457-9.73 5.827h-19.21l-36.146-29.27h-40.357l-19.316-15.645c2.04-3.115 1.442-7.069-1.792-9.693-3.965-3.211-10.422-3.211-14.387 0-3.966 3.216-3.966 8.446 0 11.662 3.228 2.615 8.115 3.103 11.957 1.451l21.067 17.059h40.356l30.168 24.436H906.447l-47.237-38.262c2.034-3.112 1.437-7.07-1.797-9.689-3.965-3.211-10.428-3.211-14.393 0-3.965 3.216-3.965 8.446 0 11.661 3.234 2.615 8.121 3.099 11.963 1.452l48.992 39.672 44.209.004-47.525 38.483h-58.741c-1.236-2.823-4.552-4.854-8.466-4.854-4.959 0-8.98 3.257-8.98 7.277 0 4.013 4.021 7.274 8.98 7.274 3.914 0 7.23-2.031 8.466-4.859h61.213l53.493-43.321h73.116l13.24-.004ZM878.792 705.126v60.151l-27.172 22.021v46.251c-4.131 1.031-7.142 4.147-7.142 7.826 0 4.516 4.534 8.187 10.102 8.187 5.572 0 10.107-3.671 10.107-8.187 0-3.679-3.016-6.795-7.137-7.826v-44.258l27.172-22.025v-56.339l22.898 18.557v50.763c-3.466.99-5.951 3.662-5.951 6.807 0 3.994 3.993 7.23 8.916 7.23s8.916-3.236 8.916-7.23c0-3.145-2.489-5.817-5.951-6.803V727.5l-28.828-23.368V487.783h-5.93v217.343Z" fill="#547BF9" fill-opacity=".65"/><path d="m1006.01 249.186 78.7 63.239v66.254l52.33 42.05c-2.04 3.099-1.45 7.032 1.79 9.638 3.98 3.198 10.45 3.198 14.43 0 3.98-3.195 3.98-8.398 0-11.597-3.24-2.601-8.14-3.087-12-1.444l-50.57-40.643v-66.254l-82.2-66.055H862.817v4.812h143.193ZM798.218 382.375l-16.652-13.304v-41.434l-51.643-41.269c1.604-2.683 1.029-5.991-1.754-8.207-3.517-2.815-9.234-2.815-12.757 0-3.522 2.812-3.522 7.38 0 10.196 2.778 2.22 6.917 2.683 10.269 1.397l18.737 14.979v37.357c-4.18 1.034-7.222 4.143-7.222 7.814 0 4.502 4.584 8.169 10.222 8.169 5.634 0 10.222-3.667 10.222-8.169 0-3.667-3.041-6.78-7.221-7.814v-32.566l25.146 20.097v41.434l18.411 14.71c-1.603 2.683-1.024 5.991 1.754 8.211 3.523 2.815 9.239 2.815 12.762 0 3.523-2.82 3.523-7.384 0-10.2-2.783-2.22-6.921-2.683-10.274-1.401ZM824.893 222.325l-16.652-13.304v-41.434l-51.643-41.269c1.603-2.683 1.029-5.99-1.754-8.206-3.518-2.816-9.234-2.816-12.757 0-3.523 2.811-3.523 7.379 0 10.195 2.778 2.22 6.917 2.683 10.269 1.397l18.737 14.979v37.357c-4.18 1.034-7.222 4.143-7.222 7.814 0 4.502 4.584 8.17 10.222 8.17 5.634 0 10.222-3.668 10.222-8.17 0-3.667-3.041-6.78-7.221-7.814v-32.566l25.146 20.097v41.434l18.411 14.71c-1.603 2.683-1.024 5.991 1.754 8.211 3.523 2.815 9.239 2.815 12.762 0 3.523-2.82 3.523-7.384 0-10.199-2.783-2.221-6.922-2.684-10.274-1.402Z" fill="#547BF9" fill-opacity=".65"/><path d="M1067.07 248.748h47.37l31.04 25.059v73.073l25.39 20.499c-1.6 2.694-1.02 6.019 1.74 8.246 3.51 2.831 9.2 2.831 12.7 0 3.5-2.83 3.5-7.419 0-10.249-2.77-2.236-6.88-2.693-10.22-1.409l-23.64-19.082v-73.073l-28.57-23.064h58.48c1.28 3.354 5.15 5.802 9.72 5.802 5.61 0 10.18-3.682 10.18-8.213 0-4.526-4.57-8.213-10.18-8.213-4.57 0-8.44 2.448-9.72 5.802h-111.81l-44.88-36.231H804.466v4.822H1022.2l44.87 36.231ZM756.887 485.802c1.111-2.677 4.286-4.613 7.956-4.585 4.507.029 8.081 3 7.97 6.624-.111 3.62-3.869 6.542-8.375 6.513-3.668-.026-6.726-2.003-7.667-4.694l-15.43-.108-29.742 23.126-32.413-.229-15.897 12.361c1.556 2.494.982 5.647-1.676 7.714-3.266 2.539-8.454 2.499-11.56-.083-3.11-2.585-2.985-6.752.281-9.292 2.659-2.067 6.598-2.422 9.646-1.089l17.333-13.477 32.416.226 24.827-19.304-87.445-.611-38.876 30.228c1.562 2.494.983 5.642-1.678 7.711-3.263 2.538-8.449 2.504-11.558-.08-3.109-2.585-2.979-6.752.285-9.289 2.661-2.07 6.595-2.43 9.643-1.092l40.316-31.349 35.508.25-37.228-30.942-47.183-.327c-1.057 2.245-3.774 3.843-6.912 3.819-3.986-.025-7.139-2.645-7.037-5.849.101-3.199 3.409-5.771 7.389-5.746 3.147.022 5.759 1.658 6.681 3.919l49.168.343 41.907 34.831 58.72.41 10.631.071ZM1062.89 380.981c-3.83-.894-6.67-3.709-6.75-7.068-.1-4.123 3.99-7.529 9.12-7.593 5.13-.065 9.39 3.238 9.49 7.362.08 3.355-2.62 6.243-6.4 7.227l.34 14.118 33.68 26.143.72 29.658 18 13.974c3.48-1.538 7.96-1.158 10.97 1.178 3.7 2.872 3.8 7.619.25 10.578-3.56 2.963-9.46 3.04-13.16.169-3.01-2.337-3.64-5.924-1.85-8.773l-19.63-15.235-.71-29.66-28.12-21.823 1.93 80.01 44.03 34.172c3.48-1.543 7.95-1.158 10.96 1.181 3.7 2.869 3.82 7.613.26 10.576-3.56 2.962-9.46 3.034-13.16.165-3.01-2.339-3.65-5.92-1.85-8.769l-45.66-35.439-.78-32.489-42.6 35.471 1.05 43.171c3.21.864 5.56 3.276 5.62 6.147.09 3.647-3.51 6.651-8.05 6.705-4.53.054-8.28-2.854-8.37-6.496-.07-2.879 2.16-5.343 5.33-6.29l-1.08-44.988 47.95-39.928-1.29-53.727-.24-9.727ZM654.031 639.849c-1.344 3.328-5.267 5.72-9.837 5.663-5.611-.064-10.106-3.787-10.023-8.301.083-4.508 4.717-8.124 10.329-8.06 4.566.054 8.403 2.536 9.616 5.894l19.212.23 36.677-28.623 40.357.484 19.604-15.299c-1.975-3.115-1.309-7.039 1.969-9.597 4.028-3.144 10.488-3.061 14.394.174 3.911 3.238 3.818 8.429-.21 11.572-3.277 2.558-8.177 2.977-11.992 1.297l-21.374 16.681-40.361-.482-30.616 23.893 108.877 1.299 47.94-37.412c-1.982-3.116-1.309-7.034 1.973-9.595 4.024-3.141 10.48-3.067 14.391.171 3.91 3.239 3.81 8.429-.214 11.569-3.281 2.561-8.173 2.986-11.988 1.301l-49.719 38.8-44.209-.531 46.818 38.772 58.746.698c1.283-2.79 4.641-4.764 8.548-4.715 4.963.056 8.927 3.339 8.85 7.329-.077 3.984-4.157 7.168-9.113 7.112-3.918-.047-7.195-2.101-8.377-4.923l-61.219-.73-52.701-43.644-73.112-.872-13.236-.155ZM1014.54 648.347c-3.87 1.647-8.78 1.163-12.02-1.456-3.991-3.212-3.991-8.438 0-11.654 3.98-3.212 10.47-3.212 14.46 0 3.25 2.615 3.85 6.573 1.8 9.685l13.65 11.003h51.36l28.67 23.116h27.45c1.29-3.366 5.19-5.827 9.78-5.827 5.64 0 10.22 3.704 10.22 8.247 0 4.546-4.58 8.246-10.22 8.246-4.59 0-8.49-2.461-9.78-5.827h-29.93l-28.67-23.116h-42.88l77.36 62.357h67.13c1.29-3.37 5.18-5.823 9.78-5.823 5.63 0 10.22 3.696 10.22 8.242 0 4.547-4.59 8.242-10.22 8.242-4.6 0-8.49-2.452-9.78-5.823h-69.61l-31.41-25.322v54.436l41.74 33.644c3.35-1.293 7.49-.826 10.27 1.414 3.52 2.841 3.52 7.45 0 10.29-3.53 2.836-9.24 2.836-12.77 0-2.78-2.244-3.35-5.577-1.75-8.284l-43.5-35.061v-61.277l-51.94-41.874-9.41-7.578ZM1255 471.631c2.07 3.078 1.52 7.011-1.69 9.63-3.93 3.221-10.38 3.268-14.39.105-4-3.16-4.06-8.351-.13-11.572 3.2-2.619 8.08-3.139 11.94-1.528l13.47-11.02-.46-41.091 28.28-23.148-.25-21.963c-4.16-1.001-7.24-4.096-7.28-7.769-.05-4.513 4.48-8.214 10.09-8.255 5.62-.04 10.22 3.595 10.28 8.108.04 3.672-2.97 6.811-7.11 7.872l.27 23.947-28.29 23.152.39 34.301 76.3-62.454-.61-53.71c-4.17-.997-7.23-4.092-7.27-7.769-.05-4.508 4.47-8.214 10.08-8.254 5.61-.041 10.22 3.598 10.27 8.107.04 3.676-2.95 6.816-7.1 7.873l.62 55.701-30.98 25.358 67.21-.488 41.17-33.7c-1.63-2.671-1.09-5.987 1.65-8.226 3.48-2.849 9.17-2.891 12.71-.092 3.53 2.794 3.58 7.364.11 10.209-2.74 2.248-6.85 2.737-10.21 1.478l-42.9 35.116-75.66.549-51.24 41.938-9.27 7.595ZM449.355 311.061ZM646.57 360.009v-51.24c-4.142-1.033-7.156-4.159-7.156-7.841 0-4.524 4.542-8.206 10.124-8.206 5.587 0 10.134 3.682 10.134 8.206 0 3.682-3.019 6.808-7.156 7.841v49.243l78.132 63.27H872.82v4.815H728.182l-81.612-66.088Z" fill="#547BF9" fill-opacity=".65"/><path d="M684.915 183.287v-51.239c-4.142-1.034-7.156-4.16-7.156-7.842 0-4.524 4.542-8.206 10.124-8.206 5.588 0 10.135 3.682 10.135 8.206 0 3.682-3.02 6.808-7.156 7.842v49.243l78.131 63.269h142.172v4.815H766.528l-81.613-66.088ZM882.823 461.108H681.094l.989-3.335h200.74v3.335ZM932.839 534.464h-5.002v-40.013h5.002v40.013Z" fill="#547BF9" fill-opacity=".65"/><path d="m927.606 534.935 4.075-3.276 39.554 31.797-4.075 3.277-39.554-31.798ZM633.745 424.534l4.075-3.276 46.332 37.247-3.758 3.295-46.649-37.266ZM852.292 367.964l4.076-3.276 53.389 42.919-3.732 3.317-53.733-42.96Z" fill="#547BF9" fill-opacity=".65"/></g><path opacity=".12" d="M688.891 795.874c0-145.656-74.938-322.862-284.561-322.862-200.889 0-304.781 39.367-340.638-96.94C21.078 214.079-53.532 195.969-93.986 195.969" stroke="#547BF9" stroke-width="42"/><path opacity=".12" d="M864.864 795.874c0-108.207 50.407-296.107 205.716-296.107 148.83 0 225.81 29.245 252.37-72.017 31.57-120.343 86.85-133.796 116.82-133.797" stroke="#4698FB" stroke-width="44.993"/><path opacity=".56" d="M379.94 1125.82H0V0h1439.77v120.731H712.388l-47.493 160.724-94.985 281.456-189.97 562.909Z" fill="#ECF3FF"/><path d="M313.583 1045.83H0V0h313.583l264.326 261.459L489.8 522.917 313.583 1045.83Z" fill="#ECF3FF"/><defs><linearGradient id="b" x1="1378.26" y1="187.085" x2="1612.59" y2="-120.289" gradientUnits="userSpaceOnUse"><stop stop-color="#4698FB"/><stop offset="1" stop-color="#547BF9"/></linearGradient><linearGradient id="c" x1="1256.57" y1="305.163" x2="1572.96" y2="-186.876" gradientUnits="userSpaceOnUse"><stop stop-color="#4698FB"/><stop offset="1" stop-color="#547BF9"/></linearGradient><linearGradient id="d" x1="812.538" y1="-314.794" x2="1107.64" y2="-757.289" gradientUnits="userSpaceOnUse"><stop stop-color="#4698FB"/><stop offset="1" stop-color="#547BF9"/></linearGradient><linearGradient id="e" x1="306.909" y1="500.573" x2="452.566" y2="311.553" gradientUnits="userSpaceOnUse"><stop stop-color="#4698FB"/><stop offset="1" stop-color="#547BF9"/></linearGradient><linearGradient id="f" x1="328.135" y1="480.536" x2="452.586" y2="325.045" gradientUnits="userSpaceOnUse"><stop stop-color="#4698FB"/><stop offset="1" stop-color="#547BF9"/></linearGradient><linearGradient id="g" x1="356.006" y1="449.192" x2="449.126" y2="339.653" gradientUnits="userSpaceOnUse"><stop stop-color="#4698FB"/><stop offset="1" stop-color="#547BF9"/></linearGradient><linearGradient id="h" x1="262.546" y1="534.154" x2="453.179" y2="286.787" gradientUnits="userSpaceOnUse"><stop stop-color="#4698FB"/><stop offset="1" stop-color="#547BF9"/></linearGradient><linearGradient id="i" x1="294.056" y1="512.889" x2="454.425" y2="302.817" gradientUnits="userSpaceOnUse"><stop stop-color="#4698FB"/><stop offset="1" stop-color="#547BF9"/></linearGradient><linearGradient id="j" x1="771.239" y1="8.15" x2="846.355" y2="-98.342" gradientUnits="userSpaceOnUse"><stop stop-color="#4698FB"/><stop offset="1" stop-color="#547BF9"/></linearGradient><linearGradient id="k" x1="523.27" y1="500.499" x2="715.352" y2="285.373" gradientUnits="userSpaceOnUse"><stop stop-color="#4698FB"/><stop offset="1" stop-color="#547BF9"/></linearGradient><linearGradient id="l" x1="532.64" y1="495.871" x2="618.19" y2="383.9" gradientUnits="userSpaceOnUse"><stop stop-color="#4698FB"/><stop offset="1" stop-color="#547BF9"/></linearGradient><linearGradient id="m" x1="667.973" y1="346.832" x2="693.102" y2="313.225" gradientUnits="userSpaceOnUse"><stop stop-color="#4698FB"/><stop offset="1" stop-color="#547BF9"/></linearGradient><linearGradient id="n" x1="555.248" y1="489.627" x2="602.78" y2="427.48" gradientUnits="userSpaceOnUse"><stop stop-color="#4698FB"/><stop offset="1" stop-color="#547BF9"/></linearGradient><linearGradient id="o" x1="865.358" y1="508.273" x2="899.845" y2="458.547" gradientUnits="userSpaceOnUse"><stop stop-color="#4698FB"/><stop offset="1" stop-color="#547BF9"/></linearGradient><linearGradient id="p" x1="877.96" y1="503.953" x2="900.841" y2="473.887" gradientUnits="userSpaceOnUse"><stop stop-color="#4698FB"/><stop offset="1" stop-color="#547BF9"/></linearGradient><linearGradient id="q" x1="818.889" y1="521.346" x2="905.504" y2="400.024" gradientUnits="userSpaceOnUse"><stop stop-color="#4698FB"/><stop offset="1" stop-color="#547BF9"/></linearGradient><linearGradient id="r" x1="923.502" y1="354.818" x2="952.876" y2="321.276" gradientUnits="userSpaceOnUse"><stop stop-color="#4698FB"/><stop offset="1" stop-color="#547BF9"/></linearGradient><linearGradient id="s" x1="127.671" y1="927.006" x2="397.263" y2="554.85" gradientUnits="userSpaceOnUse"><stop stop-color="#4698FB"/><stop offset="1" stop-color="#547BF9"/></linearGradient><linearGradient id="t" x1="75.454" y1="961.875" x2="370.503" y2="519.453" gradientUnits="userSpaceOnUse"><stop stop-color="#4698FB"/><stop offset="1" stop-color="#547BF9"/></linearGradient><linearGradient id="u" x1="432.058" y1="48.21" x2="600.477" y2="-189.382" gradientUnits="userSpaceOnUse"><stop stop-color="#4698FB"/><stop offset="1" stop-color="#547BF9"/></linearGradient><linearGradient id="v" x1="171.688" y1="922.111" x2="403.805" y2="601.948" gradientUnits="userSpaceOnUse"><stop stop-color="#4698FB"/><stop offset="1" stop-color="#547BF9"/></linearGradient><linearGradient id="w" x1="712.662" y1="1034.28" x2="909.391" y2="756.432" gradientUnits="userSpaceOnUse"><stop stop-color="#4698FB"/><stop offset="1" stop-color="#547BF9"/></linearGradient><linearGradient id="x" x1="490.493" y1="10.282" x2="566.374" y2="-93.452" gradientUnits="userSpaceOnUse"><stop stop-color="#4698FB"/><stop offset="1" stop-color="#547BF9"/></linearGradient><linearGradient id="y" x1="407.743" y1="214.188" x2="447.904" y2="154.51" gradientUnits="userSpaceOnUse"><stop stop-color="#4698FB"/><stop offset="1" stop-color="#547BF9"/></linearGradient><linearGradient id="z" x1="229.582" y1="931.609" x2="419.357" y2="677.79" gradientUnits="userSpaceOnUse"><stop stop-color="#4698FB"/><stop offset="1" stop-color="#547BF9"/></linearGradient><linearGradient id="A" x1="598.589" y1="997.256" x2="849.563" y2="630.122" gradientUnits="userSpaceOnUse"><stop stop-color="#4698FB"/><stop offset="1" stop-color="#547BF9"/></linearGradient><linearGradient id="B" x1="1272.95" y1="101.07" x2="1346.2" y2="-.623" gradientUnits="userSpaceOnUse"><stop stop-color="#4698FB"/><stop offset="1" stop-color="#547BF9"/></linearGradient><linearGradient id="C" x1="452.374" y1="565.714" x2="506.738" y2="488.988" gradientUnits="userSpaceOnUse"><stop stop-color="#4698FB"/><stop offset="1" stop-color="#547BF9"/></linearGradient><linearGradient id="D" x1="566.74" y1="483.057" x2="593.626" y2="447.839" gradientUnits="userSpaceOnUse"><stop stop-color="#4698FB"/><stop offset="1" stop-color="#547BF9"/></linearGradient><linearGradient id="E" x1="368.054" y1="445.002" x2="446.661" y2="356.065" gradientUnits="userSpaceOnUse"><stop stop-color="#4698FB"/><stop offset="1" stop-color="#547BF9"/></linearGradient><linearGradient id="F" x1="401.761" y1="401.363" x2="434.461" y2="364.438" gradientUnits="userSpaceOnUse"><stop stop-color="#4698FB"/><stop offset="1" stop-color="#547BF9"/></linearGradient><linearGradient id="G" x1="441.334" y1="660.144" x2="492.357" y2="583.769" gradientUnits="userSpaceOnUse"><stop stop-color="#4698FB"/><stop offset="1" stop-color="#547BF9"/></linearGradient><linearGradient id="H" x1="205.1" y1="927.819" x2="416.246" y2="643.433" gradientUnits="userSpaceOnUse"><stop stop-color="#4698FB"/><stop offset="1" stop-color="#547BF9"/></linearGradient><linearGradient id="I" x1="347.758" y1="865.193" x2="440.886" y2="738.817" gradientUnits="userSpaceOnUse"><stop stop-color="#4698FB"/><stop offset="1" stop-color="#547BF9"/></linearGradient><linearGradient id="J" x1="459.121" y1="30.94" x2="573" y2="-131.162" gradientUnits="userSpaceOnUse"><stop stop-color="#4698FB"/><stop offset="1" stop-color="#547BF9"/></linearGradient><linearGradient id="K" x1="575.24" y1="298.059" x2="666.903" y2="206.899" gradientUnits="userSpaceOnUse"><stop stop-color="#4698FB"/><stop offset="1" stop-color="#547BF9"/></linearGradient><linearGradient id="L" x1="585.542" y1="480.556" x2="595.423" y2="480.411" gradientUnits="userSpaceOnUse"><stop stop-color="#4698FB"/><stop offset="1" stop-color="#547BF9"/></linearGradient><linearGradient id="M" x1="582.492" y1="468.624" x2="583.045" y2="467.679" gradientUnits="userSpaceOnUse"><stop stop-color="#4698FB"/><stop offset="1" stop-color="#547BF9"/></linearGradient><linearGradient id="N" x1="456.028" y1="221.472" x2="465.91" y2="221.328" gradientUnits="userSpaceOnUse"><stop stop-color="#4698FB"/><stop offset="1" stop-color="#547BF9"/></linearGradient><linearGradient id="O" x1="452.978" y1="209.541" x2="453.531" y2="208.596" gradientUnits="userSpaceOnUse"><stop stop-color="#4698FB"/><stop offset="1" stop-color="#547BF9"/></linearGradient><linearGradient id="P" x1="1037.89" y1="59.03" x2="1047.77" y2="58.882" gradientUnits="userSpaceOnUse"><stop stop-color="#4698FB"/><stop offset="1" stop-color="#547BF9"/></linearGradient><linearGradient id="Q" x1="1034.85" y1="47.114" x2="1035.4" y2="46.169" gradientUnits="userSpaceOnUse"><stop stop-color="#4698FB"/><stop offset="1" stop-color="#547BF9"/></linearGradient><linearGradient id="R" x1="544.507" y1="19.605" x2="554.388" y2="19.461" gradientUnits="userSpaceOnUse"><stop stop-color="#4698FB"/><stop offset="1" stop-color="#547BF9"/></linearGradient><linearGradient id="S" x1="541.451" y1="7.684" x2="542.004" y2="6.739" gradientUnits="userSpaceOnUse"><stop stop-color="#4698FB"/><stop offset="1" stop-color="#547BF9"/></linearGradient><linearGradient id="T" x1="1357.36" y1="72.217" x2="1367.24" y2="72.072" gradientUnits="userSpaceOnUse"><stop stop-color="#4698FB"/><stop offset="1" stop-color="#547BF9"/></linearGradient><linearGradient id="U" x1="1354.31" y1="60.296" x2="1354.86" y2="59.351" gradientUnits="userSpaceOnUse"><stop stop-color="#4698FB"/><stop offset="1" stop-color="#547BF9"/></linearGradient><linearGradient id="V" x1="987.753" y1="90.348" x2="1078.08" y2="-23.947" gradientUnits="userSpaceOnUse"><stop stop-color="#4698FB"/><stop offset="1" stop-color="#547BF9"/></linearGradient><linearGradient id="W" x1="811.862" y1="672.499" x2="858.623" y2="604.584" gradientUnits="userSpaceOnUse"><stop stop-color="#4698FB"/><stop offset="1" stop-color="#547BF9"/></linearGradient><linearGradient id="X" x1="729.709" y1="751.301" x2="766.521" y2="703.764" gradientUnits="userSpaceOnUse"><stop stop-color="#4698FB"/><stop offset="1" stop-color="#547BF9"/></linearGradient><linearGradient id="Y" x1="757.325" y1="742.17" x2="767.205" y2="742.022" gradientUnits="userSpaceOnUse"><stop stop-color="#4698FB"/><stop offset="1" stop-color="#547BF9"/></linearGradient><linearGradient id="Z" x1="754.279" y1="730.255" x2="754.832" y2="729.309" gradientUnits="userSpaceOnUse"><stop stop-color="#4698FB"/><stop offset="1" stop-color="#547BF9"/></linearGradient><linearGradient id="aa" x1="893.629" y1="502.747" x2="903.511" y2="502.603" gradientUnits="userSpaceOnUse"><stop stop-color="#4698FB"/><stop offset="1" stop-color="#547BF9"/></linearGradient><linearGradient id="ab" x1="890.582" y1="490.832" x2="891.135" y2="489.887" gradientUnits="userSpaceOnUse"><stop stop-color="#4698FB"/><stop offset="1" stop-color="#547BF9"/></linearGradient><linearGradient id="ac" x1="660.592" y1="1015.87" x2="885.84" y2="694.377" gradientUnits="userSpaceOnUse"><stop stop-color="#4698FB"/><stop offset="1" stop-color="#547BF9"/></linearGradient><linearGradient id="ad" x1="958.871" y1="414.776" x2="1001.5" y2="361.4" gradientUnits="userSpaceOnUse"><stop stop-color="#4698FB"/><stop offset="1" stop-color="#547BF9"/></linearGradient><linearGradient id="ae" x1="1121.12" y1="637.361" x2="1142.8" y2="608.69" gradientUnits="userSpaceOnUse"><stop stop-color="#4698FB"/><stop offset="1" stop-color="#547BF9"/></linearGradient><linearGradient id="af" x1="1007.74" y1="76.956" x2="1061.64" y2="11.109" gradientUnits="userSpaceOnUse"><stop stop-color="#4698FB"/><stop offset="1" stop-color="#547BF9"/></linearGradient><linearGradient id="ag" x1="284.872" y1="917.082" x2="438.915" y2="715.854" gradientUnits="userSpaceOnUse"><stop stop-color="#4698FB"/><stop offset="1" stop-color="#547BF9"/></linearGradient><linearGradient id="ah" x1="421.153" y1="830.164" x2="460.117" y2="776.2" gradientUnits="userSpaceOnUse"><stop stop-color="#4698FB"/><stop offset="1" stop-color="#547BF9"/></linearGradient><linearGradient id="ai" x1="1335.88" y1="67.845" x2="1354.93" y2="39.116" gradientUnits="userSpaceOnUse"><stop stop-color="#4698FB"/><stop offset="1" stop-color="#547BF9"/></linearGradient><linearGradient id="aj" x1="1087.38" y1="235.7" x2="1105.09" y2="210.908" gradientUnits="userSpaceOnUse"><stop stop-color="#4698FB"/><stop offset="1" stop-color="#547BF9"/></linearGradient><linearGradient id="ak" x1="503.628" y1="8.786" x2="540.538" y2="-45.41" gradientUnits="userSpaceOnUse"><stop stop-color="#4698FB"/><stop offset="1" stop-color="#547BF9"/></linearGradient><linearGradient id="al" x1="523.454" y1="13.663" x2="543.328" y2="-15.604" gradientUnits="userSpaceOnUse"><stop stop-color="#4698FB"/><stop offset="1" stop-color="#547BF9"/></linearGradient><linearGradient id="am" x1="1020.91" y1="918.653" x2="1123.14" y2="788.323" gradientUnits="userSpaceOnUse"><stop stop-color="#4698FB"/><stop offset="1" stop-color="#547BF9"/></linearGradient><linearGradient id="an" x1="432.963" y1="220.144" x2="456.296" y2="185.305" gradientUnits="userSpaceOnUse"><stop stop-color="#4698FB"/><stop offset="1" stop-color="#547BF9"/></linearGradient><linearGradient id="ao" x1="399.845" y1="218.227" x2="454.615" y2="138.453" gradientUnits="userSpaceOnUse"><stop stop-color="#4698FB"/><stop offset="1" stop-color="#547BF9"/></linearGradient><linearGradient id="ap" x1="-336.632" y1="1103.86" x2="1.711" y2="578.3" gradientUnits="userSpaceOnUse"><stop stop-color="#4698FB"/><stop offset="1" stop-color="#547BF9"/></linearGradient><linearGradient id="aq" x1="-349.614" y1="1107.75" x2="3.083" y2="561.194" gradientUnits="userSpaceOnUse"><stop stop-color="#4698FB"/><stop offset="1" stop-color="#547BF9"/></linearGradient><linearGradient id="ar" x1="-190.541" y1="983.565" x2="43.789" y2="676.184" gradientUnits="userSpaceOnUse"><stop stop-color="#4698FB"/><stop offset="1" stop-color="#547BF9"/></linearGradient><linearGradient id="as" x1="-86.604" y1="979.723" x2="84.431" y2="763.411" gradientUnits="userSpaceOnUse"><stop stop-color="#4698FB"/><stop offset="1" stop-color="#547BF9"/></linearGradient><linearGradient id="at" x1="-312.187" y1="1101.67" x2="4.207" y2="609.627" gradientUnits="userSpaceOnUse"><stop stop-color="#4698FB"/><stop offset="1" stop-color="#547BF9"/></linearGradient><linearGradient id="au" x1="-223.145" y1="517.511" x2="20.612" y2="163.121" gradientUnits="userSpaceOnUse"><stop stop-color="#4698FB"/><stop offset="1" stop-color="#547BF9"/></linearGradient><linearGradient id="av" x1="2.773" y1="168.543" x2="373.44" y2="-307.778" gradientUnits="userSpaceOnUse"><stop stop-color="#4698FB"/><stop offset="1" stop-color="#547BF9"/></linearGradient><linearGradient id="aw" x1="43.638" y1="165.623" x2="380.498" y2="-259.125" gradientUnits="userSpaceOnUse"><stop stop-color="#4698FB"/><stop offset="1" stop-color="#547BF9"/></linearGradient><linearGradient id="ax" x1="-119.009" y1="554.116" x2="77.718" y2="276.265" gradientUnits="userSpaceOnUse"><stop stop-color="#4698FB"/><stop offset="1" stop-color="#547BF9"/></linearGradient><linearGradient id="ay" x1="16.724" y1="619.042" x2="153.272" y2="438.376" gradientUnits="userSpaceOnUse"><stop stop-color="#4698FB"/><stop offset="1" stop-color="#547BF9"/></linearGradient><linearGradient id="az" x1="-9.832" y1="170.347" x2="403.403" y2="-354.169" gradientUnits="userSpaceOnUse"><stop stop-color="#4698FB"/><stop offset="1" stop-color="#547BF9"/></linearGradient><linearGradient id="aA" x1="-233.095" y1="517.04" x2="17.876" y2="149.904" gradientUnits="userSpaceOnUse"><stop stop-color="#4698FB"/><stop offset="1" stop-color="#547BF9"/></linearGradient><linearGradient id="aB" x1="281.488" y1="420.79" x2="291.367" y2="420.642" gradientUnits="userSpaceOnUse"><stop stop-color="#4698FB"/><stop offset="1" stop-color="#547BF9"/></linearGradient><linearGradient id="aC" x1="278.442" y1="408.875" x2="278.995" y2="407.929" gradientUnits="userSpaceOnUse"><stop stop-color="#4698FB"/><stop offset="1" stop-color="#547BF9"/></linearGradient><linearGradient id="aD" x1="-171.067" y1="535.707" x2="54.182" y2="214.22" gradientUnits="userSpaceOnUse"><stop stop-color="#4698FB"/><stop offset="1" stop-color="#547BF9"/></linearGradient><linearGradient id="aE" x1="49.284" y1="618.765" x2="116.651" y2="523.782" gradientUnits="userSpaceOnUse"><stop stop-color="#4698FB"/><stop offset="1" stop-color="#547BF9"/></linearGradient><linearGradient id="aF" x1="165.259" y1="146.432" x2="442.392" y2="-170.909" gradientUnits="userSpaceOnUse"><stop stop-color="#4698FB"/><stop offset="1" stop-color="#547BF9"/></linearGradient><linearGradient id="aG" x1="108.221" y1="150.725" x2="405.966" y2="-213.428" gradientUnits="userSpaceOnUse"><stop stop-color="#4698FB"/><stop offset="1" stop-color="#547BF9"/></linearGradient><linearGradient id="aH" x1="153.457" y1="430.522" x2="308.245" y2="236.735" gradientUnits="userSpaceOnUse"><stop stop-color="#4698FB"/><stop offset="1" stop-color="#547BF9"/></linearGradient><linearGradient id="aI" x1="189.259" y1="438.498" x2="291.486" y2="308.167" gradientUnits="userSpaceOnUse"><stop stop-color="#4698FB"/><stop offset="1" stop-color="#547BF9"/></linearGradient><linearGradient id="aJ" x1="222.906" y1="436.379" x2="289.593" y2="351.123" gradientUnits="userSpaceOnUse"><stop stop-color="#4698FB"/><stop offset="1" stop-color="#547BF9"/></linearGradient><linearGradient id="aK" x1="257.136" y1="430.331" x2="293.332" y2="385.41" gradientUnits="userSpaceOnUse"><stop stop-color="#4698FB"/><stop offset="1" stop-color="#547BF9"/></linearGradient><linearGradient id="aL" x1="68.727" y1="618.142" x2="89.233" y2="586.864" gradientUnits="userSpaceOnUse"><stop stop-color="#4698FB"/><stop offset="1" stop-color="#547BF9"/></linearGradient><linearGradient id="aM" x1="-1168.3" y1="623.694" x2="-829.96" y2="98.135" gradientUnits="userSpaceOnUse"><stop stop-color="#4698FB"/><stop offset="1" stop-color="#547BF9"/></linearGradient><linearGradient id="aN" x1="-1181.28" y1="627.584" x2="-828.588" y2="81.029" gradientUnits="userSpaceOnUse"><stop stop-color="#4698FB"/><stop offset="1" stop-color="#547BF9"/></linearGradient><clipPath id="a"><path fill="#fff" d="M0 0h1439.77v795.874H0z"/></clipPath></defs></svg>