<svg width="26" height="26" viewBox="0 0 26 26" fill="none" xmlns="http://www.w3.org/2000/svg">
<path d="M24.6247 0.922852H5.82744C5.7374 0.922852 5.64932 0.940467 5.56613 0.974721C5.48197 1.00995 5.40857 1.05889 5.34398 1.12348C5.28036 1.18709 5.23045 1.26147 5.1962 1.34466C5.16097 1.42882 5.14335 1.51592 5.14335 1.60694V4.41571C4.93685 4.45975 4.73525 4.52238 4.54049 4.60557C4.34476 4.68875 4.15979 4.78956 3.98461 4.90895C3.80943 5.02835 3.64795 5.16341 3.49919 5.3151C3.35044 5.46581 3.21832 5.63023 3.10186 5.80737C2.9854 5.98451 2.88753 6.17143 2.80826 6.36717C2.72801 6.56388 2.66831 6.76646 2.62916 6.97492C2.58904 7.18239 2.56946 7.39281 2.57142 7.6042C2.5724 7.81657 2.59491 8.026 2.63699 8.23348C2.68005 8.44194 2.74269 8.64256 2.82489 8.83829C2.9071 9.03403 3.00693 9.219 3.12632 9.39418C3.24474 9.57034 3.37882 9.73279 3.52953 9.88155C3.68025 10.0313 3.84368 10.1634 4.02082 10.2808C4.19796 10.3983 4.38391 10.4962 4.58062 10.5764C4.77635 10.6567 4.97796 10.7173 5.18641 10.7584C5.39487 10.7986 5.6043 10.8191 5.81667 10.8181C6.02806 10.8172 6.23848 10.7966 6.44595 10.7545C6.65343 10.7124 6.85504 10.6508 7.05077 10.5696C7.2465 10.4873 7.43245 10.3875 7.60861 10.2701C7.78477 10.1517 7.94723 10.0176 8.09696 9.86785C8.2467 9.71714 8.3798 9.55468 8.49822 9.37754C8.61566 9.20138 8.7145 9.01543 8.79573 8.8197C8.87696 8.62397 8.93764 8.42236 8.97972 8.21391C9.02082 8.00643 9.04137 7.79602 9.04137 7.58462C9.04137 7.37225 9.02082 7.16282 8.97972 6.95436C8.96797 6.89075 8.94547 6.83007 8.92981 6.76744C8.89751 6.63728 8.85836 6.50907 8.81041 6.3838C8.78301 6.3153 8.74973 6.2507 8.71744 6.18415C8.66459 6.07259 8.60587 5.96396 8.54128 5.85924C8.50115 5.7966 8.45907 5.73593 8.41601 5.67623C8.34261 5.5764 8.26334 5.48049 8.17917 5.38948C8.13122 5.33761 8.08424 5.28672 8.03335 5.23876C7.93548 5.14677 7.83174 5.06065 7.72311 4.98235C7.67516 4.94614 7.63014 4.90798 7.58023 4.87568C7.4393 4.78271 7.29152 4.70246 7.13787 4.63395C7.11243 4.62221 7.08992 4.60753 7.06447 4.59676C6.88538 4.52042 6.70139 4.46073 6.51153 4.41766V2.29005H23.9406V24.171H10.9488V18.3421L12.2181 19.4226C12.3111 19.4989 12.4109 19.5664 12.5166 19.6261C12.6213 19.6848 12.7309 19.7348 12.8445 19.7749C12.959 19.815 13.0754 19.8453 13.1939 19.8659C13.3132 19.8864 13.4326 19.8962 13.554 19.8962C13.6744 19.8962 13.7948 19.8855 13.9132 19.8649C14.0326 19.8434 14.149 19.813 14.2626 19.7719C14.3761 19.7318 14.4857 19.6819 14.5904 19.6222C14.6951 19.5625 14.7949 19.495 14.8879 19.4177L19.6746 15.3151C19.7764 15.228 19.8693 15.1311 19.9525 15.0244C20.0357 14.9187 20.1071 14.8052 20.1678 14.6858C20.2295 14.5654 20.2774 14.4402 20.3136 14.311C20.3498 14.1808 20.3733 14.0487 20.3831 13.9146C20.3939 13.7796 20.39 13.6455 20.3743 13.5124C20.3577 13.3783 20.3283 13.2472 20.2872 13.12C20.2451 12.9917 20.1903 12.8694 20.1248 12.752C20.0582 12.6345 19.9809 12.5249 19.8938 12.4222C19.8057 12.3204 19.7088 12.2274 19.6021 12.1442C19.4965 12.062 19.3829 11.9896 19.2626 11.9289C19.1432 11.8682 19.0179 11.8193 18.8877 11.7831C18.7585 11.7479 18.6264 11.7244 18.4914 11.7146C18.3573 11.7038 18.2232 11.7077 18.0901 11.7234C17.956 11.74 17.8249 11.7694 17.6967 11.8115C17.5695 11.8536 17.4462 11.9074 17.3297 11.9739C17.2122 12.0395 17.1026 12.1168 16.9999 12.2049L13.5462 15.1624L10.2911 12.3869C10.2099 12.3194 10.1228 12.2587 10.0318 12.2059C10.0181 12.1971 10.0044 12.1892 9.9897 12.1814C9.9486 12.1579 9.90749 12.1335 9.8703 12.1149C9.56692 11.9485 9.24298 11.8653 8.89751 11.8633H2.74366C2.60959 11.8633 2.47551 11.8761 2.34437 11.9025C2.21225 11.9289 2.08404 11.9681 1.95975 12.0199C1.83546 12.0718 1.71704 12.1344 1.6045 12.2098C1.49293 12.2842 1.38919 12.3693 1.29426 12.4642C1.19933 12.5602 1.11419 12.6629 1.03883 12.7755C0.964452 12.887 0.900839 13.0055 0.848969 13.1297C0.798079 13.254 0.758932 13.3822 0.732508 13.5144C0.706084 13.6465 0.692383 13.7796 0.692383 13.9146V24.8541C0.692383 24.9452 0.709999 25.0323 0.745231 25.1164C0.779484 25.1996 0.828417 25.274 0.893009 25.3376C0.956622 25.4022 1.031 25.4511 1.11517 25.4864C1.19835 25.5206 1.28545 25.5382 1.37647 25.5382H24.6247C24.7147 25.5382 24.8018 25.5206 24.886 25.4864C24.9701 25.4511 25.0435 25.4022 25.1081 25.3376C25.1717 25.274 25.2216 25.1996 25.2559 25.1164C25.2911 25.0323 25.3078 24.9452 25.3078 24.8541V1.60694C25.3078 1.51592 25.2911 1.42882 25.2559 1.34466C25.2216 1.26147 25.1717 1.18709 25.1081 1.12348C25.0435 1.05889 24.9701 1.00995 24.886 0.974721C24.8018 0.940467 24.7147 0.922852 24.6247 0.922852ZM7.63601 7.93205C7.62035 8.00839 7.5998 8.08374 7.57436 8.15812C7.54989 8.2325 7.51955 8.30492 7.4853 8.37539C7.45104 8.44487 7.4119 8.51338 7.36884 8.57895C7.32577 8.64354 7.2788 8.70617 7.22791 8.76587C7.17702 8.82557 7.12221 8.88136 7.06447 8.9342C7.00575 8.98607 6.94507 9.03501 6.88048 9.08002C6.81687 9.12406 6.74934 9.16517 6.67986 9.20138C6.61135 9.23759 6.53991 9.26891 6.46651 9.29631C6.39311 9.32371 6.31775 9.34622 6.24141 9.36384C6.16508 9.38145 6.08776 9.39418 6.01045 9.40201C5.93216 9.41081 5.85386 9.41375 5.77557 9.41179C5.69728 9.40984 5.61996 9.40298 5.54265 9.39026C5.46533 9.37852 5.389 9.36188 5.31364 9.34035C5.23828 9.31882 5.16488 9.29337 5.09246 9.26206C5.02102 9.23074 4.95055 9.19551 4.88303 9.15636C4.8155 9.11624 4.75091 9.0722 4.68925 9.02522C4.62759 8.97727 4.56888 8.9254 4.51309 8.86961C4.45829 8.81481 4.40642 8.75609 4.35846 8.69345C4.31051 8.6318 4.26647 8.5672 4.22732 8.49968C4.1872 8.43215 4.15196 8.36266 4.12065 8.29024C4.09031 8.2188 4.06388 8.1454 4.04235 8.07004C4.02082 7.99469 4.00419 7.91835 3.99244 7.84103C3.9807 7.76372 3.97385 7.68543 3.97189 7.60713C3.96993 7.52884 3.97287 7.45055 3.9807 7.37323C3.98853 7.29494 4.00125 7.21763 4.01887 7.14129C4.03648 7.06495 4.05899 6.99058 4.08639 6.91718C4.1138 6.84378 4.14511 6.77233 4.18132 6.70285C4.21753 6.63336 4.25864 6.56681 4.30268 6.50222C4.3477 6.43861 4.39663 6.37695 4.4485 6.31921C4.50135 6.26049 4.55713 6.20666 4.61683 6.1548C4.67653 6.1039 4.73916 6.05693 4.80375 6.01387C4.86933 5.97081 4.93783 5.93264 5.00732 5.89839C5.07778 5.86315 5.1502 5.83379 5.22458 5.80835C5.29798 5.7829 5.37334 5.76235 5.45065 5.74669C5.52699 5.73103 5.6043 5.72027 5.6826 5.7144C5.76089 5.70852 5.83918 5.70754 5.91748 5.71146C5.99577 5.71537 6.07308 5.72418 6.1504 5.73788C6.22673 5.75256 6.30307 5.77116 6.37745 5.79465C6.45281 5.81813 6.52523 5.84554 6.59667 5.87881C6.66713 5.91111 6.73662 5.9483 6.80317 5.9894C6.86874 6.03148 6.93235 6.0765 6.99303 6.12641C7.05371 6.17633 7.11145 6.22917 7.16527 6.28594C7.2191 6.3427 7.26901 6.4024 7.31599 6.46601C7.36199 6.52865 7.40407 6.59519 7.44224 6.6637C7.47943 6.73123 7.51368 6.80267 7.54206 6.87509C7.57142 6.94751 7.59589 7.02189 7.61546 7.09823C7.63503 7.17359 7.64971 7.2509 7.6595 7.32821C7.66929 7.40553 7.67418 7.48382 7.67418 7.56212C7.67418 7.68641 7.66146 7.80972 7.63601 7.93205ZM9.97894 16.2409C9.85758 16.2967 9.76069 16.3809 9.68925 16.4924C9.61781 16.605 9.5816 16.7283 9.5816 16.8614V24.171H2.06056V13.9146C2.06056 13.8236 2.07817 13.7365 2.11243 13.6523C2.14766 13.5692 2.19659 13.4948 2.26118 13.4312C2.3248 13.3666 2.39917 13.3176 2.48236 13.2824C2.56653 13.2482 2.65363 13.2305 2.74366 13.2305H8.89751C9.01887 13.2345 9.13239 13.2668 9.23809 13.3274L9.30561 13.3666L9.3291 13.3793C9.35455 13.3959 9.39761 13.4224 9.39761 13.4224L13.1038 16.5815C13.1655 16.6343 13.235 16.6754 13.3113 16.7038C13.3876 16.7312 13.4669 16.7459 13.5481 16.7449C13.6294 16.7449 13.7086 16.7312 13.785 16.7028C13.8613 16.6745 13.9298 16.6343 13.9924 16.5805L17.8895 13.2433C18.0353 13.117 18.2046 13.0622 18.3974 13.0789C18.5824 13.0926 18.7341 13.1708 18.8535 13.3128C18.9778 13.4566 19.0335 13.623 19.0198 13.8128C19.0061 14.0008 18.9278 14.1554 18.784 14.2767L14.0022 18.3754C13.874 18.487 13.7243 18.5427 13.554 18.5437C13.3857 18.5467 13.2369 18.4938 13.1087 18.3852L10.709 16.3407C10.6072 16.2546 10.4908 16.2018 10.3587 16.1842C10.2265 16.1656 10.0993 16.1842 9.97894 16.2409Z" fill="#0E314C"/>
</svg>
