<svg width="51" height="51" viewBox="0 0 51 51" fill="none" xmlns="http://www.w3.org/2000/svg">
<path d="M27.871 15.6756C28.5047 15.8203 29.1082 15.9933 29.7118 16.2509C30.2871 16.4822 30.8625 16.7981 31.4096 17.144L32.4437 16.0798C32.4738 16.0798 32.4738 16.0497 32.502 16.0497C32.7314 15.8485 33.0191 15.7338 33.3068 15.7338C33.6245 15.7338 33.9404 15.8485 34.1698 16.0798L34.8316 16.7698L35.4352 17.3734C35.6664 17.6028 35.7811 17.9205 35.7811 18.2082C35.7811 18.5241 35.6664 18.84 35.4352 19.0694L34.371 20.1336C34.7169 20.6525 35.0328 21.2279 35.2923 21.8314L34.7451 22.0326L35.2923 21.8314V21.8596C35.5217 22.435 35.7228 23.0385 35.8394 23.6439H37.3342C37.6802 23.6439 37.9678 23.7868 38.1972 24.0181L37.7948 24.4205L38.1972 24.0181L38.2254 24.0463C38.4266 24.2757 38.5413 24.5634 38.5413 24.851V26.6636C38.5413 26.9794 38.3984 27.2953 38.1972 27.4965L37.7948 27.0941L38.1972 27.5266C38.169 27.5266 38.169 27.5548 38.1389 27.5548C37.9377 27.756 37.6501 27.8707 37.3342 27.8707H35.8394C35.7228 28.5043 35.5217 29.1079 35.2923 29.7114C35.0328 30.2868 34.7169 30.8621 34.371 31.4093L35.4352 32.4453C35.4352 32.4735 35.4653 32.4735 35.4653 32.5017C35.6946 32.7329 35.7811 33.0206 35.7811 33.3064C35.7811 33.6242 35.6664 33.94 35.4352 34.1694L34.1698 35.4348C33.9404 35.6661 33.6245 35.7808 33.3068 35.7808C32.9909 35.7808 32.7032 35.6661 32.4437 35.4348L31.4096 34.3706C30.8625 34.7166 30.2871 35.0324 29.7118 35.2919L29.4824 34.7448L29.7118 35.2919C29.6836 35.2919 29.6836 35.2919 29.6554 35.2919C29.08 35.5213 28.4765 35.7225 27.871 35.8391V37.3338C27.871 37.6798 27.7281 37.9675 27.527 38.1968L27.0945 37.7945L27.527 38.1968C27.4969 38.1968 27.4969 38.2251 27.4687 38.2251C27.2675 38.4262 26.9798 38.5428 26.6639 38.5428H24.8514C24.5355 38.5428 24.2196 38.398 24.0166 38.1968L24.4208 37.7945L24.0166 38.1968C23.9884 38.1686 23.9884 38.1686 23.9602 38.1386C23.7872 37.9374 23.6443 37.6497 23.6443 37.3338V35.8391C23.0107 35.7225 22.4071 35.5213 21.8318 35.2919C21.2282 35.0324 20.6529 34.7166 20.1339 34.3706L19.0697 35.4348C19.0415 35.4348 19.0415 35.4649 19.0133 35.4649C18.7821 35.6943 18.4944 35.7808 18.2067 35.7808C17.9209 35.7808 17.6032 35.6661 17.3738 35.4348L16.0783 34.1694C15.8489 33.94 15.7342 33.6242 15.7342 33.3064C15.7342 32.9905 15.8489 32.7028 16.0783 32.4453L17.1425 31.4093C16.7984 30.8621 16.4825 30.2868 16.2513 29.7114L16.7702 29.482L16.2513 29.7114C16.2231 29.6832 16.2231 29.6832 16.2231 29.655C15.9937 29.0797 15.8207 28.4761 15.6759 27.8707H14.1812C13.8653 27.8707 13.5475 27.7278 13.3463 27.5266L13.7487 27.0941L13.3463 27.5266C13.3181 27.4965 13.3181 27.4965 13.2899 27.4683C13.0887 27.2671 12.9722 26.9794 12.9722 26.6636V24.851C12.9722 24.5352 13.1169 24.2193 13.3463 24.0181L13.7487 24.4205L13.3463 24.0181C13.3463 23.988 13.3764 23.988 13.3764 23.9598C13.6058 23.7868 13.8653 23.6439 14.1812 23.6439H15.6759C15.8207 23.0103 15.9937 22.4068 16.2513 21.8314C16.4825 21.2279 16.7984 20.6525 17.1425 20.1336L16.0783 19.0694C16.0783 19.0412 16.0501 19.0412 16.0501 19.013C15.8489 18.7817 15.7342 18.4959 15.7342 18.2082C15.7342 17.9205 15.8489 17.6028 16.0783 17.3734L17.3738 16.0798C17.6032 15.8485 17.9209 15.7338 18.2067 15.7338C18.5245 15.7338 18.8403 15.8485 19.0697 16.0798L20.1339 17.144C20.6529 16.7981 21.2282 16.4822 21.8318 16.2509L22.033 16.7698L21.8318 16.2509C21.8318 16.2227 21.86 16.2227 21.86 16.2227C22.4353 15.9933 23.0389 15.8203 23.6443 15.6756V14.1808C23.6443 13.8649 23.7872 13.5471 24.0166 13.346L24.4208 13.7502L24.0166 13.346C24.0166 13.3178 24.0467 13.3178 24.0467 13.2896C24.2761 13.0884 24.5637 12.9718 24.8514 12.9718H26.6639C26.9798 12.9718 27.2957 13.1166 27.4969 13.346L27.0945 13.7502L27.527 13.346L27.5552 13.376C27.7563 13.6054 27.871 13.8649 27.871 14.1808V15.6756ZM29.253 17.3151C28.6194 17.0274 27.9575 16.8563 27.2393 16.7398C26.9516 16.7116 26.7203 16.4521 26.7203 16.1644V14.1808V14.1526H26.6921L26.6639 14.1225H24.8514C24.8514 14.1225 24.8514 14.1225 24.8232 14.1526L24.7931 14.1808V16.1362C24.8232 16.4239 24.622 16.6834 24.3343 16.7116L24.2196 16.1644L24.3343 16.7116C23.6142 16.8263 22.9524 17.0274 22.2924 17.2869C22.2924 17.2869 22.2623 17.2869 22.2623 17.3151C21.6024 17.5746 20.997 17.9205 20.4216 18.3511C20.1922 18.5241 19.8463 18.4959 19.6451 18.2928L18.265 16.9127C18.2368 16.8845 18.2368 16.8845 18.2067 16.8845C18.2067 16.8845 18.1785 16.8845 18.1785 16.9127L16.9131 18.1781C16.8849 18.1781 16.8849 18.2082 16.8849 18.2082C16.8849 18.2364 16.8849 18.2364 16.8849 18.2364L18.2932 19.6447C18.4944 19.8459 18.5245 20.1636 18.3515 20.393C17.9491 20.9684 17.5749 21.602 17.3155 22.262C17.0278 22.8956 16.8567 23.5856 16.7401 24.2757C16.7119 24.5634 16.4525 24.7946 16.1648 24.7946H14.1812L14.1529 24.8228L14.1229 24.851V26.6636C14.1229 26.6636 14.1229 26.6918 14.1529 26.6918C14.1529 26.72 14.1812 26.72 14.1812 26.72H16.1366C16.4243 26.72 16.6837 26.923 16.7119 27.2107L16.1648 27.2953L16.7119 27.2107C16.8266 27.9008 17.0278 28.5908 17.2873 29.2226C17.2873 29.2226 17.2873 29.2526 17.3155 29.2526C17.5749 29.9126 17.9209 30.5462 18.3515 31.1216C18.5245 31.3228 18.4944 31.6687 18.2932 31.8699L16.9131 33.2782C16.8849 33.2782 16.8849 33.3064 16.8849 33.3064C16.8849 33.3365 16.8849 33.3365 16.9131 33.3365L18.1785 34.6301H18.2067C18.2368 34.6301 18.2368 34.6301 18.2368 34.6301H18.265L19.6451 33.2218C19.8463 33.0206 20.164 32.9905 20.3934 33.1635C20.9687 33.5941 21.6024 33.94 22.2623 34.2277C22.896 34.4872 23.586 34.6884 24.2761 34.803C24.5637 34.803 24.7931 35.0625 24.7931 35.3784V37.3338L24.8232 37.362C24.8232 37.3921 24.8514 37.3921 24.8514 37.3921H26.6639H26.6921V37.362C26.7203 37.362 26.7203 37.362 26.7203 37.3338V35.3784C26.7203 35.0907 26.9215 34.8313 27.2092 34.803L27.2957 35.3784L27.2092 34.803C27.9011 34.6884 28.5912 34.4872 29.2229 34.2277H29.253C29.913 33.94 30.5466 33.5941 31.1219 33.1917C31.3231 32.9905 31.6672 33.0206 31.8703 33.2218L33.2786 34.6301H33.3068C33.3368 34.6301 33.3368 34.6301 33.3368 34.6301L34.6304 33.3365C34.6304 33.3365 34.6304 33.3365 34.6304 33.3064V33.2782L33.2221 31.8699C33.0191 31.6687 32.9909 31.351 33.1639 31.1216C33.5944 30.5462 33.9404 29.9427 34.2281 29.2526C34.4875 28.619 34.6887 27.9572 34.8034 27.2389C34.8034 26.9512 35.0629 26.72 35.3788 26.72H37.3342H37.3624V26.6918C37.3925 26.6918 37.3925 26.6636 37.3925 26.6636V24.851C37.3925 24.851 37.3925 24.851 37.3925 24.8228H37.3624C37.3624 24.8228 37.3624 24.7946 37.3342 24.7946H35.3788C35.0911 24.8228 34.8316 24.6217 34.8034 24.334L35.3788 24.2193L34.8034 24.334C34.6887 23.6139 34.4875 22.9539 34.2281 22.2921V22.262C33.9404 21.602 33.5944 20.9966 33.1921 20.4212C32.9909 20.1919 33.0191 19.8459 33.2221 19.6447L34.6304 18.2646C34.6304 18.2364 34.6304 18.2364 34.6304 18.2082V18.1781L34.0269 17.5746L33.3368 16.9127C33.3368 16.8845 33.3368 16.8845 33.3068 16.8845H33.2786V16.9127L31.8703 18.2928C31.6672 18.4959 31.3513 18.5241 31.1219 18.3511C30.5466 17.9487 29.943 17.5746 29.253 17.3151Z" fill="white" stroke="white" stroke-width="0.892661"/>
<path d="M25.7725 18.7817C27.6979 18.7817 29.4239 19.5601 30.6893 20.8255C31.9547 22.0909 32.7312 23.8452 32.7312 25.7724C32.7312 27.6996 31.9547 29.4238 30.6893 30.6892C29.4239 31.9564 27.6979 32.733 25.7725 32.733C23.8453 32.733 22.091 31.9564 20.8257 30.6892C19.5584 29.4238 18.7819 27.6996 18.7819 25.7724C18.7819 23.8452 19.5584 22.0909 20.8257 20.8255C22.091 19.5601 23.8453 18.7817 25.7725 18.7817ZM29.8846 21.6303C28.8204 20.5943 27.382 19.9324 25.7725 19.9324C24.1612 19.9324 22.6946 20.5943 21.6304 21.6303C20.5944 22.6945 19.9326 24.1611 19.9326 25.7724C19.9326 27.3819 20.5944 28.8202 21.6304 29.8844C22.6946 30.9486 24.1612 31.5823 25.7725 31.5823C27.382 31.5823 28.8204 30.9486 29.8846 29.8844C30.9488 28.8202 31.5824 27.3819 31.5824 25.7724C31.5824 24.1611 30.9488 22.6945 29.8846 21.6303Z" fill="white" stroke="white" stroke-width="0.892661"/>
<path d="M25.1972 13.5473C25.1972 13.865 25.4548 14.1226 25.7726 14.1226C26.0885 14.1226 26.3479 13.865 26.3479 13.5473V9.40701C26.3479 9.08925 26.0885 8.83167 25.7726 8.83167H17.2289C16.913 8.83167 16.6535 9.08925 16.6535 9.40701C16.6535 9.75109 16.913 9.98236 17.2289 9.98236H25.1972V13.5473Z" fill="white" stroke="white" stroke-width="0.892661"/>
<path d="M37.9675 25.197C37.6498 25.197 37.3922 25.4546 37.3922 25.7723C37.3922 26.0882 37.6498 26.3477 37.9675 26.3477H42.1078C42.4255 26.3477 42.6831 26.0882 42.6831 25.7723V17.2286C42.6831 16.9127 42.4255 16.6552 42.1078 16.6552C41.7919 16.6552 41.5324 16.9127 41.5324 17.2286V25.197H37.9675Z" fill="white" stroke="white" stroke-width="0.892661"/>
<path d="M26.3477 37.9674C26.3477 37.6497 26.0882 37.3921 25.7723 37.3921C25.4546 37.3921 25.197 37.6497 25.197 37.9674V42.1077C25.197 42.4254 25.4546 42.683 25.7723 42.683H34.3142C34.6301 42.683 34.8895 42.4254 34.8895 42.1077C34.8895 41.7918 34.6301 41.5323 34.3142 41.5323H26.3477V37.9674Z" fill="white" stroke="white" stroke-width="0.892661"/>
<path d="M13.5474 26.3477C13.8652 26.3477 14.1228 26.0882 14.1228 25.7724C14.1228 25.4546 13.8652 25.197 13.5474 25.197H9.4072C9.08944 25.197 8.83185 25.4546 8.83185 25.7724V34.3142C8.83185 34.6301 9.08944 34.8896 9.4072 34.8896C9.75128 34.8896 9.98254 34.6301 9.98254 34.3142V26.3477H13.5474Z" fill="white" stroke="white" stroke-width="0.892661"/>
<path d="M35.0045 14.1809C35.0045 13.8651 34.745 13.6056 34.4291 13.6056C34.1133 13.6056 33.8538 13.8651 33.8538 14.1809V17.1724C33.8538 17.4882 34.1133 17.7477 34.4291 17.7477C34.745 17.7477 35.0045 17.4882 35.0045 17.1724V14.1809Z" fill="white" stroke="white" stroke-width="0.892661"/>
<path d="M17.7178 34.4007C17.7178 34.0848 17.4602 33.8253 17.1424 33.8253C16.8266 33.8253 16.569 34.0848 16.569 34.4007V37.3921C16.569 37.708 16.8266 37.9674 17.1424 37.9674C17.4602 37.9674 17.7178 37.708 17.7178 37.3921V34.4007Z" fill="white" stroke="white" stroke-width="0.892661"/>
<path d="M17.1425 17.7195C17.4602 17.7195 17.7178 17.4601 17.7178 17.1442C17.7178 16.8264 17.4602 16.5688 17.1425 16.5688H14.1529C13.8352 16.5688 13.5776 16.8264 13.5776 17.1442C13.5776 17.4601 13.8352 17.7195 14.1529 17.7195H17.1425Z" fill="white" stroke="white" stroke-width="0.892661"/>
<path d="M37.3922 34.976C37.7081 34.976 37.9676 34.7165 37.9676 34.4007C37.9676 34.0848 37.7081 33.8253 37.3922 33.8253H34.4008C34.0831 33.8253 33.8255 34.0848 33.8255 34.4007C33.8255 34.7165 34.0831 34.976 34.4008 34.976H37.3922Z" fill="white" stroke="white" stroke-width="0.892661"/>
<path d="M15.1871 6.81799C15.9072 6.81799 16.5691 7.10567 17.0279 7.56632C17.0579 7.59452 17.0579 7.59452 17.0579 7.62273C17.5167 8.08338 17.8044 8.71702 17.8044 9.40706C17.8044 10.1535 17.5167 10.7871 17.0279 11.276C16.5691 11.7367 15.9072 12.0243 15.1871 12.0243C14.4689 12.0243 13.807 11.7367 13.3464 11.276C12.8876 10.7871 12.5699 10.1535 12.5699 9.40706C12.5699 8.71702 12.8876 8.05518 13.3464 7.56632C13.3464 7.56632 13.3765 7.56632 13.3765 7.53624C13.8653 7.10567 14.4971 6.81799 15.1871 6.81799ZM16.2231 8.39926C15.9637 8.14167 15.5895 7.96869 15.1871 7.96869C14.7848 7.96869 14.4407 8.11159 14.1812 8.37106C14.1812 8.37106 14.1812 8.37106 14.153 8.39926L13.7488 7.99689L14.153 8.39926C13.8935 8.65873 13.7205 9.00469 13.7205 9.40706C13.7205 9.80942 13.8935 10.1836 14.153 10.4412C14.4106 10.7006 14.7848 10.8736 15.1871 10.8736C15.5895 10.8736 15.9637 10.7006 16.2231 10.4412C16.4826 10.1836 16.6537 9.80942 16.6537 9.40706C16.6537 9.03289 16.4826 8.68693 16.2513 8.42934C16.2513 8.39926 16.2231 8.39926 16.2231 8.39926Z" fill="white" stroke="white" stroke-width="0.892661"/>
<path d="M12.1109 14.5267C12.8292 14.5267 13.491 14.8144 13.9516 15.3033C14.4405 15.762 14.7282 16.4239 14.7282 17.144C14.7282 17.8622 14.4405 18.4959 13.9516 18.9847C13.491 19.4435 12.8292 19.7312 12.1109 19.7312C11.3908 19.7312 10.7289 19.4435 10.2683 18.9847C9.80952 18.4959 9.49176 17.8622 9.49176 17.144C9.49176 16.4239 9.80952 15.762 10.2683 15.3033C10.7289 14.8144 11.3908 14.5267 12.1109 14.5267ZM13.145 16.108C12.8874 15.8485 12.5133 15.6755 12.1109 15.6755C11.7067 15.6755 11.3325 15.8485 11.0749 16.108C10.8154 16.3675 10.6425 16.7398 10.6425 17.144C10.6425 17.5464 10.8154 17.8904 11.0749 18.1499C11.3325 18.4376 11.7067 18.5805 12.1109 18.5805C12.5133 18.5805 12.8874 18.4376 13.145 18.1499C13.4045 17.8904 13.5775 17.5464 13.5775 17.144C13.5775 16.7398 13.4045 16.3675 13.145 16.108Z" fill="white" stroke="white" stroke-width="0.892661"/>
<path d="M34.429 9.52173C35.1472 9.52173 35.8091 9.83761 36.2697 10.2983C36.7304 10.7589 37.0181 11.4189 37.0181 12.139C37.0181 12.8572 36.7304 13.5191 36.2697 13.9797C35.8091 14.4686 35.1472 14.7563 34.429 14.7563C33.7108 14.7563 33.0489 14.4686 32.5883 13.9797C32.0994 13.5191 31.8117 12.8572 31.8117 12.139C31.8117 11.4189 32.0994 10.7589 32.5883 10.2983C33.0489 9.83761 33.7108 9.52173 34.429 9.52173ZM35.465 11.103C35.1773 10.8454 34.8314 10.6724 34.429 10.6724C34.0266 10.6724 33.6525 10.8454 33.393 11.103C33.1354 11.3625 32.9624 11.7366 32.9624 12.139C32.9624 12.5414 33.1354 12.9155 33.393 13.175C33.6525 13.4326 34.0266 13.6056 34.429 13.6056C34.8314 13.6056 35.1773 13.4326 35.465 13.175C35.7226 12.9155 35.8674 12.5414 35.8674 12.139C35.8674 11.7366 35.7226 11.3625 35.465 11.103Z" fill="white" stroke="white" stroke-width="0.892661"/>
<path d="M42.1077 12.5695C42.8278 12.5695 43.4897 12.8872 43.9485 13.346C44.4091 13.8066 44.6968 14.4685 44.6968 15.1867C44.6968 15.9069 44.4091 16.5687 43.9485 17.0275C43.4897 17.5163 42.8278 17.804 42.1077 17.804C41.3895 17.804 40.7276 17.5163 40.267 17.0275C39.7781 16.5687 39.4904 15.9069 39.4904 15.1867C39.4904 14.4685 39.7781 13.8066 40.267 13.346C40.7276 12.8872 41.3895 12.5695 42.1077 12.5695ZM43.1437 14.1526C42.856 13.8931 42.5101 13.7202 42.1077 13.7202C41.7053 13.7202 41.3312 13.8931 41.0736 14.1526C40.8141 14.4102 40.6411 14.7844 40.6411 15.1867C40.6411 15.591 40.8141 15.9633 41.0736 16.2227C41.3312 16.4822 41.7053 16.6552 42.1077 16.6552C42.5101 16.6552 42.856 16.4822 43.1437 16.2227C43.4032 15.9633 43.5461 15.591 43.5461 15.1867C43.5461 14.7844 43.4032 14.4102 43.1437 14.1526Z" fill="white" stroke="white" stroke-width="0.892661"/>
<path d="M39.404 31.7834C40.1241 31.7834 40.786 32.0711 41.2448 32.56C41.7336 33.0206 42.0213 33.6806 42.0213 34.4007C42.0213 35.119 41.7336 35.7526 41.2448 36.2415C40.786 36.7021 40.1241 36.9898 39.404 36.9898C38.6858 36.9898 38.0521 36.7021 37.5633 36.2415C37.1045 35.7526 36.8168 35.119 36.8168 34.4007C36.8168 33.6806 37.1045 33.0206 37.5633 32.56C38.0521 32.0711 38.6858 31.7834 39.404 31.7834ZM40.44 33.3647C40.1805 33.1052 39.8083 32.9341 39.404 32.9341C39.0017 32.9341 38.6576 33.1052 38.3699 33.3647C38.1104 33.6242 37.9675 33.9983 37.9675 34.4007C37.9675 34.8031 38.1104 35.1472 38.3699 35.4348C38.6576 35.6943 39.0017 35.8391 39.404 35.8391C39.8083 35.8391 40.1805 35.6943 40.44 35.4348C40.6995 35.1472 40.8725 34.8031 40.8725 34.4007C40.8725 33.9983 40.6995 33.6242 40.44 33.3647Z" fill="white" stroke="white" stroke-width="0.892661"/>
<path d="M36.3282 39.4905C37.0465 39.4905 37.7083 39.7782 38.169 40.267C38.6578 40.7277 38.9455 41.3895 38.9455 42.1077C38.9455 42.8279 38.6578 43.4897 38.169 43.9485C37.7083 44.4091 37.0465 44.6968 36.3282 44.6968C35.6081 44.6968 34.9764 44.4091 34.4875 43.9485C34.0268 43.4897 33.7392 42.8279 33.7392 42.1077C33.7392 41.3895 34.0268 40.7277 34.4875 40.267C34.9764 39.7782 35.6081 39.4905 36.3282 39.4905ZM37.3624 41.0736C37.1048 40.8142 36.7306 40.6412 36.3282 40.6412C35.924 40.6412 35.5799 40.8142 35.2922 41.0736C35.0328 41.3312 34.8899 41.7054 34.8899 42.1077C34.8899 42.512 35.0328 42.8561 35.2922 43.1437C35.5799 43.4032 35.924 43.5461 36.3282 43.5461C36.7306 43.5461 37.1048 43.4032 37.3624 43.1437C37.6218 42.8561 37.7948 42.512 37.7948 42.1077C37.7948 41.7054 37.6218 41.3312 37.3624 41.0736Z" fill="white" stroke="white" stroke-width="0.892661"/>
<path d="M17.1424 36.8167C17.8626 36.8167 18.4943 37.1043 18.9832 37.5631C19.4438 38.052 19.7315 38.6856 19.7315 39.4038C19.7315 40.124 19.4438 40.7858 18.9832 41.2446C18.4943 41.7353 17.8626 42.0211 17.1424 42.0211C16.4242 42.0211 15.7624 41.7353 15.3017 41.2446C14.8129 40.7858 14.5252 40.124 14.5252 39.4038C14.5252 38.6856 14.8129 38.052 15.3017 37.5631C15.7624 37.1043 16.4242 36.8167 17.1424 36.8167ZM18.1502 38.3697C17.8908 38.1102 17.5467 37.9673 17.1424 37.9673C16.7401 37.9673 16.3659 38.1102 16.1083 38.3697C15.8489 38.6574 15.6759 39.0015 15.6759 39.4038C15.6759 39.8081 15.8489 40.1804 16.1083 40.4398C16.3659 40.6993 16.7401 40.8723 17.1424 40.8723C17.5467 40.8723 17.8908 40.6993 18.1502 40.4398C18.4379 40.1804 18.5808 39.8081 18.5808 39.4038C18.5808 39.0015 18.4379 38.6574 18.1502 38.3697Z" fill="white" stroke="white" stroke-width="0.892661"/>
<path d="M9.40718 33.739C10.1536 33.739 10.7873 34.0267 11.2761 34.4873C11.7368 34.9762 12.0244 35.608 12.0244 36.3281C12.0244 37.0463 11.7368 37.7082 11.2761 38.1688C10.7873 38.6577 10.1536 38.9453 9.40718 38.9453C8.71526 38.9453 8.0553 38.6577 7.56644 38.1688C7.56644 38.1688 7.56644 38.1688 7.53636 38.1387C7.10579 37.68 6.81812 37.0463 6.81812 36.3281C6.81812 35.608 7.10579 34.9762 7.56644 34.4873C7.59465 34.4873 7.59465 34.4573 7.62285 34.4573C8.0835 33.9985 8.71526 33.739 9.40718 33.739ZM10.4413 35.2921C10.1837 35.0326 9.80955 34.8897 9.40718 34.8897C9.03302 34.8897 8.68705 35.0326 8.42758 35.2639C8.39938 35.2921 8.39938 35.2921 8.39938 35.2921C8.14179 35.5798 7.96881 35.9257 7.96881 36.3281C7.96881 36.7304 8.11171 37.0745 8.37118 37.334C8.37118 37.334 8.37118 37.3622 8.39938 37.3622L7.99701 37.7664L8.39938 37.3622C8.65885 37.6217 9.00293 37.7947 9.40718 37.7947C9.80955 37.7947 10.1837 37.6217 10.4413 37.3622C10.7008 37.1046 10.8738 36.7304 10.8738 36.3281C10.8738 35.9257 10.7008 35.5798 10.4413 35.2921Z" fill="white" stroke="white" stroke-width="0.892661"/>
<path d="M25.7724 1.20923C32.5299 1.20923 38.6857 3.97127 43.1155 8.39919C47.5435 12.8572 50.3055 18.9848 50.3055 25.7724C50.3055 32.5299 47.5435 38.6858 43.1155 43.1156C38.6857 47.5454 32.5299 50.3056 25.7724 50.3056C18.9829 50.3056 12.8571 47.5454 8.39913 43.1156C3.96933 38.6858 1.20917 32.5299 1.20917 25.7724C1.20917 18.9848 3.96933 12.8572 8.39913 8.39919C12.8571 3.97127 18.9829 1.20923 25.7724 1.20923ZM42.3089 9.23401C38.0822 4.97719 32.214 2.35992 25.7724 2.35992C19.3007 2.35992 13.4607 4.97719 9.23395 9.23401C4.97713 13.4626 2.35986 19.3007 2.35986 25.7724C2.35986 32.2141 4.97713 38.0822 9.23395 42.309C13.4607 46.5376 19.3007 49.1549 25.7724 49.1549C32.214 49.1549 38.0822 46.5376 42.3089 42.309C46.5375 38.0822 49.1548 32.2141 49.1548 25.7724C49.1548 19.3007 46.5375 13.4626 42.3089 9.23401Z" fill="white" stroke="white" stroke-width="0.892661"/>
</svg>
