<svg width="29" height="50" viewBox="0 0 29 50" fill="none" xmlns="http://www.w3.org/2000/svg">
<path d="M25.5717 3.65882H21.1293V2.55486C21.1293 1.26005 20.0785 0.209229 18.7837 0.209229H10.0268C8.73444 0.209229 7.6812 1.26005 7.6812 2.55486V3.65882H3.24118C1.47048 3.65882 0.0283203 5.09857 0.0283203 6.87168V46.0927C0.0283203 47.8658 1.47048 49.3056 3.24118 49.3056H25.5717C27.3424 49.3056 28.7822 47.8658 28.7822 46.0927V6.87168C28.7822 5.09857 27.3424 3.65882 25.5717 3.65882ZM26.3279 46.0927C26.3279 46.513 25.9897 46.8512 25.5717 46.8512H3.24118C2.82326 46.8512 2.48265 46.513 2.48265 46.0927V6.87168C2.48265 6.45377 2.82326 6.11316 3.24118 6.11316H8.90837C9.58718 6.11316 10.1355 5.5648 10.1355 4.88599V2.66356H18.675V4.88599C18.675 5.5648 19.2258 6.11316 19.9021 6.11316H25.5717C25.9897 6.11316 26.3279 6.45377 26.3279 6.87168V46.0927ZM4.13015 37.0122H24.6804V44.6191H4.13015V37.0122ZM4.13015 27.8205H24.6804V35.4299H4.13015V27.8205ZM4.13015 18.6312H24.6804V26.2406H4.13015V18.6312ZM4.13015 9.43955H24.6804V17.049H4.13015V9.43955Z" fill="#0E314C"/>
</svg>
