<svg width="29" height="50" viewBox="0 0 29 50" fill="none" xmlns="http://www.w3.org/2000/svg">
<path d="M25.5719 3.65882H21.1294V2.55486C21.1294 1.26005 20.0786 0.209229 18.7838 0.209229H10.027C8.73456 0.209229 7.68132 1.26005 7.68132 2.55486V3.65882H3.2413C1.4706 3.65882 0.0284424 5.09857 0.0284424 6.87168V46.0927C0.0284424 47.8658 1.4706 49.3056 3.2413 49.3056H25.5719C27.3426 49.3056 28.7823 47.8658 28.7823 46.0927V6.87168C28.7823 5.09857 27.3426 3.65882 25.5719 3.65882ZM26.328 46.0927C26.328 46.513 25.9898 46.8512 25.5719 46.8512H3.2413C2.82339 46.8512 2.48278 46.513 2.48278 46.0927V6.87168C2.48278 6.45377 2.82339 6.11316 3.2413 6.11316H8.90849C9.5873 6.11316 10.1357 5.5648 10.1357 4.88599V2.66356H18.6751V4.88599C18.6751 5.5648 19.2259 6.11316 19.9023 6.11316H25.5719C25.9898 6.11316 26.328 6.45377 26.328 6.87168V46.0927ZM4.13027 37.0121H24.6805V44.6191H4.13027V37.0121ZM4.13027 27.8205H24.6805V35.4299H4.13027V27.8205ZM4.13027 18.6312H24.6805V26.2406H4.13027V18.6312ZM4.13027 9.43955H24.6805V17.049H4.13027V9.43955Z" fill="white"/>
</svg>
