<svg width="40" height="50" viewBox="0 0 40 50" fill="none" xmlns="http://www.w3.org/2000/svg">
<path d="M15.2832 44.4543V29.9504L22.5127 37.2024L15.2832 44.4543ZM15.2832 20.2089V5.70502L22.5127 12.957L15.2832 20.2089ZM15.3528 25.7343L15.2832 25.6647V24.4946L25.7182 14.0289C26.3074 13.4377 26.3074 12.4783 25.7182 11.885L14.8414 0.975407C14.8107 0.944721 14.7779 0.914036 14.7432 0.885397C14.7329 0.877214 14.7227 0.869031 14.7125 0.860849C14.6879 0.842438 14.6634 0.824027 14.6368 0.805615C14.6266 0.797433 14.6122 0.787204 14.6 0.779021C14.5734 0.762656 14.5468 0.746291 14.5181 0.729925C14.5079 0.723788 14.4977 0.717651 14.4854 0.711514C14.4486 0.691057 14.4118 0.672646 14.3749 0.656281C14.3586 0.650143 14.3422 0.644007 14.3279 0.63787C14.3013 0.627641 14.2767 0.619458 14.2502 0.60923C14.2338 0.603093 14.2154 0.599002 14.199 0.592865C14.1683 0.584682 14.1397 0.576499 14.109 0.570362C14.0947 0.566271 14.0824 0.564225 14.0701 0.560134C14.0292 0.551951 13.9863 0.545814 13.9413 0.541723C13.929 0.539677 13.9167 0.539677 13.9024 0.537631C13.8676 0.535586 13.8308 0.53354 13.796 0.53354C13.7878 0.53354 13.7817 0.531494 13.7735 0.531494C13.7694 0.531494 13.7653 0.531494 13.7612 0.531494C13.7142 0.53354 13.6692 0.535585 13.6242 0.539677C13.616 0.539677 13.6078 0.541723 13.5996 0.541723C13.5628 0.545814 13.526 0.551951 13.4912 0.558088C13.4748 0.56218 13.4585 0.566271 13.4421 0.568316C13.4155 0.574454 13.3869 0.582636 13.3603 0.590819C13.3439 0.59491 13.3275 0.599001 13.3112 0.605139C13.2723 0.617412 13.2334 0.631732 13.1946 0.646052V0.648098C13.1782 0.654235 13.1639 0.660373 13.1496 0.668555C13.123 0.680829 13.0984 0.691057 13.0739 0.705377C13.0575 0.71356 13.0432 0.721742 13.0268 0.729925C13.0023 0.744245 12.9777 0.758565 12.9532 0.77493C12.9409 0.783112 12.9286 0.791296 12.9164 0.799478C12.8816 0.824027 12.8468 0.848574 12.8141 0.877214H12.812C12.7773 0.905854 12.7466 0.936539 12.7138 0.967224C12.7057 0.975407 12.6975 0.98359 12.6893 0.993818C12.6668 1.01632 12.6443 1.04087 12.6238 1.06542C12.6157 1.07564 12.6054 1.08587 12.5972 1.0961C12.5747 1.12474 12.5543 1.15338 12.5338 1.18202C12.5277 1.1902 12.5236 1.19634 12.5175 1.20452C12.495 1.23725 12.4745 1.27408 12.454 1.3109C12.4459 1.32522 12.4377 1.33954 12.4295 1.3559C12.4172 1.37841 12.407 1.40295 12.3947 1.42955C12.3886 1.44591 12.3804 1.46228 12.3743 1.47864C12.362 1.50728 12.3518 1.53592 12.3415 1.56456C12.3374 1.57888 12.3333 1.59116 12.3293 1.60548C12.317 1.64434 12.3068 1.68526 12.2986 1.72617C12.2945 1.74049 12.2924 1.75686 12.2883 1.77118C12.2822 1.80186 12.2781 1.83459 12.274 1.86528C12.272 1.8796 12.2699 1.89392 12.2699 1.90824C12.2658 1.95529 12.2638 2.00029 12.2638 2.04734V22.633L3.26076 13.6034C2.66955 13.0122 1.71422 13.0122 1.12302 13.6034C0.533863 14.1946 0.533863 15.154 1.12302 15.7452L10.4288 25.0797L1.12302 34.4141C0.533863 35.0053 0.533863 35.9647 1.12302 36.5559C1.71422 37.1492 2.66955 37.1492 3.26076 36.5559L12.2638 27.5263V48.112C12.2638 48.159 12.2658 48.204 12.2699 48.2511C12.2699 48.2654 12.272 48.2797 12.274 48.294C12.2781 48.3247 12.2822 48.3575 12.2883 48.3881C12.2924 48.4025 12.2945 48.4188 12.2986 48.4331C12.3068 48.4741 12.317 48.515 12.3293 48.5538C12.3333 48.5682 12.3374 48.5804 12.3415 48.5948C12.3518 48.6234 12.362 48.652 12.3743 48.6807C12.3804 48.697 12.3886 48.7134 12.3947 48.7298C12.407 48.7564 12.4172 48.7789 12.4295 48.8034C12.4377 48.8198 12.4459 48.8341 12.454 48.8484C12.4745 48.8852 12.495 48.92 12.5175 48.9568C12.5236 48.963 12.5277 48.9691 12.5338 48.9773C12.5543 49.0059 12.5747 49.0346 12.5972 49.0632C12.6054 49.0734 12.6157 49.0837 12.6238 49.0939C12.6443 49.1184 12.6668 49.143 12.6893 49.1655C12.6975 49.1757 12.7057 49.1839 12.7138 49.1921C12.7466 49.2228 12.7773 49.2535 12.812 49.2821H12.8141C12.8468 49.3107 12.8816 49.3353 12.9164 49.3598C12.9286 49.368 12.9409 49.3762 12.9532 49.3844C12.9777 49.3987 13.0023 49.4151 13.0268 49.4294C13.0432 49.4376 13.0575 49.4458 13.0739 49.4539C13.0984 49.4683 13.123 49.4785 13.1496 49.4908C13.1639 49.4969 13.1782 49.5051 13.1946 49.5112V49.5133C13.1987 49.5133 13.2007 49.5153 13.2048 49.5153C13.2478 49.5337 13.2907 49.5501 13.3337 49.5624C13.346 49.5644 13.3562 49.5685 13.3664 49.5705C13.4032 49.5808 13.4401 49.591 13.4769 49.5992C13.4994 49.6033 13.5219 49.6053 13.5444 49.6094C13.571 49.6135 13.5976 49.6176 13.6242 49.6196C13.6733 49.6258 13.7224 49.6278 13.7735 49.6278C13.8226 49.6278 13.8737 49.6258 13.9228 49.6196C13.9515 49.6176 13.9801 49.6115 14.0088 49.6074C14.0292 49.6053 14.0497 49.6033 14.0681 49.5992C14.1029 49.591 14.1376 49.5828 14.1724 49.5726C14.1847 49.5685 14.199 49.5665 14.2113 49.5624C14.2461 49.5521 14.2808 49.5399 14.3136 49.5255C14.3258 49.5214 14.3381 49.5174 14.3504 49.5133C14.3831 49.4989 14.4138 49.4846 14.4445 49.4683C14.4588 49.4621 14.4711 49.456 14.4854 49.4498C14.514 49.4335 14.5406 49.4171 14.5693 49.3987C14.5836 49.3905 14.5979 49.3823 14.6122 49.3721C14.6388 49.3537 14.6654 49.3332 14.692 49.3148C14.7043 49.3046 14.7186 49.2944 14.7309 49.2841C14.7677 49.2535 14.8045 49.2207 14.8393 49.186C14.8414 49.1839 14.8414 49.1839 14.8414 49.1839L25.7182 38.2743C26.1294 37.8611 26.2522 37.2699 26.0906 36.7503C26.021 36.5232 25.8962 36.3104 25.7182 36.1304L15.3528 25.7343Z" fill="#0E314C"/>
<path d="M30.1901 9.69829C30.1779 9.71057 30.1656 9.72489 30.1533 9.73921L30.2311 9.65942C30.2188 9.67374 30.2045 9.68397 30.1901 9.69829Z" fill="#0E314C"/>
<path d="M39.7658 24.8793C39.7658 19.9022 37.8408 15.2298 34.3447 11.7215L33.3976 10.7703L31.2598 12.9141L32.209 13.8654C35.1344 16.7989 36.7443 20.7123 36.7443 24.8793C36.7443 29.0484 35.1344 32.9598 32.209 35.8953L30.8589 37.2475L32.9966 39.3893L34.3447 38.0371C37.8408 34.5308 39.7658 29.8585 39.7658 24.8793Z" fill="#0E314C"/>
<path d="M27.6822 24.8791C27.6822 23.1382 27.0133 21.5099 25.8002 20.2927L24.8531 19.3414L22.7174 21.4853L23.6645 22.4345C24.3069 23.0789 24.6608 23.9483 24.6608 24.8791C24.6608 25.8078 24.3048 26.6772 23.6645 27.3237L22.3164 28.6759L24.4521 30.8197L25.8043 29.4635C27.0153 28.2401 27.6822 26.6138 27.6822 24.8791Z" fill="#0E314C"/>
<path d="M21.6452 18.2674C21.6329 18.2817 21.6207 18.2961 21.6084 18.3104L21.6882 18.2306C21.6739 18.2429 21.6595 18.2551 21.6452 18.2674Z" fill="#0E314C"/>
<path d="M30.0737 16.0069L29.1245 15.0557L26.9888 17.1995L27.936 18.1508C31.6366 21.8616 31.6366 27.8984 27.936 31.6093L26.5879 32.9615L28.7236 35.1054L30.0737 33.7511C34.9506 28.8599 34.9506 20.9002 30.0737 16.0069Z" fill="#0E314C"/>
<path d="M25.9183 13.9819C25.9039 13.9962 25.8937 14.0105 25.8794 14.0248L25.9592 13.9451C25.9449 13.9573 25.9305 13.9696 25.9183 13.9819Z" fill="#0E314C"/>
</svg>
