<svg width="40" height="50" viewBox="0 0 40 50" fill="none" xmlns="http://www.w3.org/2000/svg">
<path d="M15.283 44.4543V29.9504L22.5125 37.2024L15.283 44.4543ZM15.283 20.2089V5.70502L22.5125 12.957L15.283 20.2089ZM15.3526 25.7343L15.283 25.6647V24.4946L25.718 14.0289C26.3072 13.4377 26.3072 12.4783 25.718 11.885L14.8412 0.975407C14.8105 0.944721 14.7777 0.914036 14.743 0.885397C14.7327 0.877214 14.7225 0.869031 14.7123 0.860849C14.6877 0.842438 14.6632 0.824027 14.6366 0.805615C14.6264 0.797433 14.612 0.787204 14.5998 0.779021C14.5732 0.762656 14.5466 0.746291 14.5179 0.729925C14.5077 0.723788 14.4975 0.717651 14.4852 0.711514C14.4484 0.691057 14.4116 0.672646 14.3747 0.656281C14.3584 0.650143 14.342 0.644007 14.3277 0.63787C14.3011 0.627641 14.2765 0.619458 14.25 0.60923C14.2336 0.603093 14.2152 0.599002 14.1988 0.592865C14.1681 0.584682 14.1395 0.576499 14.1088 0.570362C14.0945 0.566271 14.0822 0.564225 14.0699 0.560134C14.029 0.551951 13.9861 0.545814 13.9411 0.541723C13.9288 0.539677 13.9165 0.539677 13.9022 0.537631C13.8674 0.535586 13.8306 0.53354 13.7958 0.53354C13.7876 0.53354 13.7815 0.531494 13.7733 0.531494C13.7692 0.531494 13.7651 0.531494 13.761 0.531494C13.714 0.53354 13.669 0.535585 13.624 0.539677C13.6158 0.539677 13.6076 0.541723 13.5994 0.541723C13.5626 0.545814 13.5258 0.551951 13.491 0.558088C13.4746 0.56218 13.4583 0.566271 13.4419 0.568316C13.4153 0.574454 13.3867 0.582636 13.3601 0.590819C13.3437 0.59491 13.3274 0.599001 13.311 0.605139C13.2721 0.617412 13.2332 0.631732 13.1944 0.646052V0.648098C13.178 0.654235 13.1637 0.660373 13.1494 0.668555C13.1228 0.680829 13.0982 0.691057 13.0737 0.705377C13.0573 0.71356 13.043 0.721742 13.0266 0.729925C13.0021 0.744245 12.9775 0.758565 12.953 0.77493C12.9407 0.783112 12.9284 0.791296 12.9162 0.799478C12.8814 0.824027 12.8466 0.848574 12.8139 0.877214H12.8118C12.7771 0.905854 12.7464 0.936539 12.7136 0.967224C12.7055 0.975407 12.6973 0.98359 12.6891 0.993818C12.6666 1.01632 12.6441 1.04087 12.6236 1.06542C12.6155 1.07564 12.6052 1.08587 12.597 1.0961C12.5745 1.12474 12.5541 1.15338 12.5336 1.18202C12.5275 1.1902 12.5234 1.19634 12.5173 1.20452C12.4948 1.23725 12.4743 1.27408 12.4538 1.3109C12.4457 1.32522 12.4375 1.33954 12.4293 1.3559C12.417 1.37841 12.4068 1.40295 12.3945 1.42955C12.3884 1.44591 12.3802 1.46228 12.3741 1.47864C12.3618 1.50728 12.3516 1.53592 12.3413 1.56456C12.3372 1.57888 12.3332 1.59116 12.3291 1.60548C12.3168 1.64434 12.3066 1.68526 12.2984 1.72617C12.2943 1.74049 12.2922 1.75686 12.2881 1.77118C12.282 1.80186 12.2779 1.83459 12.2738 1.86528C12.2718 1.8796 12.2697 1.89392 12.2697 1.90824C12.2656 1.95529 12.2636 2.00029 12.2636 2.04734V22.633L3.26056 13.6034C2.66936 13.0122 1.71402 13.0122 1.12282 13.6034C0.533665 14.1946 0.533665 15.154 1.12282 15.7452L10.4286 25.0797L1.12282 34.4141C0.533665 35.0053 0.533665 35.9647 1.12282 36.5559C1.71402 37.1492 2.66936 37.1492 3.26056 36.5559L12.2636 27.5263V48.112C12.2636 48.159 12.2656 48.204 12.2697 48.2511C12.2697 48.2654 12.2718 48.2797 12.2738 48.294C12.2779 48.3247 12.282 48.3575 12.2881 48.3881C12.2922 48.4025 12.2943 48.4188 12.2984 48.4331C12.3066 48.4741 12.3168 48.515 12.3291 48.5538C12.3332 48.5682 12.3372 48.5804 12.3413 48.5948C12.3516 48.6234 12.3618 48.652 12.3741 48.6807C12.3802 48.697 12.3884 48.7134 12.3945 48.7298C12.4068 48.7564 12.417 48.7789 12.4293 48.8034C12.4375 48.8198 12.4457 48.8341 12.4538 48.8484C12.4743 48.8852 12.4948 48.92 12.5173 48.9568C12.5234 48.963 12.5275 48.9691 12.5336 48.9773C12.5541 49.0059 12.5745 49.0346 12.597 49.0632C12.6052 49.0734 12.6155 49.0837 12.6236 49.0939C12.6441 49.1184 12.6666 49.143 12.6891 49.1655C12.6973 49.1757 12.7055 49.1839 12.7136 49.1921C12.7464 49.2228 12.7771 49.2535 12.8118 49.2821H12.8139C12.8466 49.3107 12.8814 49.3353 12.9162 49.3598C12.9284 49.368 12.9407 49.3762 12.953 49.3844C12.9775 49.3987 13.0021 49.4151 13.0266 49.4294C13.043 49.4376 13.0573 49.4458 13.0737 49.4539C13.0982 49.4683 13.1228 49.4785 13.1494 49.4908C13.1637 49.4969 13.178 49.5051 13.1944 49.5112V49.5133C13.1985 49.5133 13.2005 49.5153 13.2046 49.5153C13.2476 49.5337 13.2905 49.5501 13.3335 49.5624C13.3458 49.5644 13.356 49.5685 13.3662 49.5705C13.403 49.5808 13.4399 49.591 13.4767 49.5992C13.4992 49.6033 13.5217 49.6053 13.5442 49.6094C13.5708 49.6135 13.5974 49.6176 13.624 49.6196C13.6731 49.6258 13.7222 49.6278 13.7733 49.6278C13.8224 49.6278 13.8735 49.6258 13.9226 49.6196C13.9513 49.6176 13.9799 49.6115 14.0086 49.6074C14.029 49.6053 14.0495 49.6033 14.0679 49.5992C14.1027 49.591 14.1374 49.5828 14.1722 49.5726C14.1845 49.5685 14.1988 49.5665 14.2111 49.5624C14.2459 49.5521 14.2806 49.5399 14.3134 49.5255C14.3256 49.5214 14.3379 49.5174 14.3502 49.5133C14.3829 49.4989 14.4136 49.4846 14.4443 49.4683C14.4586 49.4621 14.4709 49.456 14.4852 49.4498C14.5138 49.4335 14.5404 49.4171 14.5691 49.3987C14.5834 49.3905 14.5977 49.3823 14.612 49.3721C14.6386 49.3537 14.6652 49.3332 14.6918 49.3148C14.7041 49.3046 14.7184 49.2944 14.7307 49.2841C14.7675 49.2535 14.8043 49.2207 14.8391 49.186C14.8412 49.1839 14.8412 49.1839 14.8412 49.1839L25.718 38.2743C26.1292 37.8611 26.252 37.2699 26.0904 36.7503C26.0208 36.5232 25.896 36.3104 25.718 36.1304L15.3526 25.7343Z" fill="white"/>
<path d="M30.1898 9.69829C30.1775 9.71057 30.1652 9.72489 30.1529 9.73921L30.2307 9.65942C30.2184 9.67374 30.2041 9.68397 30.1898 9.69829Z" fill="white"/>
<path d="M39.7655 24.8793C39.7655 19.9022 37.8405 15.2298 34.3445 11.7215L33.3973 10.7703L31.2596 12.9141L32.2088 13.8654C35.1341 16.7989 36.744 20.7123 36.744 24.8793C36.744 29.0484 35.1341 32.9598 32.2088 35.8953L30.8586 37.2475L32.9963 39.3893L34.3445 38.0371C37.8405 34.5308 39.7655 29.8585 39.7655 24.8793Z" fill="white"/>
<path d="M27.6818 24.8791C27.6818 23.1382 27.0129 21.5099 25.7998 20.2927L24.8527 19.3414L22.717 21.4853L23.6641 22.4345C24.3065 23.0789 24.6604 23.9483 24.6604 24.8791C24.6604 25.8078 24.3044 26.6772 23.6641 27.3237L22.316 28.6759L24.4517 30.8197L25.8039 29.4635C27.0149 28.2401 27.6818 26.6138 27.6818 24.8791Z" fill="white"/>
<path d="M21.645 18.2674C21.6327 18.2817 21.6204 18.2961 21.6082 18.3104L21.6879 18.2306C21.6736 18.2429 21.6593 18.2551 21.645 18.2674Z" fill="white"/>
<path d="M30.0734 16.0069L29.1242 15.0557L26.9885 17.1995L27.9356 18.1508C31.6363 21.8616 31.6363 27.8984 27.9356 31.6093L26.5875 32.9615L28.7232 35.1054L30.0734 33.7511C34.9503 28.8599 34.9503 20.9002 30.0734 16.0069Z" fill="white"/>
<path d="M25.9181 13.9819C25.9038 13.9962 25.8936 14.0105 25.8792 14.0248L25.959 13.9451C25.9447 13.9573 25.9304 13.9696 25.9181 13.9819Z" fill="white"/>
</svg>
