<svg width="37" height="56" fill="none" xmlns="http://www.w3.org/2000/svg"><path d="M13.82 21.5c-.468 0-.994-.17-1.34-.523L8.395 16.92c-.758-.75-.758-1.909 0-2.663a1.874 1.874 0 0 1 2.684 0l2.68 2.663 5.893-5.849a1.865 1.865 0 0 1 2.68 0c.758.751.758 1.91 0 2.667l-7.23 7.24a1.79 1.79 0 0 1-1.282.522Zm2.098 9.795v-2.084c0-2.842 2.333-5.102 5.135-5.102 1.394 0 2.68.522 3.67 1.508a4.66 4.66 0 0 1 1.108 1.68 15.354 15.354 0 0 0 4.957-11.304c0-8.462-6.876-15.298-15.396-15.298C6.876.695 0 7.531 0 15.993c0 8.466 6.876 15.302 15.392 15.302h.526Z" fill="#0E314C" fill-opacity=".9"/><path d="M36.853 41.209c0-1.334-1.105-2.378-2.388-2.378-.875 0-1.636.462-2.044 1.101v-.057c0-1.333-1.104-2.377-2.387-2.377-.879 0-1.637.461-2.044 1.101v-.057c0-1.334-1.111-2.378-2.394-2.378-.872 0-1.63.465-2.038 1.105V29.21c0-.64-.235-1.273-.703-1.68a2.328 2.328 0 0 0-1.684-.698 2.398 2.398 0 0 0-2.394 2.378v14.833c0 .118-.058.236-.236.293-.111.054-.29 0-.35-.057l-2.445-2.438c-.822-.808-2.162-.926-3.091-.286-.583.404-.933.986-1.05 1.677-.119.693.117 1.394.524 1.916l6.122 7.303c1.748 2.085 4.26 3.243 7.001 3.243h3.67a7.998 7.998 0 0 0 5.655-2.32c1.518-1.502 2.333-3.475 2.333-5.62l-.057-6.546Z" fill="#0E314C" fill-opacity=".9"/></svg>