<svg width="37" height="55" viewBox="0 0 37 55" fill="none" xmlns="http://www.w3.org/2000/svg">
<path d="M13.8199 20.8039C13.3518 20.8039 12.8265 20.6355 12.4796 20.2819L8.39496 16.2242C7.6373 15.4733 7.6373 14.3149 8.39496 13.5606C9.15263 12.8063 10.3211 12.8063 11.0788 13.5606L13.7593 16.2242L19.6522 10.375C20.4099 9.61733 21.5784 9.61733 22.3327 10.375C23.0904 11.1259 23.0904 12.2843 22.3327 13.042L15.1029 20.2819C14.7526 20.6355 14.2879 20.8039 13.8199 20.8039ZM15.9178 30.5997V28.5153C15.9178 25.6732 18.2514 23.4136 21.0531 23.4136C22.4472 23.4136 23.7335 23.9356 24.7236 24.9222C25.195 25.3869 25.5957 25.9628 25.8314 26.6026C28.8655 23.8177 30.7883 19.76 30.7883 15.2982C30.7883 6.83585 23.912 0 15.3924 0C6.87626 0 0 6.83585 0 15.2982C0 23.7638 6.87626 30.5997 15.3924 30.5997C15.5676 30.5997 15.746 30.5997 15.9178 30.5997Z" fill="white"/>
<path d="M36.853 40.5134C36.853 39.1799 35.7485 38.136 34.4655 38.136C33.5899 38.136 32.8289 38.5973 32.4215 39.2371V39.1799C32.4215 37.8464 31.3169 36.8025 30.034 36.8025C29.1551 36.8025 28.3974 37.2638 27.9899 37.9036V37.8464C27.9899 36.5129 26.8787 35.469 25.5957 35.469C24.7235 35.469 23.9659 35.9337 23.5584 36.5735V28.5153C23.5584 27.8755 23.3227 27.2424 22.8546 26.8349C22.3899 26.3702 21.8074 26.1379 21.1709 26.1379C19.8273 26.1379 18.7767 27.2424 18.7767 28.5153V43.3487C18.7767 43.4666 18.7194 43.5844 18.541 43.6417C18.4298 43.6956 18.2514 43.6417 18.1908 43.5845L15.746 41.1464C14.9244 40.3383 13.5841 40.2204 12.6547 40.8602C12.0722 41.2643 11.722 41.8469 11.6041 42.5372C11.4862 43.2309 11.722 43.9313 12.1294 44.4532L18.2514 51.7572C19.9991 53.8416 22.5112 55 25.2522 55H28.9227C31.0206 55 33.0646 54.1884 34.5766 52.6798C36.0953 51.178 36.9102 49.2047 36.9102 47.0596L36.853 40.5134Z" fill="white"/>
</svg>
