<svg width="56" height="55" viewBox="0 0 56 55" fill="none" xmlns="http://www.w3.org/2000/svg">
<path d="M52.3495 22.9138H49.8611C46.849 25.0492 42.9745 27.7894 39.4502 30.2807C38.1887 35.6916 33.3333 39.7222 27.5347 39.7222C20.7755 39.7222 15.298 34.2477 15.298 27.5C15.298 20.7494 20.7755 15.2778 27.5347 15.2778C31.3542 15.2778 34.7627 17.0255 37.0081 19.7627L49.0538 11.25C49.0162 10.5035 48.6921 9.73669 48.0874 9.13484L45.923 6.97338C45.2807 6.33102 44.4531 6.00116 43.6603 6.00116C42.9803 6.00116 42.3264 6.24421 41.8374 6.73322L39.0799 9.48785C36.9821 8.14525 34.6383 7.15567 32.1238 6.6088V2.71412C32.1238 1.21528 30.7552 0 29.0625 0H26.0069C24.3142 0 22.9456 1.21528 22.9456 2.71412V6.6088C20.434 7.15567 18.0874 8.14525 15.9896 9.48785L13.2321 6.73322C12.7431 6.24421 12.0891 6.00116 11.412 6.00116C10.6192 6.00116 9.79167 6.33102 9.14641 6.97338L6.98495 9.13484C5.78993 10.327 5.67998 12.1557 6.74479 13.2147L9.50231 15.9693C8.15683 18.0642 7.16435 20.4051 6.61748 22.9138H2.71991C1.21817 22.9138 0 24.2824 0 25.9722V29.0278C0 30.7147 1.21817 32.0833 2.71991 32.0833H6.61748C7.16435 34.592 8.15683 36.9329 9.50231 39.0307L6.74479 41.7824C5.67998 42.8443 5.78993 44.6701 6.98495 45.8652L9.14641 48.0237C9.79167 48.6661 10.6192 48.9959 11.412 48.9959C12.0891 48.9959 12.7431 48.7558 13.2321 48.2639L15.9896 45.5093C18.0874 46.8519 20.434 47.8443 22.9456 48.3912V52.283C22.9456 53.7818 24.3142 55 26.0069 55H29.0625C30.7552 55 32.1238 53.7818 32.1238 52.283V48.3912C34.6383 47.8443 36.9821 46.8519 39.0799 45.5093L41.8374 48.2639C42.3264 48.7558 42.9803 48.9959 43.6603 48.9959C44.4531 48.9959 45.2807 48.6661 45.923 48.0237L48.0874 45.8652C49.2824 44.6701 49.3895 42.8443 48.3275 41.7824L45.57 39.0307C46.9126 36.9329 47.9051 34.592 48.4549 32.0833H52.3495C53.8513 32.0833 55.0694 30.7147 55.0694 29.0278V25.9722C55.0694 24.2824 53.8513 22.9138 52.3495 22.9138Z" fill="white"/>
<path d="M54.6354 14.5312L53.5619 13.015C53.125 12.3987 52.4131 12.0312 51.6637 12.0312C51.1689 12.0312 50.6973 12.1846 50.3067 12.4682L30.3761 26.5567C30.2083 26.684 30.0057 26.8171 29.8437 26.9126C29.809 26.8605 29.7743 26.8113 29.7424 26.7622L26.3715 22.2049C25.9374 21.5885 25.2256 21.2182 24.4733 21.2182C23.9814 21.2182 23.5098 21.3744 23.1076 21.6667L21.6174 22.7546C20.5815 23.5127 20.3414 24.9797 21.0966 26.0446C21.1371 26.0995 25.3211 31.7853 27.1498 34.375C27.5289 34.9132 28.1481 35.2344 28.8049 35.2344C29.2361 35.2344 29.6643 35.0926 30.0376 34.8293C34.7337 31.5191 54.0943 17.8125 54.1059 17.8067C55.1417 17.0515 55.379 15.5816 54.6354 14.5312Z" fill="white"/>
</svg>
