<svg width="56" height="56" fill="none" xmlns="http://www.w3.org/2000/svg"><path d="M52.35 23.261H49.86a10142.48 10142.48 0 0 1-10.41 7.367c-1.262 5.411-6.118 9.442-11.916 9.442-6.76 0-12.237-5.475-12.237-12.222 0-6.75 5.478-12.223 12.237-12.223 3.82 0 7.228 1.748 9.473 4.485l12.046-8.512a3.234 3.234 0 0 0-.967-2.116l-2.164-2.161c-.642-.642-1.47-.972-2.263-.972-.68 0-1.334.243-1.823.732L39.08 9.835a21.285 21.285 0 0 0-6.956-2.879V3.062c0-1.5-1.369-2.714-3.062-2.714h-3.055c-1.693 0-3.061 1.215-3.061 2.714v3.894a21.31 21.31 0 0 0-6.956 2.88L13.232 7.08a2.547 2.547 0 0 0-1.82-.732c-.793 0-1.62.33-2.266.972L6.985 9.482c-1.195 1.193-1.305 3.021-.24 4.08l2.757 2.755a21.198 21.198 0 0 0-2.885 6.944H2.72c-1.502 0-2.72 1.37-2.72 3.059v3.055c0 1.687 1.218 3.056 2.72 3.056h3.897a21.239 21.239 0 0 0 2.885 6.947L6.745 42.13c-1.065 1.062-.955 2.888.24 4.083l2.161 2.158c.646.643 1.473.973 2.266.973.677 0 1.331-.24 1.82-.733l2.758-2.754a21.316 21.316 0 0 0 6.956 2.882v3.892c0 1.498 1.368 2.717 3.06 2.717h3.056c1.693 0 3.062-1.218 3.062-2.717v-3.892a21.29 21.29 0 0 0 6.956-2.882l2.757 2.755c.49.491 1.143.732 1.823.732.793 0 1.62-.33 2.263-.973l2.164-2.158c1.195-1.195 1.302-3.021.24-4.083l-2.757-2.752a21.365 21.365 0 0 0 2.885-6.947h3.895c1.501 0 2.72-1.369 2.72-3.056V26.32c0-1.69-1.219-3.059-2.72-3.059Z" fill="#0E314C" fill-opacity=".9"/><path d="m54.635 14.879-1.073-1.516a2.335 2.335 0 0 0-1.898-.984c-.495 0-.967.153-1.357.437l-19.93 14.088a5.89 5.89 0 0 1-.533.356c-.035-.052-.07-.101-.102-.15l-3.37-4.558a2.311 2.311 0 0 0-3.264-.538l-1.49 1.088a2.376 2.376 0 0 0-.521 3.29c.04.055 4.224 5.741 6.053 8.33.379.539.998.86 1.655.86.431 0 .86-.142 1.233-.405 4.696-3.31 24.056-17.017 24.068-17.023a2.373 2.373 0 0 0 .53-3.275Z" fill="#0E314C" fill-opacity=".9"/></svg>