<svg width="25" height="55" viewBox="0 0 25 55" fill="none" xmlns="http://www.w3.org/2000/svg">
<path d="M24.1478 27.9497C23.7152 26.9214 23.1537 25.976 22.3746 25.1596C21.4207 24.1714 20.3837 23.2719 19.172 22.5844C18.8254 22.3695 15.7975 21.1664 15.7975 21.0805C15.7975 21.0375 15.7975 12.3234 15.7975 12.4523C16.23 12.7531 16.9204 13.3948 17.31 13.9534C17.6566 14.426 17.7855 14.9846 18.0892 15.5003C18.7394 16.6146 19.8194 17.2161 21.1199 17.1732C23.3256 17.0872 24.3655 14.9846 24.0618 13.094C23.7152 10.9914 22.4605 9.31563 20.7733 8.02943C19.9082 7.3849 18.9972 6.86927 18.0462 6.48255C17.8313 6.39661 15.3649 5.62318 15.3649 5.58021V1.28906C15.3649 0.601563 14.8866 0 14.1962 0H10.4751C9.78187 0 9.30635 0.601563 9.30635 1.28906C9.30635 1.28906 9.30635 5.66615 9.30635 5.58021C9.30635 5.49714 7.14072 6.43958 5.75713 7.21302C4.63134 7.85755 3.59437 8.67396 2.77223 9.65938C0.996189 11.7648 -0.21553 14.8557 0.217022 17.6029C0.867283 21.8969 3.72327 24.9018 7.96286 26.2339C8.39541 26.3628 8.52718 26.4917 8.87379 26.5776C8.87379 29.3247 8.87379 32.1148 8.87379 34.862C8.87379 35.2917 8.91676 35.7643 8.82796 36.151C8.22353 35.8073 7.48733 35.3776 7.09775 34.8219C5.75713 32.9742 6.0178 30.313 3.11598 30.1841C-0.172561 30.0552 -0.387406 33.9195 0.348793 36.194C1.17093 38.7263 3.16181 40.6169 5.45348 41.906C6.06077 42.2469 6.6652 42.5477 7.31546 42.7625C7.74801 42.9344 8.74202 42.9773 8.95973 43.407C9.17457 43.8367 8.95973 44.9969 8.95973 45.5125H5.36754C4.84905 45.5125 4.50244 46.0253 4.37353 46.326C4.24176 46.6268 4.24176 47.0995 4.63134 47.4862L11.555 54.6133C11.7728 54.8711 12.1194 55 12.4201 55C12.7668 55 13.0704 54.8711 13.2853 54.6133L20.2089 47.4862C20.5985 47.0995 20.5985 46.6268 20.4696 46.326C20.3407 46.0253 20.0371 45.5125 19.4756 45.5125H15.7975V43.1922C17.4418 42.4188 19.3009 41.9919 20.7733 40.8318C24.5803 37.8698 25.9668 32.2867 24.1478 27.9497ZM9.30635 19.4505C8.74202 19.2357 7.91989 18.9779 7.57327 18.7201C7.22952 18.4193 6.96884 18.1615 6.88291 17.8607C6.75114 17.5169 6.6652 17.0872 6.6652 16.6146C6.6652 15.7581 6.83994 15.0706 7.14072 14.512C7.48733 13.9534 7.87692 13.4807 8.39541 13.137C8.52718 13.051 9.08864 12.9221 9.26338 12.8362V19.4505H9.30635ZM17.7855 34.1344C17.4418 34.7789 17.0092 35.2487 16.4449 35.6354C16.1412 35.8503 16.1412 36.0651 15.7545 36.194V28.3365C16.6196 28.7661 16.9204 29.2388 17.31 29.6685C17.6996 30.0982 17.9603 30.4849 18.0462 30.8716C18.1751 31.2984 18.3069 31.6422 18.3069 31.943C18.3928 32.8023 18.1321 33.5328 17.7855 34.1344Z" fill="white"/>
</svg>
