<svg width="25" height="56" fill="none" xmlns="http://www.w3.org/2000/svg"><path d="M24.148 28.297c-.433-1.028-.994-1.973-1.773-2.79-.954-.988-1.991-1.888-3.203-2.575-.347-.215-3.375-1.418-3.375-1.504V12.8c.433.3 1.123.942 1.513 1.501.347.473.476 1.031.78 1.547.65 1.114 1.73 1.716 3.03 1.673 2.206-.086 3.245-2.189 2.942-4.08-.347-2.102-1.602-3.778-3.289-5.064a12.337 12.337 0 0 0-2.727-1.547c-.215-.086-2.681-.86-2.681-.902V1.637c0-.688-.478-1.29-1.169-1.29h-3.72c-.694 0-1.17.602-1.17 1.29v4.29c0-.082-2.165.86-3.549 1.634-1.126.644-2.163 1.46-2.985 2.446C.996 12.113-.216 15.203.217 17.951c.65 4.293 3.506 7.299 7.746 8.63.432.13.564.258.91.344v8.285c0 .43.044.902-.045 1.289-.604-.344-1.34-.774-1.73-1.33-1.34-1.847-1.08-4.508-3.982-4.637-3.289-.13-3.503 3.735-2.767 6.01.822 2.532 2.813 4.423 5.104 5.712.608.34 1.212.641 1.862.856.433.172 1.427.215 1.645.645.215.43 0 1.59 0 2.105H5.368c-.519 0-.866.513-.994.814-.132.3-.132.773.257 1.16l6.924 7.127c.218.258.564.387.865.387.347 0 .65-.13.865-.387l6.924-7.127c.39-.387.39-.86.26-1.16-.128-.301-.432-.814-.993-.814h-3.678v-2.32c1.644-.774 3.503-1.2 4.975-2.36 3.807-2.963 5.194-8.546 3.375-12.883ZM9.306 19.798c-.564-.215-1.386-.472-1.733-.73-.343-.301-.604-.559-.69-.86a3.524 3.524 0 0 1-.218-1.246c0-.856.175-1.544.476-2.102.346-.559.736-1.032 1.254-1.375.132-.086.694-.215.868-.301v6.614h.043Zm8.48 14.684a4.076 4.076 0 0 1-1.341 1.501c-.304.215-.304.43-.69.559v-7.858c.865.43 1.165.902 1.555 1.332.39.43.65.817.736 1.203.13.427.26.77.26 1.072.087.859-.174 1.59-.52 2.191Z" fill="#0E314C" fill-opacity=".9"/></svg>