<svg width="19" height="24" viewBox="0 0 19 24" fill="none" xmlns="http://www.w3.org/2000/svg">
<g clip-path="url(#clip0_2_263)">
<path d="M17.9312 14.39L9.49999 22.13L1.06874 14.39C0.955712 14.285 0.87187 14.1375 0.829211 13.9687C0.786553 13.7998 0.787263 13.6183 0.831242 13.45L1.79708 9.66996L3.72874 2.15996C3.74748 2.09877 3.7773 2.04397 3.81583 1.99996C3.87856 1.92758 3.96045 1.88745 4.04541 1.88745C4.13037 1.88745 4.21226 1.92758 4.27499 1.99996C4.31567 2.04963 4.34564 2.11158 4.36208 2.17996L6.29374 9.66996H12.7062L14.6379 2.15996C14.6566 2.09877 14.6865 2.04397 14.725 1.99996C14.7877 1.92758 14.8696 1.88745 14.9546 1.88745C15.0395 1.88745 15.1214 1.92758 15.1842 1.99996C15.2248 2.04963 15.2548 2.11158 15.2712 2.17996L17.2029 9.68996L18.2083 13.45C18.2483 13.6234 18.243 13.8086 18.1931 13.9779C18.1431 14.1473 18.0513 14.2918 17.9312 14.39V14.39Z" stroke="black" stroke-width="2" stroke-linecap="round" stroke-linejoin="round"/>
</g>
<defs>
<clipPath id="clip0_2_263">
<rect width="19" height="24" fill="white"/>
</clipPath>
</defs>
</svg>
