<svg width="61" height="55" viewBox="0 0 61 55" fill="none" xmlns="http://www.w3.org/2000/svg">
<path d="M43.2916 0C38.1726 0 33.543 2.23866 30.3512 5.78821C27.157 2.23866 22.5297 0 17.4085 0C7.80762 0 0 7.79608 0 17.3785C0 26.0862 3.28183 34.083 9.75779 41.1406C13.252 44.9463 17.5631 48.422 23.0905 51.8654L27.6809 44.2516C18.814 38.4888 8.92695 29.4996 8.92695 17.3785C8.92695 12.7096 12.7304 8.9108 17.4085 8.9108C22.0404 8.9108 25.8438 12.6727 25.8877 17.2977H34.8146C34.8562 12.6727 38.6596 8.9108 43.2916 8.9108C47.9697 8.9108 51.7731 12.7096 51.7731 17.3785C51.7731 27.7548 45.2948 35.3293 37.9465 40.859L36.631 38.4865C35.9409 37.2426 34.7777 37.2218 34.0438 38.438L25.5992 52.4378C24.8653 53.6563 25.4284 54.6718 26.8524 54.6995L43.22 54.9995C44.644 55.0249 45.244 54.0302 44.5563 52.7863L42.3038 48.7197C45.6687 46.2872 48.5051 43.7947 50.9399 41.1406C57.4182 34.083 60.7 26.0862 60.7 17.3785C60.7 7.79608 52.8924 0 43.2916 0Z" fill="white"/>
</svg>
