<svg width="61" height="56" viewBox="0 0 61 56" fill="none" xmlns="http://www.w3.org/2000/svg">
<path d="M43.2916 0.695312C38.1726 0.695312 33.543 2.93397 30.3512 6.48352C27.157 2.93397 22.5297 0.695312 17.4085 0.695312C7.80762 0.695312 0 8.49139 0 18.0738C0 26.7815 3.28183 34.7784 9.75779 41.8359C13.252 45.6416 17.5631 49.1173 23.0905 52.5607L27.6809 44.947C18.814 39.1841 8.92695 30.1949 8.92695 18.0738C8.92695 13.4049 12.7304 9.60611 17.4085 9.60611C22.0404 9.60611 25.8438 13.368 25.8877 17.993H34.8146C34.8562 13.368 38.6596 9.60611 43.2916 9.60611C47.9697 9.60611 51.7731 13.4049 51.7731 18.0738C51.7731 28.4501 45.2948 36.0246 37.9465 41.5543L36.631 39.1818C35.9409 37.9379 34.7777 37.9171 34.0438 39.1334L25.5992 53.1331C24.8653 54.3516 25.4284 55.3671 26.8524 55.3948L43.22 55.6948C44.644 55.7202 45.244 54.7255 44.5563 53.4816L42.3038 49.415C45.6687 46.9825 48.5051 44.49 50.9399 41.8359C57.4182 34.7784 60.7 26.7815 60.7 18.0738C60.7 8.49139 52.8924 0.695312 43.2916 0.695312Z" fill="#0E314C" fill-opacity="0.9"/>
</svg>
