<svg width="40" height="40" viewBox="0 0 40 40" fill="none" xmlns="http://www.w3.org/2000/svg">
<path d="M38.8899 0H8.34447C8.19816 0 8.05503 0.0286258 7.91985 0.0842875C7.78308 0.141539 7.6638 0.221056 7.55884 0.326018C7.45547 0.42939 7.37436 0.550254 7.3187 0.685433C7.26145 0.822201 7.23282 0.963741 7.23282 1.11164V5.67589C6.89726 5.74746 6.56966 5.84924 6.25318 5.98441C5.93511 6.11959 5.63454 6.2834 5.34987 6.47742C5.0652 6.67144 4.8028 6.8909 4.56107 7.1374C4.31934 7.38232 4.10464 7.64949 3.91539 7.93734C3.72614 8.22519 3.56711 8.52894 3.4383 8.84701C3.30789 9.16667 3.21088 9.49586 3.14726 9.83461C3.08206 10.1718 3.05025 10.5137 3.05344 10.8572C3.05503 11.2023 3.0916 11.5426 3.15999 11.8798C3.22996 12.2185 3.33174 12.5445 3.46533 12.8626C3.59892 13.1807 3.76113 13.4812 3.95515 13.7659C4.14758 14.0522 4.36546 14.3162 4.61037 14.5579C4.85528 14.8012 5.12086 15.0159 5.40871 15.2067C5.69656 15.3976 5.99873 15.5566 6.31838 15.687C6.63645 15.8174 6.96406 15.916 7.3028 15.9828C7.64154 16.048 7.98187 16.0814 8.32697 16.0798C8.67048 16.0782 9.0124 16.0448 9.34955 15.9765C9.6867 15.9081 10.0143 15.8079 10.3324 15.6759C10.6504 15.5423 10.9526 15.3801 11.2389 15.1892C11.5251 14.9968 11.7891 14.7789 12.0324 14.5356C12.2758 14.2907 12.492 14.0267 12.6845 13.7389C12.8753 13.4526 13.0359 13.1504 13.1679 12.8324C13.2999 12.5143 13.3985 12.1867 13.4669 11.848C13.5337 11.5108 13.5671 11.1689 13.5671 10.8254C13.5671 10.4803 13.5337 10.1399 13.4669 9.80121C13.4478 9.69784 13.4113 9.59924 13.3858 9.49746C13.3333 9.28594 13.2697 9.07761 13.1918 8.87405C13.1473 8.76272 13.0932 8.65776 13.0407 8.54962C12.9548 8.36832 12.8594 8.19179 12.7545 8.02163C12.6892 7.91985 12.6209 7.82125 12.5509 7.72424C12.4316 7.56202 12.3028 7.40617 12.166 7.25827C12.0881 7.17398 12.0118 7.09129 11.9291 7.01336C11.77 6.86387 11.6015 6.72392 11.4249 6.59669C11.347 6.53785 11.2739 6.47583 11.1927 6.42335C10.9637 6.27226 10.7236 6.14186 10.4739 6.03053C10.4326 6.01145 10.396 5.9876 10.3546 5.9701C10.0636 5.84606 9.76463 5.74905 9.45611 5.67907V2.22169H37.7783V37.7783H16.6667V28.3063L18.7293 30.062C18.8804 30.1861 19.0426 30.2958 19.2144 30.3928C19.3845 30.4882 19.5627 30.5693 19.7471 30.6345C19.9332 30.6997 20.1225 30.749 20.3149 30.7824C20.5089 30.8158 20.7029 30.8317 20.9001 30.8317C21.0957 30.8317 21.2913 30.8142 21.4838 30.7809C21.6778 30.7459 21.867 30.6966 22.0515 30.6298C22.236 30.5646 22.4141 30.4835 22.5843 30.3864C22.7545 30.2894 22.9167 30.1797 23.0677 30.0541L30.8461 23.3874C31.0114 23.2459 31.1625 23.0884 31.2977 22.9151C31.4329 22.7433 31.549 22.5588 31.6476 22.3648C31.7478 22.1692 31.8257 21.9656 31.8845 21.7557C31.9434 21.5442 31.9816 21.3295 31.9975 21.1116C32.0149 20.8922 32.0086 20.6743 31.9831 20.458C31.9561 20.2401 31.9084 20.027 31.8416 19.8203C31.7732 19.612 31.6842 19.4132 31.5776 19.2223C31.4695 19.0315 31.3438 18.8534 31.2023 18.6864C31.0592 18.521 30.9017 18.3699 30.7284 18.2347C30.5566 18.1011 30.3721 17.9835 30.1765 17.8849C29.9825 17.7863 29.7789 17.7067 29.5674 17.6479C29.3575 17.5906 29.1428 17.5525 28.9233 17.5366C28.7055 17.5191 28.4876 17.5254 28.2713 17.5509C28.0534 17.5779 27.8403 17.6256 27.632 17.694C27.4253 17.7624 27.2249 17.8499 27.0356 17.958C26.8448 18.0646 26.6667 18.1902 26.4997 18.3333L20.8874 23.1393L15.598 18.6291C15.466 18.5194 15.3244 18.4208 15.1765 18.3349C15.1543 18.3206 15.132 18.3079 15.1081 18.2952C15.0413 18.257 14.9746 18.2172 14.9141 18.187C14.4211 17.9167 13.8947 17.7815 13.3333 17.7783H3.33333C3.11546 17.7783 2.89758 17.799 2.68448 17.8419C2.46978 17.8849 2.26145 17.9485 2.05948 18.0328C1.85751 18.117 1.66508 18.2188 1.48219 18.3413C1.30089 18.4621 1.13232 18.6005 0.978053 18.7548C0.823791 18.9106 0.685432 19.0776 0.562977 19.2605C0.442112 19.4418 0.338741 19.6342 0.254453 19.8362C0.171756 20.0382 0.108143 20.2465 0.0652036 20.4612C0.0222645 20.6759 0 20.8922 0 21.1116V38.8884C0 39.0363 0.028626 39.1778 0.0858779 39.3146C0.14154 39.4497 0.221056 39.5706 0.326018 39.674C0.429389 39.7789 0.550255 39.8585 0.687023 39.9157C0.822201 39.9714 0.963741 40 1.11164 40H38.8899C39.0363 40 39.1778 39.9714 39.3146 39.9157C39.4513 39.8585 39.5706 39.7789 39.6756 39.674C39.7789 39.5706 39.8601 39.4497 39.9157 39.3146C39.973 39.1778 40 39.0363 40 38.8884V1.11164C40 0.963741 39.973 0.822201 39.9157 0.685433C39.8601 0.550254 39.7789 0.42939 39.6756 0.326018C39.5706 0.221056 39.4513 0.141539 39.3146 0.0842875C39.1778 0.0286258 39.0363 0 38.8899 0ZM11.2834 11.3899C11.258 11.514 11.2246 11.6364 11.1832 11.7573C11.1434 11.8782 11.0941 11.9959 11.0385 12.1104C10.9828 12.2233 10.9192 12.3346 10.8492 12.4412C10.7793 12.5461 10.7029 12.6479 10.6202 12.7449C10.5375 12.8419 10.4485 12.9326 10.3546 13.0184C10.2592 13.1027 10.1606 13.1823 10.0557 13.2554C9.95229 13.327 9.84256 13.3938 9.72964 13.4526C9.61832 13.5114 9.50223 13.5623 9.38295 13.6069C9.26368 13.6514 9.14122 13.688 9.01718 13.7166C8.89313 13.7452 8.76749 13.7659 8.64186 13.7786C8.51463 13.7929 8.3874 13.7977 8.26018 13.7945C8.13295 13.7913 8.00731 13.7802 7.88168 13.7595C7.75604 13.7405 7.632 13.7134 7.50954 13.6784C7.38709 13.6434 7.26781 13.6021 7.15013 13.5512C7.03403 13.5003 6.91953 13.4431 6.8098 13.3795C6.70006 13.3142 6.5951 13.2427 6.49491 13.1663C6.39472 13.0884 6.2993 13.0041 6.20865 12.9135C6.11959 12.8244 6.03531 12.729 5.95738 12.6272C5.87945 12.527 5.80789 12.4221 5.74427 12.3123C5.67907 12.2026 5.62182 12.0897 5.57093 11.972C5.52163 11.8559 5.47869 11.7366 5.4437 11.6142C5.40872 11.4917 5.38168 11.3677 5.3626 11.242C5.34351 11.1164 5.33238 10.9892 5.3292 10.862C5.32602 10.7347 5.33079 10.6075 5.34351 10.4819C5.35623 10.3546 5.37691 10.229 5.40553 10.105C5.43416 9.98092 5.47074 9.86005 5.51527 9.74078C5.5598 9.6215 5.61069 9.50541 5.66953 9.39249C5.72837 9.27958 5.79517 9.17144 5.86673 9.06648C5.93989 8.9631 6.0194 8.86291 6.10369 8.76908C6.18957 8.67366 6.28022 8.5862 6.37723 8.50191C6.47424 8.41921 6.57602 8.34288 6.68098 8.2729C6.78753 8.20293 6.89885 8.1409 7.01177 8.08524C7.12627 8.02799 7.24396 7.98028 7.36482 7.93893C7.4841 7.89758 7.60655 7.86419 7.73219 7.83874C7.85623 7.81329 7.98187 7.7958 8.1091 7.78626C8.23632 7.77672 8.36355 7.77513 8.49078 7.78149C8.618 7.78785 8.74364 7.80216 8.86927 7.82443C8.99332 7.84828 9.11737 7.8785 9.23823 7.91667C9.36069 7.95483 9.47837 7.99936 9.59447 8.05343C9.70897 8.10592 9.82188 8.16635 9.93003 8.23314C10.0366 8.30153 10.1399 8.37468 10.2385 8.45579C10.3371 8.5369 10.431 8.62277 10.5184 8.71501C10.6059 8.80725 10.687 8.90426 10.7634 9.00763C10.8381 9.10941 10.9065 9.21756 10.9685 9.32888C11.0289 9.43861 11.0846 9.55471 11.1307 9.67239C11.1784 9.79008 11.2182 9.91094 11.25 10.035C11.2818 10.1574 11.3057 10.2831 11.3216 10.4087C11.3375 10.5344 11.3454 10.6616 11.3454 10.7888C11.3454 10.9908 11.3247 11.1912 11.2834 11.3899ZM15.0906 24.8919C14.8934 24.9825 14.736 25.1193 14.6199 25.3006C14.5038 25.4835 14.445 25.6838 14.445 25.9001V37.7783H2.22328V21.1116C2.22328 20.9637 2.25191 20.8222 2.30757 20.6854C2.36482 20.5503 2.44434 20.4294 2.5493 20.326C2.65267 20.2211 2.77354 20.1415 2.90872 20.0843C3.04548 20.0286 3.18702 20 3.33333 20H13.3333C13.5305 20.0064 13.715 20.0588 13.8868 20.1574L13.9965 20.2211L14.0347 20.2417C14.076 20.2688 14.1444 20.3101 14.146 20.3117L20.1686 25.4453C20.2688 25.5312 20.3817 25.598 20.5057 25.6441C20.6298 25.6886 20.7586 25.7125 20.8906 25.7109C21.0226 25.7109 21.1514 25.6886 21.2754 25.6425C21.3995 25.5964 21.5108 25.5312 21.6126 25.4437L27.9453 20.0207C28.1823 19.8155 28.4574 19.7265 28.7707 19.7535C29.0712 19.7758 29.3177 19.903 29.5118 20.1336C29.7137 20.3674 29.8044 20.6377 29.7821 20.9462C29.7599 21.2516 29.6326 21.5029 29.3989 21.7001L21.6285 28.3604C21.4202 28.5417 21.1768 28.6323 20.9001 28.6339C20.6266 28.6387 20.3849 28.5528 20.1765 28.3763L16.277 25.0541C16.1116 24.9141 15.9224 24.8282 15.7077 24.7996C15.493 24.7694 15.2863 24.7996 15.0906 24.8919Z" fill="white"/>
</svg>
