<svg width="51" height="51" viewBox="0 0 51 51" fill="none" xmlns="http://www.w3.org/2000/svg">
<path fill-rule="evenodd" clip-rule="evenodd" d="M30.845 45.1808C30.3196 43.6816 28.8886 42.6045 27.2108 42.6045C25.0845 42.6045 23.3593 44.3297 23.3593 46.4559C23.3593 48.5804 25.0845 50.3056 27.2108 50.3056C29.1128 50.3056 30.6961 48.9219 31.0061 47.1074C41.9544 45.2929 50.314 35.7721 50.314 24.3142C50.314 21.8622 49.9322 19.4995 49.2228 17.2822C49.0617 16.776 48.5188 16.4958 48.0126 16.6569C47.5064 16.8198 47.2279 17.3627 47.3891 17.8672C48.0389 19.9006 48.3891 22.0671 48.3891 24.3142C48.3891 34.765 40.8037 43.4574 30.845 45.1808ZM27.2108 44.5293C28.2739 44.5293 29.1356 45.3928 29.1356 46.4559C29.1356 47.5173 28.2739 48.3807 27.2108 48.3807C26.1476 48.3807 25.2859 47.5173 25.2859 46.4559C25.2859 45.3928 26.1476 44.5293 27.2108 44.5293ZM4.12154 25.1584C4.48233 35.1906 11.2534 43.5993 20.4555 46.4121C20.9651 46.5697 21.5028 46.2825 21.6587 45.7746C21.8128 45.2649 21.5273 44.7272 21.0194 44.5731C12.602 41.9985 6.40541 34.3184 6.04812 25.1496C7.69973 24.717 8.92048 23.2126 8.92048 21.4261C8.92048 19.2998 7.19531 17.5747 5.06907 17.5747C2.94282 17.5747 1.21765 19.2998 1.21765 21.4261C1.21765 23.2248 2.45417 24.7363 4.12154 25.1584ZM30.9939 35.0733C31.6647 35.2765 32.3757 35.3851 33.1114 35.3851C37.1572 35.3851 40.4429 32.0994 40.4429 28.0535C40.4429 22.6346 37.1572 17.7008 33.8224 14.0385C33.5334 13.7198 33.0658 13.6322 32.6805 13.8248C32.2952 14.0193 32.085 14.4431 32.1656 14.8669C32.5982 17.1403 31.8328 18.7254 30.7504 20.0845C29.0673 16.5483 26.638 13.3537 24.1965 10.6705C23.9058 10.3517 23.4399 10.2642 23.0546 10.4568C22.6693 10.6495 22.4573 11.0733 22.5379 11.4972C23.3208 15.6043 21.3049 18.0966 19.1524 20.3805C17.9474 21.659 16.6916 22.878 15.7336 24.2179C14.6827 25.6856 13.9786 27.2969 13.9786 29.248C13.9786 34.4936 18.2381 38.7531 23.4854 38.7531C26.5364 38.7531 29.2547 37.3134 30.9939 35.0733ZM24.6099 14.0946C28.0479 18.319 31.0657 23.5488 31.0657 29.248C31.0657 33.4304 27.6679 36.8282 23.4854 36.8282C19.2995 36.8282 15.9035 33.4304 15.9035 29.248C15.9035 27.7278 16.4797 26.4825 17.2994 25.3388C18.2101 24.0655 19.4098 22.9166 20.5553 21.7011C22.5397 19.5923 24.3489 17.305 24.6099 14.0963V14.0946ZM23.6501 24.6102L21.3627 33.1467C21.2261 33.6599 21.5308 34.1888 22.044 34.3254C22.5572 34.4638 23.0861 34.1573 23.2227 33.6459L25.5101 25.1076C25.6485 24.5944 25.3437 24.0673 24.8305 23.9289C24.3174 23.7905 23.7884 24.097 23.6501 24.6102ZM32.0587 33.3569C32.3985 33.4234 32.7506 33.4585 33.1114 33.4585C36.0958 33.4585 38.5163 31.038 38.5163 28.0535C38.5163 24.062 36.5004 20.3892 34.1237 17.368C33.8137 19.2613 32.7908 20.7273 31.5981 22.0601C32.4668 24.351 32.9905 26.7592 32.9905 29.248C32.9905 30.7192 32.656 32.1116 32.0587 33.3569ZM19.1139 33.0644C19.9598 33.0644 20.6464 32.3796 20.6464 31.5336C20.6464 30.6894 19.9598 30.0029 19.1139 30.0029C18.2697 30.0029 17.5831 30.6894 17.5831 31.5336C17.5831 32.3796 18.2697 33.0644 19.1139 33.0644ZM19.1139 31.1396C19.3328 31.1396 19.5097 31.3165 19.5097 31.5336C19.5097 31.7508 19.3328 31.9277 19.1139 31.9277C18.8967 31.9277 18.7198 31.7508 18.7198 31.5336C18.7198 31.3165 18.8967 31.1396 19.1139 31.1396ZM27.6924 28.7331C28.5366 28.7331 29.2232 28.0465 29.2232 27.2023C29.2232 26.3564 28.5366 25.6716 27.6924 25.6716C26.8465 25.6716 26.1616 26.3564 26.1616 27.2023C26.1616 28.0465 26.8465 28.7331 27.6924 28.7331ZM27.6924 26.8065C27.9096 26.8065 28.0865 26.9852 28.0865 27.2023C28.0865 27.4195 27.9096 27.5964 27.6924 27.5964C27.4735 27.5964 27.2966 27.4195 27.2966 27.2023C27.2966 26.9852 27.4735 26.8065 27.6924 26.8065ZM5.06907 19.5013C6.13219 19.5013 6.9939 20.363 6.9939 21.4261C6.9939 22.4892 6.13219 23.3509 5.06907 23.3509C4.00594 23.3509 3.14423 22.4892 3.14423 21.4261C3.14423 20.363 4.00594 19.5013 5.06907 19.5013ZM42.3817 9.54257C41.9228 10.1766 41.6514 10.956 41.6514 11.7984C41.6514 13.9247 43.3748 15.6498 45.501 15.6498C47.6273 15.6498 49.3524 13.9247 49.3524 11.7984C49.3524 9.67393 47.6273 7.94876 45.501 7.94876C44.9178 7.94876 44.3643 8.07837 43.8687 8.31131C39.6652 3.93447 33.7524 1.20923 27.2108 1.20923C17.6672 1.20923 9.46693 7.00824 5.94478 15.2733C5.73636 15.7619 5.9658 16.3276 6.4527 16.5361C6.9431 16.7427 7.50882 16.5168 7.71549 16.0264C10.9451 8.45143 18.4623 3.13581 27.2108 3.13581C33.1569 3.13581 38.5338 5.59133 42.3817 9.54257ZM45.501 9.8736C46.5642 9.8736 47.4259 10.7371 47.4259 11.7984C47.4259 12.8616 46.5642 13.725 45.501 13.725C44.4379 13.725 43.5762 12.8616 43.5762 11.7984C43.5762 10.7371 44.4379 9.8736 45.501 9.8736Z" fill="white" stroke="white" stroke-width="0.892661"/>
</svg>
