<svg width="51" height="51" viewBox="0 0 51 51" fill="none" xmlns="http://www.w3.org/2000/svg">
<path fill-rule="evenodd" clip-rule="evenodd" d="M30.8451 45.1808C30.3197 43.6816 28.8888 42.6045 27.2109 42.6045C25.0846 42.6045 23.3595 44.3296 23.3595 46.4559C23.3595 48.5804 25.0846 50.3056 27.2109 50.3056C29.1129 50.3056 30.6962 48.9219 31.0062 47.1074C41.9545 45.2929 50.3141 35.7721 50.3141 24.3142C50.3141 21.8622 49.9323 19.4995 49.223 17.2822C49.0618 16.776 48.5189 16.4958 48.0127 16.6569C47.5065 16.8198 47.2281 17.3627 47.3892 17.8672C48.039 19.9006 48.3893 22.0671 48.3893 24.3142C48.3893 34.765 40.8038 43.4574 30.8451 45.1808ZM27.2109 44.5293C28.274 44.5293 29.1357 45.3928 29.1357 46.4559C29.1357 47.5173 28.274 48.3807 27.2109 48.3807C26.1478 48.3807 25.286 47.5173 25.286 46.4559C25.286 45.3928 26.1478 44.5293 27.2109 44.5293ZM4.12166 25.1584C4.48245 35.1906 11.2535 43.5993 20.4556 46.4121C20.9652 46.5697 21.5029 46.2825 21.6588 45.7746C21.8129 45.2649 21.5275 44.7272 21.0195 44.5731C12.6021 41.9985 6.40554 34.3184 6.04824 25.1496C7.69985 24.717 8.9206 23.2126 8.9206 21.4261C8.9206 19.2998 7.19543 17.5747 5.06919 17.5747C2.94294 17.5747 1.21777 19.2998 1.21777 21.4261C1.21777 23.2248 2.45429 24.7363 4.12166 25.1584ZM30.994 35.0733C31.6648 35.2765 32.3759 35.3851 33.1115 35.3851C37.1573 35.3851 40.443 32.0994 40.443 28.0535C40.443 22.6346 37.1573 17.7008 33.8226 14.0385C33.5336 13.7198 33.0659 13.6322 32.6806 13.8248C32.2953 14.0193 32.0851 14.4431 32.1657 14.8669C32.5983 17.1403 31.8329 18.7254 30.7505 20.0845C29.0674 16.5483 26.6382 13.3537 24.1966 10.6705C23.9059 10.3517 23.44 10.2642 23.0547 10.4568C22.6694 10.6495 22.4575 11.0733 22.538 11.4972C23.3209 15.6043 21.305 18.0966 19.1525 20.3805C17.9475 21.659 16.6917 22.878 15.7337 24.2179C14.6828 25.6856 13.9788 27.2969 13.9788 29.248C13.9788 34.4936 18.2383 38.7531 23.4856 38.7531C26.5366 38.7531 29.2548 37.3134 30.994 35.0733ZM24.61 14.0946C28.0481 18.319 31.0658 23.5488 31.0658 29.248C31.0658 33.4304 27.668 36.8282 23.4856 36.8282C19.2996 36.8282 15.9036 33.4304 15.9036 29.248C15.9036 27.7278 16.4798 26.4825 17.2995 25.3388C18.2102 24.0655 19.41 22.9166 20.5554 21.7011C22.5398 19.5923 24.349 17.305 24.61 14.0963V14.0946ZM23.6502 24.6102L21.3628 33.1467C21.2262 33.6599 21.531 34.1888 22.0441 34.3254C22.5573 34.4638 23.0862 34.1573 23.2228 33.6459L25.5102 25.1076C25.6486 24.5944 25.3438 24.0673 24.8307 23.9289C24.3175 23.7905 23.7886 24.097 23.6502 24.6102ZM32.0589 33.3569C32.3986 33.4234 32.7507 33.4585 33.1115 33.4585C36.0959 33.4585 38.5164 31.038 38.5164 28.0535C38.5164 24.062 36.5005 20.3892 34.1238 17.368C33.8138 19.2613 32.791 20.7273 31.5982 22.0601C32.4669 24.351 32.9906 26.7592 32.9906 29.248C32.9906 30.7192 32.6561 32.1116 32.0589 33.3569ZM19.114 33.0644C19.9599 33.0644 20.6465 32.3796 20.6465 31.5336C20.6465 30.6894 19.9599 30.0029 19.114 30.0029C18.2698 30.0029 17.5832 30.6894 17.5832 31.5336C17.5832 32.3796 18.2698 33.0644 19.114 33.0644ZM19.114 31.1396C19.3329 31.1396 19.5098 31.3165 19.5098 31.5336C19.5098 31.7508 19.3329 31.9277 19.114 31.9277C18.8968 31.9277 18.7199 31.7508 18.7199 31.5336C18.7199 31.3165 18.8968 31.1396 19.114 31.1396ZM27.6925 28.7331C28.5367 28.7331 29.2233 28.0465 29.2233 27.2023C29.2233 26.3564 28.5367 25.6716 27.6925 25.6716C26.8466 25.6716 26.1618 26.3564 26.1618 27.2023C26.1618 28.0465 26.8466 28.7331 27.6925 28.7331ZM27.6925 26.8065C27.9097 26.8065 28.0866 26.9852 28.0866 27.2023C28.0866 27.4195 27.9097 27.5964 27.6925 27.5964C27.4736 27.5964 27.2967 27.4195 27.2967 27.2023C27.2967 26.9852 27.4736 26.8065 27.6925 26.8065ZM5.06919 19.5013C6.13231 19.5013 6.99402 20.363 6.99402 21.4261C6.99402 22.4892 6.13231 23.3509 5.06919 23.3509C4.00606 23.3509 3.14436 22.4892 3.14436 21.4261C3.14436 20.363 4.00606 19.5013 5.06919 19.5013ZM42.3818 9.54257C41.923 10.1766 41.6515 10.956 41.6515 11.7984C41.6515 13.9247 43.3749 15.6498 45.5011 15.6498C47.6274 15.6498 49.3526 13.9247 49.3526 11.7984C49.3526 9.67393 47.6274 7.94876 45.5011 7.94876C44.9179 7.94876 44.3645 8.07837 43.8688 8.31131C39.6654 3.93447 33.7525 1.20923 27.2109 1.20923C17.6673 1.20923 9.46705 7.00824 5.94491 15.2733C5.73649 15.7619 5.96592 16.3276 6.45282 16.5361C6.94323 16.7427 7.50894 16.5168 7.71561 16.0264C10.9453 8.45143 18.4624 3.13581 27.2109 3.13581C33.157 3.13581 38.5339 5.59133 42.3818 9.54257ZM45.5011 9.8736C46.5643 9.8736 47.426 10.7371 47.426 11.7984C47.426 12.8616 46.5643 13.725 45.5011 13.725C44.438 13.725 43.5763 12.8616 43.5763 11.7984C43.5763 10.7371 44.438 9.8736 45.5011 9.8736Z" fill="#0E314C" stroke="#0E314C" stroke-width="0.892661"/>
</svg>
