<svg width="37" height="32" viewBox="0 0 37 32" fill="none" xmlns="http://www.w3.org/2000/svg">
<path d="M26.31 2.96289H11.0399C6.82322 2.96289 3.40491 5.84927 3.40491 9.4098V22.3036C3.40491 25.8642 6.82322 28.7505 11.0399 28.7505H26.31C30.5267 28.7505 33.945 25.8642 33.945 22.3036V9.4098C33.945 5.84927 30.5267 2.96289 26.31 2.96289Z" stroke="black" stroke-width="2" stroke-linecap="round" stroke-linejoin="round"/>
<path d="M24.783 15.0446C24.9714 16.1176 24.7543 17.2136 24.1626 18.1765C23.5709 19.1394 22.6347 19.9202 21.4871 20.408C20.3395 20.8957 19.0391 21.0655 17.7706 20.8931C16.5022 20.7208 15.3304 20.2151 14.422 19.448C13.5136 18.6809 12.9147 17.6915 12.7106 16.6205C12.5065 15.5494 12.7075 14.4513 13.2851 13.4823C13.8627 12.5133 14.7875 11.7228 15.9278 11.2231C17.0682 10.7235 18.3661 10.5402 19.637 10.6993C20.9333 10.8617 22.1334 11.3717 23.06 12.1542C23.9867 12.9366 24.5907 13.95 24.783 15.0446Z" stroke="black" stroke-width="2" stroke-linecap="round" stroke-linejoin="round"/>
<path d="M27.0734 8.76514H27.0883" stroke="black" stroke-width="2" stroke-linecap="round" stroke-linejoin="round"/>
</svg>
