<svg width="56" height="55" viewBox="0 0 56 55" fill="none" xmlns="http://www.w3.org/2000/svg">
<path d="M17.7919 49.5953C15.5964 49.7706 14.3664 52.0552 16.1223 53.9892C18.0563 55.7479 20.4271 54.5179 20.5162 52.3195C20.6024 51.0005 21.9214 50.2131 23.1514 51.4431L26.0509 54.3426C26.9274 55.2191 28.3327 55.2191 29.2149 54.3426L32.1145 51.4431C33.3444 50.2131 34.5744 50.9143 34.6606 52.2305C34.8387 54.4288 37.1205 55.6588 39.0545 53.8139C40.8103 51.8827 39.5804 49.5953 37.4739 49.42C36.1549 49.3309 35.4508 48.1009 36.5917 46.871L39.4913 43.9714C40.3735 43.0949 40.3735 41.6006 39.4913 40.7241L37.4739 38.701C37.2096 39.408 36.8561 40.0201 36.3273 40.5488C34.5744 42.3018 31.761 42.3018 29.7437 40.4597L29.5684 40.2844C27.7206 38.2613 27.6315 35.448 29.4793 33.695C30.0023 33.1662 30.6201 32.8128 31.3213 32.5541L29.2149 30.442C28.3327 29.5655 26.9274 29.5655 26.0509 30.442L23.0623 33.4306C21.8323 34.6606 20.6024 33.8703 20.5162 32.5541C20.338 30.3558 18.0563 29.1258 16.1223 30.8845C14.3664 32.8128 15.5964 35.1003 17.7028 35.2784C19.0218 35.3618 19.815 36.6837 18.585 37.8245L15.6854 40.7241C14.8032 41.6006 14.8032 43.0058 15.6854 43.8852L18.585 46.7848C19.9041 48.19 19.108 49.5062 17.7919 49.5953ZM40.8965 18.6712C42.6552 20.4271 42.6552 23.2376 40.8103 25.2607L40.7212 25.3497L40.6379 25.436C38.6148 27.278 35.8043 27.3671 34.0485 25.525C33.5197 24.9963 33.1662 24.3784 32.9019 23.6772L30.7926 25.7837C29.9161 26.6659 29.9161 28.0712 30.7926 28.9476L33.7841 31.9363C35.0083 33.1662 34.2209 34.3962 32.9019 34.4853C30.7092 34.6606 29.4793 36.9423 31.2322 38.8792C33.1662 40.635 35.4508 39.408 35.6261 37.2958C35.7152 35.9767 37.0314 35.1893 38.178 36.4193L41.0747 39.3189C41.9541 40.1953 43.3622 40.1953 44.2387 39.3189L47.1382 36.4193C48.3682 35.1893 49.6843 35.9767 49.7734 37.2958C49.9487 39.4913 52.2333 40.7241 54.1673 38.9654C55.9203 37.0314 54.6904 34.6606 52.4977 34.5715C51.1787 34.4853 50.3855 33.1662 51.6155 31.9363L54.5151 29.0367C55.3973 28.1602 55.3973 26.755 54.5151 25.8728L51.6155 22.9732C50.3855 21.7432 51.0896 20.5133 52.4086 20.4271C54.6041 20.2489 55.837 17.9672 53.9892 16.0332C52.0552 14.2773 49.7734 15.5073 49.5981 17.6137C49.5091 18.9327 48.2791 19.6368 47.0492 18.4959L44.1496 15.5964C43.2731 14.7141 41.7788 14.7141 40.8965 15.5964L38.8792 17.6137C39.7557 17.789 40.3735 18.1425 40.8965 18.6712ZM15.8607 10.849C14.9785 11.7312 14.9785 13.2255 15.8607 14.102L17.881 16.1194C18.1453 15.4182 18.4959 14.8032 19.0218 14.2773C20.7805 12.5186 23.591 12.5186 25.6084 14.3664L25.7865 14.5417C27.6315 16.5619 27.7206 19.3724 25.8728 21.1311C25.3497 21.6541 24.7319 22.0076 24.0307 22.272L26.1371 24.3784C27.0165 25.2607 28.4217 25.2607 29.304 24.3784L32.2869 21.3955C33.5197 20.1598 34.7497 20.9558 34.8387 22.272C35.0083 24.4675 37.2958 25.6975 39.2269 23.9416C40.9856 22.0076 39.7557 19.7259 37.6492 19.5477C36.3273 19.4615 35.5371 18.1425 36.7728 17.0016L39.6666 14.102C40.5488 13.2255 40.5488 11.8203 39.6666 10.9381L36.7728 8.03849C35.5371 6.80855 36.3273 5.48951 37.6492 5.4033C39.8448 5.22513 41.0747 2.9434 39.316 1.00939C37.3849 -0.746447 35.0083 0.483502 34.9221 2.67902C34.8387 3.99518 33.5197 4.7912 32.2869 3.56125L29.3902 0.661673C28.508 -0.220558 27.1027 -0.220558 26.2262 0.661673L23.3266 3.56125C22.0967 4.7912 20.8668 4.08426 20.7805 2.7681C20.6024 0.572588 18.3206 -0.657362 16.3866 1.18469C14.6279 3.1187 15.8607 5.4033 17.9672 5.5786C19.2862 5.66768 19.9903 6.89763 18.8437 8.12471L15.8607 10.849ZM3.73367 22.9732C4.96362 21.7432 4.17335 20.4271 2.85719 20.338C0.661673 20.1598 -0.571151 17.8781 1.18469 15.9498C3.12157 14.1911 5.49239 15.4182 5.5786 17.6137C5.66768 18.9327 6.98672 19.7259 8.21666 18.4959L11.1162 15.5964C11.9927 14.7141 13.398 14.7141 14.2802 15.5964L17.1798 18.4959C18.4097 19.7259 19.7259 18.9327 19.7259 17.6137C19.9041 15.4182 22.1858 14.1911 24.114 16.0332C25.8728 17.9672 24.6457 20.338 22.4502 20.4271C21.1311 20.5133 20.338 21.8323 21.5679 22.9732L24.5566 25.9618C25.4331 26.8412 25.4331 28.2493 24.5566 29.1258L22.4502 31.2322C22.1858 30.531 21.8323 29.9132 21.3036 29.3902C19.4615 27.5424 16.7372 27.6315 14.7141 29.4793L14.5388 29.6546C12.6968 31.6719 12.6077 34.4853 14.4555 36.2411C14.9785 36.767 15.5964 37.1205 16.2975 37.3849L14.2802 39.408C13.398 40.2844 11.9036 40.2844 11.0272 39.408L8.12758 36.5084C6.89763 35.2784 5.66768 35.9767 5.5786 37.3849C5.4033 39.5775 3.12157 40.8132 1.18469 38.9654C-0.571151 37.0314 0.661673 34.6606 2.7681 34.5715C4.08714 34.4853 4.7912 33.2553 3.5555 32.0254L0.661673 29.1258C-0.220558 28.2493 -0.220558 26.8412 0.661673 25.9618L3.73367 22.9732Z" fill="white"/>
</svg>
