<svg width="59" height="55" fill="none" xmlns="http://www.w3.org/2000/svg"><path d="M56.662 21.556h-4.25c-.492-1.724-1.17-3.449-2.094-4.988l3.018-3.018a1.98 1.98 0 0 0 0-2.649L47.61 5.175a1.859 1.859 0 0 0-2.648 0l-3.018 3.018c-1.54-.862-3.265-1.54-5.051-2.033V1.848C36.892.8 36.092 0 35.044 0h-8.191c-1.047 0-1.848.8-1.848 1.848v4.25a21.352 21.352 0 0 0-5.05 2.094l-2.957-2.957a1.859 1.859 0 0 0-2.648 0l-5.728 5.728c-.677.678-.677 1.91 0 2.648l2.649 2.648c.492-.862 1.293-1.54 2.278-2.032.74-.37 1.601-.616 2.464-.616 1.231 0 2.463.431 3.448 1.17l4.743 3.634c1.91-1.417 4.188-2.279 6.713-2.279 6.282 0 11.394 5.112 11.394 11.394 0 6.283-5.05 11.395-11.394 11.395-2.525 0-4.865-.862-6.713-2.278l-4.742 3.633c-.986.74-2.218 1.17-3.45 1.17-.862 0-1.724-.184-2.463-.553a5.435 5.435 0 0 1-2.278-1.972l-2.587 2.587c-.74.678-.74 1.91 0 2.648l5.727 5.728c.74.739 1.91.739 2.649 0l3.018-3.018c1.54.862 3.264 1.54 5.05 2.032v4.25c0 1.047.8 1.848 1.848 1.848h8.13c1.047 0 1.848-.8 1.848-1.848v-4.25a21.35 21.35 0 0 0 5.05-2.094l2.957 2.957c.739.739 1.909.739 2.648 0l5.727-5.728c.74-.678.74-1.91 0-2.648l-3.018-3.018a22.944 22.944 0 0 0 2.094-5.05h4.25c.986 0 1.848-.801 1.848-1.848v-8.068c0-.986-.863-1.848-1.848-1.848Z" fill="#23445E"/><path d="M14.35 35.784c0 .616.37 1.231.924 1.54a1.588 1.588 0 0 0 1.786-.185l10.778-8.253c.431-.308.677-.801.677-1.355 0-.554-.246-1.047-.677-1.355L17.06 17.923a1.674 1.674 0 0 0-1.047-.37c-.246 0-.493.062-.739.185-.554.308-.924.862-.924 1.54v3.757H1.416C.678 23.035 0 23.65 0 24.45v6.283c0 .739.616 1.416 1.416 1.416H14.35v3.634Z" fill="#23445E"/></svg>