<svg width="19" height="24" viewBox="0 0 19 24" fill="none" xmlns="http://www.w3.org/2000/svg">
<path d="M12.6667 8C13.9264 8 15.1346 8.63214 16.0254 9.75736C16.9162 10.8826 17.4167 12.4087 17.4167 14V21H14.25V14C14.25 13.4696 14.0832 12.9609 13.7862 12.5858C13.4893 12.2107 13.0866 12 12.6667 12C12.2467 12 11.844 12.2107 11.5471 12.5858C11.2501 12.9609 11.0833 13.4696 11.0833 14V21H7.91666V14C7.91666 12.4087 8.4171 10.8826 9.3079 9.75736C10.1987 8.63214 11.4069 8 12.6667 8V8Z" stroke="black" stroke-width="2" stroke-linecap="round" stroke-linejoin="round"/>
<path d="M4.75001 9H1.58334V21H4.75001V9Z" stroke="black" stroke-width="2" stroke-linecap="round" stroke-linejoin="round"/>
<path d="M3.16668 6C4.04113 6 4.75001 5.10457 4.75001 4C4.75001 2.89543 4.04113 2 3.16668 2C2.29223 2 1.58334 2.89543 1.58334 4C1.58334 5.10457 2.29223 6 3.16668 6Z" stroke="black" stroke-width="2" stroke-linecap="round" stroke-linejoin="round"/>
</svg>
