<svg width="38" height="32" viewBox="0 0 38 32" fill="none" xmlns="http://www.w3.org/2000/svg">
<path d="M25.0708 10.6992C27.5007 10.6992 29.8311 11.5143 31.5493 12.9651C33.2675 14.416 34.2328 16.3837 34.2328 18.4355V27.4612H28.1248V18.4355C28.1248 17.7516 27.803 17.0957 27.2303 16.6121C26.6575 16.1284 25.8807 15.8567 25.0708 15.8567C24.2608 15.8567 23.484 16.1284 22.9113 16.6121C22.3385 17.0957 22.0168 17.7516 22.0168 18.4355V27.4612H15.9088V18.4355C15.9088 16.3837 16.874 14.416 18.5922 12.9651C20.3105 11.5143 22.6409 10.6992 25.0708 10.6992V10.6992Z" stroke="black" stroke-width="2" stroke-linecap="round" stroke-linejoin="round"/>
<path d="M9.80076 11.9888H3.69275V27.4614H9.80076V11.9888Z" stroke="black" stroke-width="2" stroke-linecap="round" stroke-linejoin="round"/>
<path d="M6.74676 8.12042C8.43344 8.12042 9.80076 6.96587 9.80076 5.54165C9.80076 4.11744 8.43344 2.96289 6.74676 2.96289C5.06007 2.96289 3.69275 4.11744 3.69275 5.54165C3.69275 6.96587 5.06007 8.12042 6.74676 8.12042Z" stroke="black" stroke-width="2" stroke-linecap="round" stroke-linejoin="round"/>
</svg>
