<svg width="21" height="20" viewBox="0 0 21 20" fill="none" xmlns="http://www.w3.org/2000/svg">
<path d="M10.0374 0C9.70851 0 9.38042 0.0164453 9.05316 0.0485138C8.72672 0.080582 8.40192 0.128274 8.0796 0.19241C7.75644 0.255725 7.43823 0.335485 7.1233 0.430868C6.80919 0.525429 6.50002 0.635612 6.1966 0.761419C5.89236 0.886404 5.59553 1.02619 5.30609 1.18078C5.01583 1.33536 4.73461 1.5031 4.4608 1.68565C4.18781 1.86737 3.92386 2.06225 3.66978 2.27028C3.4157 2.47749 3.17231 2.69704 2.9396 2.92892C2.70773 3.16079 2.48654 3.40254 2.2785 3.6558C2.06965 3.90906 1.87395 4.17218 1.6914 4.44435C1.50886 4.71652 1.3403 4.99692 1.18489 5.28635C1.0303 5.57497 0.889693 5.87099 0.763886 6.17358C0.638079 6.47617 0.527895 6.7837 0.432512 7.09699C0.336307 7.41027 0.256547 7.72766 0.19241 8.04917C0.128274 8.37068 0.0805822 8.69383 0.0485138 9.02027C0.0156231 9.34589 0 9.67233 0 10.0004C0 10.3277 0.0156231 10.6541 0.0485138 10.9806C0.0805822 11.3062 0.128274 11.6301 0.19241 11.9508C0.256547 12.2723 0.336307 12.5897 0.432512 12.903C0.527895 13.2163 0.638079 13.5246 0.763886 13.8272C0.889693 14.1298 1.0303 14.425 1.18489 14.7145C1.3403 15.0031 1.50886 15.2835 1.6914 15.5556C1.87395 15.8278 2.06965 16.0909 2.2785 16.3442C2.48654 16.5975 2.70773 16.8392 2.9396 17.0711C3.17231 17.303 3.4157 17.5225 3.66978 17.7305C3.92386 17.9378 4.18781 18.1326 4.4608 18.3152C4.73461 18.4969 5.01583 18.6646 5.30609 18.8192C5.59553 18.9738 5.89236 19.1136 6.1966 19.2386C6.50002 19.3644 6.80919 19.4746 7.1233 19.57C7.43823 19.6645 7.75644 19.7443 8.0796 19.8084C8.40192 19.8717 8.72672 19.9202 9.05316 19.9523C9.38042 19.9844 9.70851 20 10.0374 20C10.3663 20 10.6944 19.9844 11.0217 19.9523C11.3481 19.9202 11.6729 19.8717 11.9952 19.8084C12.3184 19.7443 12.6366 19.6645 12.9515 19.57C13.2656 19.4746 13.5748 19.3644 13.8782 19.2386C14.1825 19.1136 14.4793 18.9738 14.7687 18.8192C15.059 18.6646 15.3402 18.4969 15.614 18.3152C15.887 18.1326 16.151 17.9378 16.405 17.7305C16.6591 17.5225 16.9025 17.303 17.1352 17.0711C17.3671 16.8392 17.5883 16.5975 17.7963 16.3442C18.0052 16.0909 18.2009 15.8278 18.3834 15.5556C18.566 15.2835 18.7345 15.0031 18.8899 14.7145C19.0445 14.425 19.1851 14.1298 19.3109 13.8272C19.4367 13.5246 19.5469 13.2163 19.6423 12.903C19.7385 12.5897 19.8183 12.2723 19.8824 11.9508C19.9466 11.6301 19.9942 11.3062 20.0263 10.9806C20.0592 10.6541 20.0748 10.3277 20.0748 10.0004C20.0748 9.67233 20.0592 9.34589 20.0263 9.02027C19.9942 8.69383 19.9466 8.37068 19.8824 8.04917C19.8183 7.72766 19.7385 7.41027 19.6423 7.09699C19.5469 6.7837 19.4367 6.47617 19.3109 6.17358C19.1851 5.87099 19.0445 5.57497 18.8899 5.28635C18.7345 4.99692 18.566 4.71652 18.3834 4.44435C18.2009 4.17218 18.0052 3.90906 17.7963 3.6558C17.5883 3.40254 17.3671 3.16079 17.1352 2.92892C16.9025 2.69704 16.6591 2.47749 16.405 2.27028C16.151 2.06225 15.887 1.86737 15.614 1.68565C15.3402 1.5031 15.059 1.33536 14.7687 1.18078C14.4793 1.02619 14.1825 0.886404 13.8782 0.761419C13.5748 0.635612 13.2656 0.525429 12.9515 0.430868C12.6366 0.335485 12.3184 0.255725 11.9952 0.19241C11.6729 0.128274 11.3481 0.080582 11.0217 0.0485138C10.6944 0.0164453 10.3663 0 10.0374 0Z" fill="#0288D1"/>
<path d="M5.01855 7.5H7.02653V14.9999H5.01855V7.5ZM6.01679 6.50012H6.00528C5.40666 6.50012 5.01855 6.05527 5.01855 5.49942C5.01855 4.93206 5.41818 4.50037 6.0283 4.50037C6.63924 4.50037 7.01502 4.93206 7.02653 5.49942C7.02653 6.05527 6.63924 6.50012 6.01679 6.50012ZM15.5584 10.2505C15.5584 8.73093 14.3225 7.5 12.798 7.5C11.8631 7.5 11.0392 7.96375 10.5393 8.67255V7.5H8.5321V14.9999H10.5393V11.0004C10.5393 10.1715 11.2135 9.50057 12.0448 9.50057C12.877 9.50057 13.5504 10.1715 13.5504 11.0004V14.9999H15.5584C15.5584 14.9999 15.5584 10.461 15.5584 10.2505Z" fill="white"/>
</svg>
