<svg width="28" height="25" viewBox="0 0 28 25" fill="none" xmlns="http://www.w3.org/2000/svg">
<g clip-path="url(#clip0_416_1871)">
<path d="M24.2425 10.5563C24.2425 17.544 14.107 23.5334 14.107 23.5334C14.107 23.5334 3.9715 17.544 3.9715 10.5563C3.9715 8.17362 5.03934 5.88848 6.94012 4.20364C8.8409 2.5188 11.4189 1.57227 14.107 1.57227C16.7951 1.57227 19.3731 2.5188 21.2739 4.20364C23.1747 5.88848 24.2425 8.17362 24.2425 10.5563Z" stroke="black" stroke-width="2" stroke-linecap="round" stroke-linejoin="round"/>
<path d="M14.107 13.5514C15.9729 13.5514 17.4855 12.2106 17.4855 10.5567C17.4855 8.90278 15.9729 7.56201 14.107 7.56201C12.2411 7.56201 10.7285 8.90278 10.7285 10.5567C10.7285 12.2106 12.2411 13.5514 14.107 13.5514Z" stroke="black" stroke-width="2" stroke-linecap="round" stroke-linejoin="round"/>
</g>
<defs>
<clipPath id="clip0_416_1871">
<rect width="27.028" height="23.9576" fill="white" transform="translate(0.593018 0.574219)"/>
</clipPath>
</defs>
</svg>
