<svg width="30" height="26" viewBox="0 0 30 26" fill="none" xmlns="http://www.w3.org/2000/svg">
<path d="M10.9479 13.0001H7.2013C7.2013 7.47201 11.6857 2.99023 17.2164 2.99023C22.7471 2.99023 27.2315 7.47201 27.2315 13.0001C27.2315 18.5281 22.7471 23.0099 17.2164 23.0099C16.1084 23.0099 15.0083 22.8261 13.9594 22.4651C13.3608 22.259 12.707 22.5767 12.5009 23.178C12.2948 23.7753 12.6151 24.4303 13.2138 24.6364C19.6437 26.8445 26.6486 23.4274 28.858 17.0014C31.0687 10.5741 27.6516 3.57572 21.2216 1.36371C14.793 -0.844363 7.7881 2.57277 5.5774 8.99876C5.13369 10.2866 4.90789 11.6387 4.90789 13.0001H1.16257C0.986657 13.0001 0.846191 13.1405 0.846191 13.3151C0.846191 13.3939 0.876385 13.4714 0.930208 13.5291L5.8242 18.8078C5.94104 18.9351 6.14321 18.943 6.27054 18.8235C6.27448 18.8183 6.27973 18.813 6.28498 18.8078L11.179 13.5291C11.2984 13.4018 11.2919 13.2009 11.1645 13.0841C11.1055 13.0303 11.0293 13.0001 10.9479 13.0001Z" fill="#0E314C"/>
</svg>
