<svg width="55" height="55" fill="none" xmlns="http://www.w3.org/2000/svg"><path d="M31.51 16.042h-1.718v-4.584C29.792 5.14 24.65 0 18.333 0 12.014 0 6.875 5.14 6.875 11.458v4.584H5.156A5.164 5.164 0 0 0 0 21.198v19.48a5.164 5.164 0 0 0 5.156 5.155h22.986a5.503 5.503 0 0 1 1.054-2.291c-1.421-1.81-1.673-4.355-.481-6.417l1.856-3.208a5.735 5.735 0 0 1 5.798-2.796c.091-.206.183-.413.298-.619v-9.304a5.164 5.164 0 0 0-5.157-5.156Zm-20.052-4.584c0-3.79 3.085-6.875 6.875-6.875s6.875 3.085 6.875 6.875v4.584h-13.75v-4.584ZM52.026 44.616c.046-.355.11-.708.11-1.074 0-.37-.067-.72-.11-1.074l2.066-1.565c.461-.346.59-.985.3-1.486l-1.853-3.209a1.15 1.15 0 0 0-1.438-.484l-2.377 1.003c-.579-.444-1.195-.834-1.877-1.117l-.315-2.524a1.147 1.147 0 0 0-1.137-1.002h-3.707c-.576 0-1.065.43-1.134 1.002l-.318 2.524c-.679.283-1.298.676-1.876 1.117l-2.378-1.003a1.145 1.145 0 0 0-1.435.485l-1.854 3.208c-.289.498-.16 1.137.298 1.486l2.066 1.565c-.046.355-.106.707-.106 1.074 0 .37.063.719.106 1.074L32.99 46.18a1.147 1.147 0 0 0-.298 1.487l1.854 3.211c.29.498.905.708 1.435.484l2.378-1.005c.578.444 1.197.833 1.876 1.117l.318 2.524A1.14 1.14 0 0 0 41.688 55h3.704c.579 0 1.066-.43 1.137-1.002l.315-2.524c.682-.284 1.301-.676 1.88-1.117l2.374 1.002a1.147 1.147 0 0 0 1.438-.484l1.854-3.211c.29-.498.16-1.137-.301-1.487l-2.063-1.561Zm-8.484 3.51a4.582 4.582 0 0 1-4.584-4.584 4.582 4.582 0 0 1 4.584-4.584 4.582 4.582 0 0 1 4.583 4.584 4.582 4.582 0 0 1-4.583 4.583Z" fill="#0E314C" fill-opacity=".9"/></svg>