<svg width="51" height="51" viewBox="0 0 51 51" fill="none" xmlns="http://www.w3.org/2000/svg">
<path d="M43.3378 8.17699L43.3377 8.17692C38.8386 3.67938 32.623 0.896797 25.7573 0.896797C18.8932 0.896797 12.6777 3.67939 8.17853 8.17692L8.17849 8.17696C3.67933 12.6761 0.896736 18.8917 0.896736 25.7574C0.896736 32.6215 3.67933 38.8371 8.17849 43.3362C12.6777 47.8354 18.8932 50.618 25.7573 50.618C32.623 50.618 38.8386 47.8354 43.3378 43.3362L43.3378 43.3362C47.8353 38.837 50.6179 32.6215 50.6179 25.7574C50.6179 18.8917 47.8353 12.6761 43.3378 8.17699ZM42.3477 9.16694L42.3478 9.16702C46.5939 13.4115 49.2211 19.2767 49.2211 25.7574C49.2211 32.2365 46.5939 38.1017 42.3478 42.3478C38.1032 46.5924 32.2381 49.2196 25.7573 49.2196C19.2782 49.2196 13.4131 46.5924 9.16696 42.3479C4.92236 38.1017 2.29512 32.2365 2.29512 25.7574C2.29512 19.2766 4.92237 13.4115 9.16692 9.16698C13.4131 4.92082 19.2782 2.29358 25.7573 2.29358C32.2381 2.29358 38.1032 4.92083 42.3477 9.16694Z" fill="white" stroke="white" stroke-width="0.624862"/>
<path d="M16.8135 14.1591C16.8135 12.8577 17.873 11.7981 19.1745 11.7981C20.4758 11.7981 21.5356 12.8577 21.537 14.1593V30.0866C21.537 30.2497 21.6242 30.4015 21.7704 30.4813C23.4953 31.4313 24.5672 33.2429 24.5672 35.2104C24.5672 38.1852 22.1475 40.6048 19.1745 40.6048C16.1997 40.6048 13.7801 38.1851 13.7801 35.2104C13.7801 33.2428 14.8521 31.4312 16.5788 30.4812C16.7231 30.4022 16.8135 30.2515 16.8135 30.0866V14.1591ZM12.8765 35.2104C12.8765 38.6828 15.7021 41.5084 19.1745 41.5084C22.6469 41.5084 25.4708 38.6828 25.4708 35.212C25.4708 33.0045 24.3162 30.9661 22.4391 29.8255V14.1591C22.4391 12.3584 20.9751 10.8945 19.1745 10.8945C17.3737 10.8945 15.9098 12.3601 15.9098 14.1591V29.8254C14.0326 30.9646 12.8765 33.0045 12.8765 35.2104Z" fill="white" stroke="white" stroke-width="0.357064"/>
<path d="M16.8135 14.1591C16.8135 12.8577 17.873 11.7981 19.1745 11.7981C20.4758 11.7981 21.5356 12.8577 21.537 14.1593V30.0866C21.537 30.2497 21.6242 30.4015 21.7704 30.4813C23.4953 31.4313 24.5672 33.2429 24.5672 35.2104C24.5672 38.1852 22.1475 40.6048 19.1745 40.6048C16.1997 40.6048 13.7801 38.1851 13.7801 35.2104C13.7801 33.2428 14.8521 31.4312 16.5788 30.4812C16.7231 30.4022 16.8135 30.2515 16.8135 30.0866V14.1591ZM12.8765 35.2104C12.8765 38.6828 15.7021 41.5084 19.1745 41.5084C22.6469 41.5084 25.4708 38.6828 25.4708 35.212C25.4708 33.0045 24.3162 30.9661 22.4391 29.8255V14.1591C22.4391 12.3584 20.9751 10.8945 19.1745 10.8945C17.3737 10.8945 15.9098 12.3601 15.9098 14.1591V29.8254C14.0326 30.9646 12.8765 33.0045 12.8765 35.2104Z" fill="white" stroke="white" stroke-width="0.357064"/>
<path d="M16.0928 35.3767C16.0928 33.679 17.4752 32.2965 19.1746 32.2965C20.874 32.2965 22.2564 33.679 22.2564 35.3767C22.2564 37.0777 20.8739 38.4601 19.1746 38.4601C17.4753 38.4601 16.0928 37.0777 16.0928 35.3767ZM15.1892 35.3767C15.1892 37.5753 16.976 39.3621 19.1746 39.3621C21.3732 39.3621 23.16 37.5753 23.16 35.3767C23.16 33.1797 21.3716 31.3913 19.1746 31.3913C16.9759 31.3913 15.1892 33.1797 15.1892 35.3767Z" fill="white" stroke="white" stroke-width="0.357064"/>
<path d="M16.0928 35.3767C16.0928 33.679 17.4752 32.2965 19.1746 32.2965C20.874 32.2965 22.2564 33.679 22.2564 35.3767C22.2564 37.0777 20.8739 38.4601 19.1746 38.4601C17.4753 38.4601 16.0928 37.0777 16.0928 35.3767ZM15.1892 35.3767C15.1892 37.5753 16.976 39.3621 19.1746 39.3621C21.3732 39.3621 23.16 37.5753 23.16 35.3767C23.16 33.1797 21.3716 31.3913 19.1746 31.3913C16.9759 31.3913 15.1892 33.1797 15.1892 35.3767Z" fill="white" stroke="white" stroke-width="0.357064"/>
<path d="M18.7228 31.845C18.7228 32.0932 18.9235 32.2969 19.1746 32.2969C19.4234 32.2969 19.6264 32.0939 19.6264 31.845V16.7086C19.6264 16.4575 19.4227 16.2568 19.1746 16.2568C18.9264 16.2568 18.7228 16.4575 18.7228 16.7086V31.845Z" fill="white" stroke="white" stroke-width="0.357064"/>
<path d="M18.7228 31.845C18.7228 32.0932 18.9235 32.2969 19.1746 32.2969C19.4234 32.2969 19.6264 32.0939 19.6264 31.845V16.7086C19.6264 16.4575 19.4227 16.2568 19.1746 16.2568C18.9264 16.2568 18.7228 16.4575 18.7228 16.7086V31.845Z" fill="white" stroke="white" stroke-width="0.357064"/>
<path d="M12.1872 17.1604H14.7363C14.9844 17.1604 15.1881 16.9597 15.1881 16.7086C15.1881 16.4598 14.9851 16.2568 14.7363 16.2568H12.1872C11.9383 16.2568 11.7353 16.4598 11.7353 16.7086C11.7353 16.9574 11.9383 17.1604 12.1872 17.1604Z" fill="white" stroke="white" stroke-width="0.357064"/>
<path d="M12.1872 17.1604H14.7363C14.9844 17.1604 15.1881 16.9597 15.1881 16.7086C15.1881 16.4598 14.9851 16.2568 14.7363 16.2568H12.1872C11.9383 16.2568 11.7353 16.4598 11.7353 16.7086C11.7353 16.9574 11.9383 17.1604 12.1872 17.1604Z" fill="white" stroke="white" stroke-width="0.357064"/>
<path d="M13.0694 18.7424H14.7363C14.9851 18.7424 15.1881 18.5395 15.1881 18.2906C15.1881 18.0418 14.9851 17.8388 14.7363 17.8388H13.0694C12.8189 17.8388 12.6175 18.0402 12.6175 18.2906C12.6175 18.5388 12.8183 18.7424 13.0694 18.7424Z" fill="white" stroke="white" stroke-width="0.357064"/>
<path d="M13.0694 18.7424H14.7363C14.9851 18.7424 15.1881 18.5395 15.1881 18.2906C15.1881 18.0418 14.9851 17.8388 14.7363 17.8388H13.0694C12.8189 17.8388 12.6175 18.0402 12.6175 18.2906C12.6175 18.5388 12.8183 18.7424 13.0694 18.7424Z" fill="white" stroke="white" stroke-width="0.357064"/>
<path d="M12.1872 20.3247H14.7363C14.9851 20.3247 15.1881 20.1217 15.1881 19.8729C15.1881 19.6241 14.9851 19.4211 14.7363 19.4211H12.1872C11.9383 19.4211 11.7353 19.6241 11.7353 19.8729C11.7353 20.1217 11.9383 20.3247 12.1872 20.3247Z" fill="white" stroke="white" stroke-width="0.357064"/>
<path d="M12.1872 20.3247H14.7363C14.9851 20.3247 15.1881 20.1217 15.1881 19.8729C15.1881 19.6241 14.9851 19.4211 14.7363 19.4211H12.1872C11.9383 19.4211 11.7353 19.6241 11.7353 19.8729C11.7353 20.1217 11.9383 20.3247 12.1872 20.3247Z" fill="white" stroke="white" stroke-width="0.357064"/>
<path d="M13.0694 21.907H14.7363C14.9851 21.907 15.1881 21.704 15.1881 21.4552C15.1881 21.2063 14.9851 21.0034 14.7363 21.0034H13.0694C12.8183 21.0034 12.6175 21.207 12.6175 21.4552C12.6175 21.7033 12.8183 21.907 13.0694 21.907Z" fill="white" stroke="white" stroke-width="0.357064"/>
<path d="M13.0694 21.907H14.7363C14.9851 21.907 15.1881 21.704 15.1881 21.4552C15.1881 21.2063 14.9851 21.0034 14.7363 21.0034H13.0694C12.8183 21.0034 12.6175 21.207 12.6175 21.4552C12.6175 21.7033 12.8183 21.907 13.0694 21.907Z" fill="white" stroke="white" stroke-width="0.357064"/>
<path d="M12.1872 23.489H14.7363C14.9844 23.489 15.1881 23.2883 15.1881 23.0372C15.1881 22.7884 14.9851 22.5854 14.7363 22.5854H12.1872C11.939 22.5854 11.7353 22.7861 11.7353 23.0372C11.7353 23.2883 11.939 23.489 12.1872 23.489Z" fill="white" stroke="white" stroke-width="0.357064"/>
<path d="M12.1872 23.489H14.7363C14.9844 23.489 15.1881 23.2883 15.1881 23.0372C15.1881 22.7884 14.9851 22.5854 14.7363 22.5854H12.1872C11.939 22.5854 11.7353 22.7861 11.7353 23.0372C11.7353 23.2883 11.939 23.489 12.1872 23.489Z" fill="white" stroke="white" stroke-width="0.357064"/>
<path d="M13.0694 25.0713H14.7363C14.9844 25.0713 15.1881 24.8706 15.1881 24.6195C15.1881 24.3707 14.9851 24.1677 14.7363 24.1677H13.0694C12.8189 24.1677 12.6175 24.3691 12.6175 24.6195C12.6175 24.8699 12.8189 25.0713 13.0694 25.0713Z" fill="white" stroke="white" stroke-width="0.357064"/>
<path d="M13.0694 25.0713H14.7363C14.9844 25.0713 15.1881 24.8706 15.1881 24.6195C15.1881 24.3707 14.9851 24.1677 14.7363 24.1677H13.0694C12.8189 24.1677 12.6175 24.3691 12.6175 24.6195C12.6175 24.8699 12.8189 25.0713 13.0694 25.0713Z" fill="white" stroke="white" stroke-width="0.357064"/>
<path d="M12.1872 26.6536H14.7363C14.9851 26.6536 15.1881 26.4506 15.1881 26.2018C15.1881 25.9529 14.9851 25.7499 14.7363 25.7499H12.1872C11.9383 25.7499 11.7353 25.9529 11.7353 26.2018C11.7353 26.4529 11.939 26.6536 12.1872 26.6536Z" fill="white" stroke="white" stroke-width="0.357064"/>
<path d="M12.1872 26.6536H14.7363C14.9851 26.6536 15.1881 26.4506 15.1881 26.2018C15.1881 25.9529 14.9851 25.7499 14.7363 25.7499H12.1872C11.9383 25.7499 11.7353 25.9529 11.7353 26.2018C11.7353 26.4529 11.939 26.6536 12.1872 26.6536Z" fill="white" stroke="white" stroke-width="0.357064"/>
<path d="M36.3546 18.4026V18.4025C36.3546 15.6604 34.1251 13.4326 31.3831 13.4326C28.6427 13.4326 26.4132 15.662 26.4132 18.4025C26.4132 21.1445 28.6428 23.3723 31.3831 23.3723C34.1252 23.3723 36.353 21.1428 36.3546 18.4026ZM27.3169 18.4025C27.3169 16.1613 29.1404 14.3362 31.3831 14.3362C33.6258 14.3362 35.4495 16.1613 35.451 18.4026C35.4509 20.6453 33.6258 22.4703 31.3831 22.4703C29.1405 22.4703 27.3169 20.6453 27.3169 18.4025Z" fill="white" stroke="white" stroke-width="0.357064"/>
<path d="M36.3546 18.4026V18.4025C36.3546 15.6604 34.1251 13.4326 31.3831 13.4326C28.6427 13.4326 26.4132 15.662 26.4132 18.4025C26.4132 21.1445 28.6428 23.3723 31.3831 23.3723C34.1252 23.3723 36.353 21.1428 36.3546 18.4026ZM27.3169 18.4025C27.3169 16.1613 29.1404 14.3362 31.3831 14.3362C33.6258 14.3362 35.4495 16.1613 35.451 18.4026C35.4509 20.6453 33.6258 22.4703 31.3831 22.4703C29.1405 22.4703 27.3169 20.6453 27.3169 18.4025Z" fill="white" stroke="white" stroke-width="0.357064"/>
<path d="M30.9328 12.9191C30.9328 13.1665 31.1328 13.3709 31.383 13.3709C31.6341 13.3709 31.8348 13.1672 31.8348 12.9191V10.4563C31.8348 10.2068 31.6327 10.006 31.383 10.006C31.1342 10.006 30.9328 10.2074 30.9328 10.4563V12.9191Z" fill="white" stroke="white" stroke-width="0.357064"/>
<path d="M30.9328 12.9191C30.9328 13.1665 31.1328 13.3709 31.383 13.3709C31.6341 13.3709 31.8348 13.1672 31.8348 12.9191V10.4563C31.8348 10.2068 31.6327 10.006 31.383 10.006C31.1342 10.006 30.9328 10.2074 30.9328 10.4563V12.9191Z" fill="white" stroke="white" stroke-width="0.357064"/>
<path d="M35.5823 11.1301L35.5823 11.1301L35.5809 11.1293C35.3648 11.0054 35.0895 11.0791 34.965 11.2959C34.965 11.2959 34.9649 11.296 34.9649 11.2961L33.7351 13.4267C33.735 13.4269 33.7349 13.427 33.7348 13.4272C33.6078 13.6448 33.6853 13.9188 33.8987 14.0428C33.972 14.0872 34.0524 14.1046 34.1257 14.1046C34.2798 14.1046 34.4323 14.0259 34.5157 13.8787L35.7453 11.7484C35.7454 11.7482 35.7455 11.748 35.7456 11.7479C35.8725 11.5305 35.797 11.2558 35.5823 11.1301Z" fill="white" stroke="white" stroke-width="0.357064"/>
<path d="M35.5823 11.1301L35.5823 11.1301L35.5809 11.1293C35.3648 11.0054 35.0895 11.0791 34.965 11.2959C34.965 11.2959 34.9649 11.296 34.9649 11.2961L33.7351 13.4267C33.735 13.4269 33.7349 13.427 33.7348 13.4272C33.6078 13.6448 33.6853 13.9188 33.8987 14.0428C33.972 14.0872 34.0524 14.1046 34.1257 14.1046C34.2798 14.1046 34.4323 14.0259 34.5157 13.8787L35.7453 11.7484C35.7454 11.7482 35.7455 11.748 35.7456 11.7479C35.8725 11.5305 35.797 11.2558 35.5823 11.1301Z" fill="white" stroke="white" stroke-width="0.357064"/>
<path d="M35.7417 15.8863L35.7417 15.8863L35.7423 15.8873C35.8258 16.0309 35.9762 16.1135 36.1331 16.1135C36.2105 16.1135 36.2901 16.0926 36.3601 16.0501L38.4897 14.8209C38.4898 14.8208 38.4899 14.8208 38.49 14.8208C38.7056 14.697 38.7833 14.4198 38.6557 14.2018L38.6557 14.2018L38.6552 14.201C38.53 13.9897 38.2545 13.9112 38.0364 14.0386C38.0362 14.0387 38.036 14.0388 38.0359 14.0389L35.9064 15.269L35.9064 15.2689L35.9046 15.27C35.692 15.396 35.6176 15.6698 35.7417 15.8863Z" fill="white" stroke="white" stroke-width="0.357064"/>
<path d="M35.7417 15.8863L35.7417 15.8863L35.7423 15.8873C35.8258 16.0309 35.9762 16.1135 36.1331 16.1135C36.2105 16.1135 36.2901 16.0926 36.3601 16.0501L38.4897 14.8209C38.4898 14.8208 38.4899 14.8208 38.49 14.8208C38.7056 14.697 38.7833 14.4198 38.6557 14.2018L38.6557 14.2018L38.6552 14.201C38.53 13.9897 38.2545 13.9112 38.0364 14.0386C38.0362 14.0387 38.036 14.0388 38.0359 14.0389L35.9064 15.269L35.9064 15.2689L35.9046 15.27C35.692 15.396 35.6176 15.6698 35.7417 15.8863Z" fill="white" stroke="white" stroke-width="0.357064"/>
<path d="M36.8667 18.8543H39.3279C39.5792 18.8543 39.7813 18.6535 39.7813 18.4024C39.7813 18.1536 39.5799 17.9506 39.3279 17.9506H36.8667C36.6165 17.9506 36.4164 18.155 36.4164 18.4024C36.4164 18.6499 36.6165 18.8543 36.8667 18.8543Z" fill="white" stroke="white" stroke-width="0.357064"/>
<path d="M36.8667 18.8543H39.3279C39.5792 18.8543 39.7813 18.6535 39.7813 18.4024C39.7813 18.1536 39.5799 17.9506 39.3279 17.9506H36.8667C36.6165 17.9506 36.4164 18.155 36.4164 18.4024C36.4164 18.6499 36.6165 18.8543 36.8667 18.8543Z" fill="white" stroke="white" stroke-width="0.357064"/>
<path d="M38.5015 22.5099L38.6556 22.6001C38.7833 22.382 38.7052 22.1068 38.492 21.9831L38.4917 21.9829L36.3606 20.7528C36.3605 20.7527 36.3603 20.7526 36.3601 20.7525C36.1448 20.6269 35.8666 20.6989 35.7432 20.9172C35.6177 21.1333 35.6914 21.4102 35.908 21.5347C35.9081 21.5347 35.9083 21.5348 35.9084 21.5349L38.0381 22.7667L38.0381 22.7667L38.0408 22.7682C38.1084 22.8058 38.1859 22.8275 38.2634 22.8275C38.4218 22.8275 38.5728 22.7449 38.6565 22.5985L38.5015 22.5099ZM38.5015 22.5099C38.4504 22.5994 38.3593 22.6489 38.2634 22.6489C38.2186 22.6489 38.1707 22.6362 38.1275 22.6122M38.5015 22.5099C38.5782 22.3788 38.5319 22.2126 38.4024 22.1375L36.2704 20.9069C36.1394 20.8302 35.9716 20.8749 35.8981 21.006L38.1275 22.6122M38.1275 22.6122L35.9972 21.38L38.1275 22.6122Z" fill="white" stroke="white" stroke-width="0.357064"/>
<path d="M38.5015 22.5099L38.6556 22.6001C38.7833 22.382 38.7052 22.1068 38.492 21.9831L38.4917 21.9829L36.3606 20.7528C36.3605 20.7527 36.3603 20.7526 36.3601 20.7525C36.1448 20.6269 35.8666 20.6989 35.7432 20.9172C35.6177 21.1333 35.6914 21.4102 35.908 21.5347C35.9081 21.5347 35.9083 21.5348 35.9084 21.5349L38.0381 22.7667L38.0381 22.7667L38.0408 22.7682C38.1084 22.8058 38.1859 22.8275 38.2634 22.8275C38.4218 22.8275 38.5728 22.7449 38.6565 22.5985L38.5015 22.5099ZM38.5015 22.5099C38.4504 22.5994 38.3593 22.6489 38.2634 22.6489C38.2186 22.6489 38.1707 22.6362 38.1275 22.6122M38.5015 22.5099C38.5782 22.3788 38.5319 22.2126 38.4024 22.1375L36.2704 20.9069C36.1394 20.8302 35.9716 20.8749 35.8981 21.006L38.1275 22.6122M38.1275 22.6122L35.9972 21.38L38.1275 22.6122Z" fill="white" stroke="white" stroke-width="0.357064"/>
<path d="M34.9651 25.5109L34.9651 25.5109L34.9662 25.5127C35.0499 25.6539 35.1998 25.736 35.3563 25.736C35.4359 25.736 35.5118 25.7141 35.5789 25.6768L35.5789 25.6769L35.5823 25.6748C35.797 25.5492 35.8725 25.2744 35.7456 25.0571C35.7455 25.0569 35.7454 25.0568 35.7453 25.0566L34.5157 22.9264C34.3929 22.7087 34.1148 22.635 33.9 22.7615C33.6856 22.8851 33.6076 23.1597 33.7348 23.3777C33.7349 23.3779 33.735 23.3781 33.7351 23.3783L34.9651 25.5109Z" fill="white" stroke="white" stroke-width="0.357064"/>
<path d="M34.9651 25.5109L34.9651 25.5109L34.9662 25.5127C35.0499 25.6539 35.1998 25.736 35.3563 25.736C35.4359 25.736 35.5118 25.7141 35.5789 25.6768L35.5789 25.6769L35.5823 25.6748C35.797 25.5492 35.8725 25.2744 35.7456 25.0571C35.7455 25.0569 35.7454 25.0568 35.7453 25.0566L34.5157 22.9264C34.3929 22.7087 34.1148 22.635 33.9 22.7615C33.6856 22.8851 33.6076 23.1597 33.7348 23.3777C33.7349 23.3779 33.735 23.3781 33.7351 23.3783L34.9651 25.5109Z" fill="white" stroke="white" stroke-width="0.357064"/>
<path d="M30.9328 26.347C30.9328 26.5968 31.1335 26.7989 31.383 26.7989C31.6334 26.7989 31.8348 26.5975 31.8348 26.347V23.8858C31.8348 23.6377 31.6341 23.434 31.383 23.434C31.1335 23.434 30.9328 23.6361 30.9328 23.8858V26.347Z" fill="white" stroke="white" stroke-width="0.357064"/>
<path d="M30.9328 26.347C30.9328 26.5968 31.1335 26.7989 31.383 26.7989C31.6334 26.7989 31.8348 26.5975 31.8348 26.347V23.8858C31.8348 23.6377 31.6341 23.434 31.383 23.434C31.1335 23.434 30.9328 23.6361 30.9328 23.8858V26.347Z" fill="white" stroke="white" stroke-width="0.357064"/>
<path d="M28.7781 22.9157L28.8683 22.7616C28.6515 22.6347 28.3754 22.709 28.251 22.9257C28.2509 22.9258 28.2508 22.9259 28.2508 22.926L27.021 25.0566C27.0209 25.0568 27.0208 25.0569 27.0207 25.0571C26.8931 25.2757 26.9722 25.5493 27.1832 25.6743L27.1831 25.6744L27.1875 25.6768C27.2545 25.7141 27.3305 25.736 27.41 25.736C27.5676 25.736 27.7177 25.6544 27.8017 25.5127L27.8018 25.5127L27.8029 25.5108L29.0316 23.3777C29.158 23.1609 29.0836 22.8851 28.8668 22.7608L28.7781 22.9157ZM28.7781 22.9157C28.9091 22.9908 28.9539 23.157 28.8772 23.2881L28.4057 23.0148C28.4808 22.8837 28.647 22.839 28.7781 22.9157Z" fill="white" stroke="white" stroke-width="0.357064"/>
<path d="M28.7781 22.9157L28.8683 22.7616C28.6515 22.6347 28.3754 22.709 28.251 22.9257C28.2509 22.9258 28.2508 22.9259 28.2508 22.926L27.021 25.0566C27.0209 25.0568 27.0208 25.0569 27.0207 25.0571C26.8931 25.2757 26.9722 25.5493 27.1832 25.6743L27.1831 25.6744L27.1875 25.6768C27.2545 25.7141 27.3305 25.736 27.41 25.736C27.5676 25.736 27.7177 25.6544 27.8017 25.5127L27.8018 25.5127L27.8029 25.5108L29.0316 23.3777C29.158 23.1609 29.0836 22.8851 28.8668 22.7608L28.7781 22.9157ZM28.7781 22.9157C28.9091 22.9908 28.9539 23.157 28.8772 23.2881L28.4057 23.0148C28.4808 22.8837 28.647 22.839 28.7781 22.9157Z" fill="white" stroke="white" stroke-width="0.357064"/>
<path d="M24.11 22.6001L24.11 22.6001C23.9857 22.3833 24.0606 22.1091 24.2754 21.9833L24.2763 21.9828L24.2763 21.9828L26.408 20.7524C26.408 20.7523 26.4081 20.7523 26.4081 20.7523L26.4083 20.7521L26.4976 20.9068C26.627 20.8317 26.7948 20.8764 26.8699 21.0075C26.9451 21.1385 26.9003 21.3047 26.7693 21.3814L24.11 22.6001ZM24.11 22.6001L24.1106 22.6011C24.1944 22.7453 24.3451 22.8273 24.503 22.8273C24.5785 22.8273 24.6564 22.8089 24.7289 22.7662L24.11 22.6001Z" fill="white" stroke="white" stroke-width="0.357064"/>
<path d="M24.11 22.6001L24.11 22.6001C23.9857 22.3833 24.0606 22.1091 24.2754 21.9833L24.2763 21.9828L24.2763 21.9828L26.408 20.7524C26.408 20.7523 26.4081 20.7523 26.4081 20.7523L26.4083 20.7521L26.4976 20.9068C26.627 20.8317 26.7948 20.8764 26.8699 21.0075C26.9451 21.1385 26.9003 21.3047 26.7693 21.3814L24.11 22.6001ZM24.11 22.6001L24.1106 22.6011C24.1944 22.7453 24.3451 22.8273 24.503 22.8273C24.5785 22.8273 24.6564 22.8089 24.7289 22.7662L24.11 22.6001Z" fill="white" stroke="white" stroke-width="0.357064"/>
<path d="M23.437 18.8543H25.8998C26.1479 18.8543 26.3516 18.6535 26.3516 18.4024C26.3516 18.1536 26.1486 17.9506 25.8998 17.9506H23.437C23.1881 17.9506 22.9851 18.1536 22.9851 18.4024C22.9851 18.6513 23.1881 18.8543 23.437 18.8543Z" fill="white" stroke="white" stroke-width="0.357064"/>
<path d="M23.437 18.8543H25.8998C26.1479 18.8543 26.3516 18.6535 26.3516 18.4024C26.3516 18.1536 26.1486 17.9506 25.8998 17.9506H23.437C23.1881 17.9506 22.9851 18.1536 22.9851 18.4024C22.9851 18.6513 23.1881 18.8543 23.437 18.8543Z" fill="white" stroke="white" stroke-width="0.357064"/>
<path d="M24.2665 14.2936L24.1124 14.2034C23.9851 14.4209 24.0605 14.6959 24.2754 14.8217L24.2754 14.8217L24.2763 14.8222L26.4083 16.0528L26.4083 16.0528L26.4108 16.0543C26.4779 16.0915 26.5538 16.1135 26.6334 16.1135C26.7904 16.1135 26.941 16.0295 27.0244 15.8914L27.0244 15.8914L27.0264 15.8879C27.15 15.6722 27.0771 15.3951 26.86 15.2704C26.8598 15.2704 26.8597 15.2703 26.8596 15.2702L24.7282 14.0384L24.7282 14.0383L24.7262 14.0372C24.5122 13.9172 24.2368 13.9863 24.1116 14.2048L24.2665 14.2936ZM24.2665 14.2936C24.3416 14.1626 24.5078 14.1194 24.6388 14.1929L26.7708 15.4251C26.9019 15.5002 26.9466 15.6681 26.8715 15.7991C26.8204 15.8838 26.7277 15.935 26.6334 15.935C26.587 15.935 26.5407 15.9222 26.4975 15.8982L24.3656 14.6676C24.2345 14.5909 24.1898 14.4247 24.2665 14.2936Z" fill="white" stroke="white" stroke-width="0.357064"/>
<path d="M24.2665 14.2936L24.1124 14.2034C23.9851 14.4209 24.0605 14.6959 24.2754 14.8217L24.2754 14.8217L24.2763 14.8222L26.4083 16.0528L26.4083 16.0528L26.4108 16.0543C26.4779 16.0915 26.5538 16.1135 26.6334 16.1135C26.7904 16.1135 26.941 16.0295 27.0244 15.8914L27.0244 15.8914L27.0264 15.8879C27.15 15.6722 27.0771 15.3951 26.86 15.2704C26.8598 15.2704 26.8597 15.2703 26.8596 15.2702L24.7282 14.0384L24.7282 14.0383L24.7262 14.0372C24.5122 13.9172 24.2368 13.9863 24.1116 14.2048L24.2665 14.2936ZM24.2665 14.2936C24.3416 14.1626 24.5078 14.1194 24.6388 14.1929L26.7708 15.4251C26.9019 15.5002 26.9466 15.6681 26.8715 15.7991C26.8204 15.8838 26.7277 15.935 26.6334 15.935C26.587 15.935 26.5407 15.9222 26.4975 15.8982L24.3656 14.6676C24.2345 14.5909 24.1898 14.4247 24.2665 14.2936Z" fill="white" stroke="white" stroke-width="0.357064"/>
<path d="M28.7781 13.8893L28.8677 14.0437C29.0825 13.919 29.1558 13.644 29.0321 13.4281L29.0318 13.4276L27.8015 11.2961C27.8014 11.296 27.8014 11.296 27.8013 11.2959C27.6767 11.0787 27.3996 11.0057 27.1838 11.1293L27.1838 11.1293L27.1816 11.1306C26.9689 11.2567 26.8946 11.5305 27.0186 11.747L27.0186 11.747L27.0189 11.7474L28.2495 13.8794L28.2498 13.88C28.3349 14.0263 28.4885 14.1046 28.6423 14.1046C28.7159 14.1046 28.7959 14.0863 28.8691 14.0429L28.7781 13.8893ZM28.7781 13.8893C28.735 13.9148 28.687 13.926 28.6423 13.926C28.548 13.926 28.4553 13.8781 28.4041 13.7902L27.2726 11.2842C27.4037 11.2091 27.5715 11.2538 27.6466 11.3849L28.8772 13.5169C28.9523 13.6479 28.9076 13.8141 28.7781 13.8893Z" fill="white" stroke="white" stroke-width="0.357064"/>
<path d="M28.7781 13.8893L28.8677 14.0437C29.0825 13.919 29.1558 13.644 29.0321 13.4281L29.0318 13.4276L27.8015 11.2961C27.8014 11.296 27.8014 11.296 27.8013 11.2959C27.6767 11.0787 27.3996 11.0057 27.1838 11.1293L27.1838 11.1293L27.1816 11.1306C26.9689 11.2567 26.8946 11.5305 27.0186 11.747L27.0186 11.747L27.0189 11.7474L28.2495 13.8794L28.2498 13.88C28.3349 14.0263 28.4885 14.1046 28.6423 14.1046C28.7159 14.1046 28.7959 14.0863 28.8691 14.0429L28.7781 13.8893ZM28.7781 13.8893C28.735 13.9148 28.687 13.926 28.6423 13.926C28.548 13.926 28.4553 13.8781 28.4041 13.7902L27.2726 11.2842C27.4037 11.2091 27.5715 11.2538 27.6466 11.3849L28.8772 13.5169C28.9523 13.6479 28.9076 13.8141 28.7781 13.8893Z" fill="white" stroke="white" stroke-width="0.357064"/>
</svg>
