<svg width="51" height="51" viewBox="0 0 51 51" fill="none" xmlns="http://www.w3.org/2000/svg">
<path d="M43.3376 8.17699L43.3375 8.17692C38.8384 3.67938 32.6228 0.896797 25.7571 0.896797C18.8931 0.896797 12.6775 3.67939 8.17835 8.17692L8.17831 8.17696C3.67914 12.6761 0.896553 18.8917 0.896553 25.7574C0.896553 32.6215 3.67915 38.8371 8.17831 43.3362C12.6775 47.8354 18.893 50.618 25.7571 50.618C32.6228 50.618 38.8384 47.8354 43.3376 43.3362L43.3376 43.3362C47.8352 38.837 50.6177 32.6215 50.6177 25.7574C50.6177 18.8917 47.8352 12.6761 43.3376 8.17699ZM42.3475 9.16694L42.3476 9.16702C46.5937 13.4115 49.221 19.2767 49.221 25.7574C49.221 32.2365 46.5937 38.1017 42.3476 42.3478C38.103 46.5924 32.2379 49.2196 25.7571 49.2196C19.278 49.2196 13.4129 46.5924 9.16669 42.3478C4.92214 38.1016 2.29494 32.2365 2.29494 25.7574C2.29494 19.2767 4.92219 13.4115 9.16673 9.16698C13.4129 4.92082 19.278 2.29358 25.7571 2.29358C32.2379 2.29358 38.103 4.92083 42.3475 9.16694Z" fill="#0E314C" stroke="#0E314C" stroke-width="0.624862"/>
<path d="M16.8132 14.1591C16.8132 12.8577 17.8727 11.7981 19.1741 11.7981C20.4755 11.7981 21.5352 12.8577 21.5367 14.1593V30.0866C21.5367 30.2495 21.6238 30.4012 21.7698 30.4812C23.4949 31.4311 24.5669 33.2427 24.5669 35.2104C24.5669 38.1852 22.1472 40.6048 19.1741 40.6048C16.1994 40.6048 13.7798 38.1851 13.7798 35.2104C13.7798 33.2428 14.8518 31.4312 16.5784 30.4812C16.7228 30.4022 16.8132 30.2515 16.8132 30.0866V14.1591ZM12.8762 35.2104C12.8762 38.6828 15.7018 41.5084 19.1741 41.5084C22.6466 41.5084 25.4705 38.6828 25.4705 35.212C25.4705 33.0045 24.3159 30.9661 22.4388 29.8254V14.1591C22.4388 12.3584 20.9748 10.8945 19.1741 10.8945C17.3734 10.8945 15.9095 12.3601 15.9095 14.1591V29.8254C14.0323 30.9646 12.8762 33.0045 12.8762 35.2104Z" fill="#0E314C" stroke="#0E314C" stroke-width="0.357064"/>
<path d="M16.8132 14.1591C16.8132 12.8577 17.8727 11.7981 19.1741 11.7981C20.4755 11.7981 21.5352 12.8577 21.5367 14.1593V30.0866C21.5367 30.2495 21.6238 30.4012 21.7698 30.4812C23.4949 31.4311 24.5669 33.2427 24.5669 35.2104C24.5669 38.1852 22.1472 40.6048 19.1741 40.6048C16.1994 40.6048 13.7798 38.1851 13.7798 35.2104C13.7798 33.2428 14.8518 31.4312 16.5784 30.4812C16.7228 30.4022 16.8132 30.2515 16.8132 30.0866V14.1591ZM12.8762 35.2104C12.8762 38.6828 15.7018 41.5084 19.1741 41.5084C22.6466 41.5084 25.4705 38.6828 25.4705 35.212C25.4705 33.0045 24.3159 30.9661 22.4388 29.8254V14.1591C22.4388 12.3584 20.9748 10.8945 19.1741 10.8945C17.3734 10.8945 15.9095 12.3601 15.9095 14.1591V29.8254C14.0323 30.9646 12.8762 33.0045 12.8762 35.2104Z" fill="#0E314C" stroke="#0E314C" stroke-width="0.357064"/>
<path d="M16.0928 35.3767C16.0928 33.679 17.4751 32.2965 19.1746 32.2965C20.874 32.2965 22.2563 33.679 22.2563 35.3767C22.2563 37.0777 20.8739 38.4601 19.1746 38.4601C17.4753 38.4601 16.0928 37.0777 16.0928 35.3767ZM15.1891 35.3767C15.1891 37.5753 16.9759 39.3621 19.1746 39.3621C21.3732 39.3621 23.16 37.5753 23.16 35.3767C23.16 33.1797 21.3716 31.3913 19.1746 31.3913C16.9759 31.3913 15.1891 33.1797 15.1891 35.3767Z" fill="#0E314C" stroke="#0E314C" stroke-width="0.357064"/>
<path d="M16.0928 35.3767C16.0928 33.679 17.4751 32.2965 19.1746 32.2965C20.874 32.2965 22.2563 33.679 22.2563 35.3767C22.2563 37.0777 20.8739 38.4601 19.1746 38.4601C17.4753 38.4601 16.0928 37.0777 16.0928 35.3767ZM15.1891 35.3767C15.1891 37.5753 16.9759 39.3621 19.1746 39.3621C21.3732 39.3621 23.16 37.5753 23.16 35.3767C23.16 33.1797 21.3716 31.3913 19.1746 31.3913C16.9759 31.3913 15.1891 33.1797 15.1891 35.3767Z" fill="#0E314C" stroke="#0E314C" stroke-width="0.357064"/>
<path d="M18.7223 31.845C18.7223 32.0932 18.9231 32.2969 19.1742 32.2969C19.423 32.2969 19.626 32.0939 19.626 31.845V16.7086C19.626 16.4575 19.4223 16.2568 19.1742 16.2568C18.926 16.2568 18.7223 16.4575 18.7223 16.7086V31.845Z" fill="#0E314C" stroke="#0E314C" stroke-width="0.357064"/>
<path d="M18.7223 31.845C18.7223 32.0932 18.9231 32.2969 19.1742 32.2969C19.423 32.2969 19.626 32.0939 19.626 31.845V16.7086C19.626 16.4575 19.4223 16.2568 19.1742 16.2568C18.926 16.2568 18.7223 16.4575 18.7223 16.7086V31.845Z" fill="#0E314C" stroke="#0E314C" stroke-width="0.357064"/>
<path d="M12.1869 17.1604H14.736C14.9841 17.1604 15.1878 16.9597 15.1878 16.7086C15.1878 16.4598 14.9848 16.2568 14.736 16.2568H12.1869C11.938 16.2568 11.735 16.4598 11.735 16.7086C11.735 16.9574 11.938 17.1604 12.1869 17.1604Z" fill="#0E314C" stroke="#0E314C" stroke-width="0.357064"/>
<path d="M12.1869 17.1604H14.736C14.9841 17.1604 15.1878 16.9597 15.1878 16.7086C15.1878 16.4598 14.9848 16.2568 14.736 16.2568H12.1869C11.938 16.2568 11.735 16.4598 11.735 16.7086C11.735 16.9574 11.938 17.1604 12.1869 17.1604Z" fill="#0E314C" stroke="#0E314C" stroke-width="0.357064"/>
<path d="M13.0692 18.7424H14.7361C14.9849 18.7424 15.1879 18.5395 15.1879 18.2906C15.1879 18.0418 14.9849 17.8388 14.7361 17.8388H13.0692C12.8188 17.8388 12.6174 18.0402 12.6174 18.2906C12.6174 18.5388 12.8181 18.7424 13.0692 18.7424Z" fill="#0E314C" stroke="#0E314C" stroke-width="0.357064"/>
<path d="M13.0692 18.7424H14.7361C14.9849 18.7424 15.1879 18.5395 15.1879 18.2906C15.1879 18.0418 14.9849 17.8388 14.7361 17.8388H13.0692C12.8188 17.8388 12.6174 18.0402 12.6174 18.2906C12.6174 18.5388 12.8181 18.7424 13.0692 18.7424Z" fill="#0E314C" stroke="#0E314C" stroke-width="0.357064"/>
<path d="M12.1869 20.3247H14.736C14.9848 20.3247 15.1878 20.1217 15.1878 19.8729C15.1878 19.6241 14.9848 19.4211 14.736 19.4211H12.1869C11.938 19.4211 11.735 19.6241 11.735 19.8729C11.735 20.1217 11.938 20.3247 12.1869 20.3247Z" fill="#0E314C" stroke="#0E314C" stroke-width="0.357064"/>
<path d="M12.1869 20.3247H14.736C14.9848 20.3247 15.1878 20.1217 15.1878 19.8729C15.1878 19.6241 14.9848 19.4211 14.736 19.4211H12.1869C11.938 19.4211 11.735 19.6241 11.735 19.8729C11.735 20.1217 11.938 20.3247 12.1869 20.3247Z" fill="#0E314C" stroke="#0E314C" stroke-width="0.357064"/>
<path d="M13.0692 21.907H14.7361C14.9849 21.907 15.1879 21.704 15.1879 21.4552C15.1879 21.2063 14.9849 21.0034 14.7361 21.0034H13.0692C12.8181 21.0034 12.6174 21.207 12.6174 21.4552C12.6174 21.7033 12.8181 21.907 13.0692 21.907Z" fill="#0E314C" stroke="#0E314C" stroke-width="0.357064"/>
<path d="M13.0692 21.907H14.7361C14.9849 21.907 15.1879 21.704 15.1879 21.4552C15.1879 21.2063 14.9849 21.0034 14.7361 21.0034H13.0692C12.8181 21.0034 12.6174 21.207 12.6174 21.4552C12.6174 21.7033 12.8181 21.907 13.0692 21.907Z" fill="#0E314C" stroke="#0E314C" stroke-width="0.357064"/>
<path d="M12.1869 23.489H14.736C14.9841 23.489 15.1878 23.2883 15.1878 23.0372C15.1878 22.7884 14.9848 22.5854 14.736 22.5854H12.1869C11.9387 22.5854 11.735 22.7861 11.735 23.0372C11.735 23.2883 11.9387 23.489 12.1869 23.489Z" fill="#0E314C" stroke="#0E314C" stroke-width="0.357064"/>
<path d="M12.1869 23.489H14.736C14.9841 23.489 15.1878 23.2883 15.1878 23.0372C15.1878 22.7884 14.9848 22.5854 14.736 22.5854H12.1869C11.9387 22.5854 11.735 22.7861 11.735 23.0372C11.735 23.2883 11.9387 23.489 12.1869 23.489Z" fill="#0E314C" stroke="#0E314C" stroke-width="0.357064"/>
<path d="M13.0692 25.0713H14.7361C14.9842 25.0713 15.1879 24.8706 15.1879 24.6195C15.1879 24.3707 14.9849 24.1677 14.7361 24.1677H13.0692C12.8188 24.1677 12.6174 24.3691 12.6174 24.6195C12.6174 24.8699 12.8188 25.0713 13.0692 25.0713Z" fill="#0E314C" stroke="#0E314C" stroke-width="0.357064"/>
<path d="M13.0692 25.0713H14.7361C14.9842 25.0713 15.1879 24.8706 15.1879 24.6195C15.1879 24.3707 14.9849 24.1677 14.7361 24.1677H13.0692C12.8188 24.1677 12.6174 24.3691 12.6174 24.6195C12.6174 24.8699 12.8188 25.0713 13.0692 25.0713Z" fill="#0E314C" stroke="#0E314C" stroke-width="0.357064"/>
<path d="M12.1869 26.6536H14.736C14.9848 26.6536 15.1878 26.4506 15.1878 26.2018C15.1878 25.9529 14.9848 25.7499 14.736 25.7499H12.1869C11.938 25.7499 11.735 25.9529 11.735 26.2018C11.735 26.4529 11.9387 26.6536 12.1869 26.6536Z" fill="#0E314C" stroke="#0E314C" stroke-width="0.357064"/>
<path d="M12.1869 26.6536H14.736C14.9848 26.6536 15.1878 26.4506 15.1878 26.2018C15.1878 25.9529 14.9848 25.7499 14.736 25.7499H12.1869C11.938 25.7499 11.735 25.9529 11.735 26.2018C11.735 26.4529 11.9387 26.6536 12.1869 26.6536Z" fill="#0E314C" stroke="#0E314C" stroke-width="0.357064"/>
<path d="M36.3547 18.4026V18.4025C36.3547 15.6604 34.1251 13.4326 31.3832 13.4326C28.6428 13.4326 26.4133 15.662 26.4133 18.4025C26.4133 21.1445 28.6428 23.3724 31.3832 23.3724C34.1252 23.3724 36.353 21.1428 36.3547 18.4026ZM27.3169 18.4025C27.3169 16.1613 29.1405 14.3362 31.3832 14.3362C33.6258 14.3362 35.4495 16.1613 35.451 18.4026C35.451 20.6453 33.6259 22.4703 31.3832 22.4703C29.1405 22.4703 27.3169 20.6453 27.3169 18.4025Z" fill="#0E314C" stroke="#0E314C" stroke-width="0.357064"/>
<path d="M36.3547 18.4026V18.4025C36.3547 15.6604 34.1251 13.4326 31.3832 13.4326C28.6428 13.4326 26.4133 15.662 26.4133 18.4025C26.4133 21.1445 28.6428 23.3724 31.3832 23.3724C34.1252 23.3724 36.353 21.1428 36.3547 18.4026ZM27.3169 18.4025C27.3169 16.1613 29.1405 14.3362 31.3832 14.3362C33.6258 14.3362 35.4495 16.1613 35.451 18.4026C35.451 20.6453 33.6259 22.4703 31.3832 22.4703C29.1405 22.4703 27.3169 20.6453 27.3169 18.4025Z" fill="#0E314C" stroke="#0E314C" stroke-width="0.357064"/>
<path d="M30.9328 12.9191C30.9328 13.1665 31.1328 13.3709 31.383 13.3709C31.6341 13.3709 31.8348 13.1672 31.8348 12.9191V10.4563C31.8348 10.2068 31.6328 10.006 31.383 10.006C31.1342 10.006 30.9328 10.2074 30.9328 10.4563V12.9191Z" fill="#0E314C" stroke="#0E314C" stroke-width="0.357064"/>
<path d="M30.9328 12.9191C30.9328 13.1665 31.1328 13.3709 31.383 13.3709C31.6341 13.3709 31.8348 13.1672 31.8348 12.9191V10.4563C31.8348 10.2068 31.6328 10.006 31.383 10.006C31.1342 10.006 30.9328 10.2074 30.9328 10.4563V12.9191Z" fill="#0E314C" stroke="#0E314C" stroke-width="0.357064"/>
<path d="M35.5823 11.1301L35.5823 11.1301L35.5809 11.1293C35.3648 11.0054 35.0895 11.0791 34.965 11.2958C34.965 11.2959 34.9649 11.296 34.9649 11.2961L33.7351 13.4267C33.735 13.4269 33.7349 13.427 33.7348 13.4272C33.6078 13.6448 33.6853 13.9188 33.8987 14.0428C33.972 14.0872 34.0524 14.1046 34.1257 14.1046C34.2798 14.1046 34.4323 14.0259 34.5157 13.8787L35.7453 11.7484C35.7454 11.7482 35.7455 11.748 35.7456 11.7479C35.8725 11.5305 35.797 11.2558 35.5823 11.1301Z" fill="#0E314C" stroke="#0E314C" stroke-width="0.357064"/>
<path d="M35.5823 11.1301L35.5823 11.1301L35.5809 11.1293C35.3648 11.0054 35.0895 11.0791 34.965 11.2958C34.965 11.2959 34.9649 11.296 34.9649 11.2961L33.7351 13.4267C33.735 13.4269 33.7349 13.427 33.7348 13.4272C33.6078 13.6448 33.6853 13.9188 33.8987 14.0428C33.972 14.0872 34.0524 14.1046 34.1257 14.1046C34.2798 14.1046 34.4323 14.0259 34.5157 13.8787L35.7453 11.7484C35.7454 11.7482 35.7455 11.748 35.7456 11.7479C35.8725 11.5305 35.797 11.2558 35.5823 11.1301Z" fill="#0E314C" stroke="#0E314C" stroke-width="0.357064"/>
<path d="M35.7414 15.8863L35.7414 15.8863C35.6174 15.6698 35.6917 15.396 35.9044 15.27L35.9061 15.2689L35.9061 15.269L38.0356 14.0389C38.0358 14.0388 38.036 14.0387 38.0361 14.0386C38.2543 13.9112 38.5297 13.9897 38.655 14.201L38.6555 14.2018L38.6555 14.2018C38.783 14.4198 38.7053 14.697 38.4897 14.8207L38.4899 14.8206L38.4007 14.666L38.4895 14.8209L35.7414 15.8863ZM35.7414 15.8863L35.742 15.8873C35.8256 16.0309 35.9759 16.1135 36.1329 16.1135C36.2102 16.1135 36.2898 16.0926 36.3598 16.0501L35.7414 15.8863Z" fill="#0E314C" stroke="#0E314C" stroke-width="0.357064"/>
<path d="M35.7414 15.8863L35.7414 15.8863C35.6174 15.6698 35.6917 15.396 35.9044 15.27L35.9061 15.2689L35.9061 15.269L38.0356 14.0389C38.0358 14.0388 38.036 14.0387 38.0361 14.0386C38.2543 13.9112 38.5297 13.9897 38.655 14.201L38.6555 14.2018L38.6555 14.2018C38.783 14.4198 38.7053 14.697 38.4897 14.8207L38.4899 14.8206L38.4007 14.666L38.4895 14.8209L35.7414 15.8863ZM35.7414 15.8863L35.742 15.8873C35.8256 16.0309 35.9759 16.1135 36.1329 16.1135C36.2102 16.1135 36.2898 16.0926 36.3598 16.0501L35.7414 15.8863Z" fill="#0E314C" stroke="#0E314C" stroke-width="0.357064"/>
<path d="M36.8664 18.8543H39.3276C39.579 18.8543 39.781 18.6535 39.781 18.4024C39.781 18.1536 39.5797 17.9506 39.3276 17.9506H36.8664C36.6162 17.9506 36.4162 18.155 36.4162 18.4024C36.4162 18.6499 36.6162 18.8543 36.8664 18.8543Z" fill="#0E314C" stroke="#0E314C" stroke-width="0.357064"/>
<path d="M36.8664 18.8543H39.3276C39.579 18.8543 39.781 18.6535 39.781 18.4024C39.781 18.1536 39.5797 17.9506 39.3276 17.9506H36.8664C36.6162 17.9506 36.4162 18.155 36.4162 18.4024C36.4162 18.6499 36.6162 18.8543 36.8664 18.8543Z" fill="#0E314C" stroke="#0E314C" stroke-width="0.357064"/>
<path d="M38.5013 22.5099L38.6554 22.6001C38.7831 22.382 38.705 22.1068 38.4918 21.9831L38.4915 21.9829L36.3604 20.7528C36.3603 20.7527 36.3601 20.7526 36.3599 20.7525C36.1446 20.6269 35.8665 20.6989 35.743 20.9172C35.6175 21.1333 35.6912 21.4102 35.9078 21.5347C35.908 21.5347 35.9081 21.5348 35.9082 21.5349L38.038 22.7667L38.038 22.7667L38.0407 22.7682C38.1082 22.8058 38.1858 22.8275 38.2632 22.8275C38.4216 22.8275 38.5726 22.7449 38.6563 22.5985L38.5013 22.5099ZM38.5013 22.5099C38.4502 22.5994 38.3591 22.6489 38.2632 22.6489C38.2184 22.6489 38.1705 22.6362 38.1274 22.6122M38.5013 22.5099C38.578 22.3788 38.5317 22.2126 38.4022 22.1375L36.2703 20.9069C36.1392 20.8302 35.9714 20.8749 35.8979 21.006L38.1274 22.6122M38.1274 22.6122L35.997 21.38L38.1274 22.6122Z" fill="#0E314C" stroke="#0E314C" stroke-width="0.357064"/>
<path d="M38.5013 22.5099L38.6554 22.6001C38.7831 22.382 38.705 22.1068 38.4918 21.9831L38.4915 21.9829L36.3604 20.7528C36.3603 20.7527 36.3601 20.7526 36.3599 20.7525C36.1446 20.6269 35.8665 20.6989 35.743 20.9172C35.6175 21.1333 35.6912 21.4102 35.9078 21.5347C35.908 21.5347 35.9081 21.5348 35.9082 21.5349L38.038 22.7667L38.038 22.7667L38.0407 22.7682C38.1082 22.8058 38.1858 22.8275 38.2632 22.8275C38.4216 22.8275 38.5726 22.7449 38.6563 22.5985L38.5013 22.5099ZM38.5013 22.5099C38.4502 22.5994 38.3591 22.6489 38.2632 22.6489C38.2184 22.6489 38.1705 22.6362 38.1274 22.6122M38.5013 22.5099C38.578 22.3788 38.5317 22.2126 38.4022 22.1375L36.2703 20.9069C36.1392 20.8302 35.9714 20.8749 35.8979 21.006L38.1274 22.6122M38.1274 22.6122L35.997 21.38L38.1274 22.6122Z" fill="#0E314C" stroke="#0E314C" stroke-width="0.357064"/>
<path d="M34.9651 25.5109L34.9651 25.5109L34.9662 25.5127C35.0499 25.6539 35.1998 25.736 35.3563 25.736C35.4359 25.736 35.5118 25.7141 35.5789 25.6768L35.5789 25.6769L35.5823 25.6748C35.797 25.5492 35.8725 25.2744 35.7456 25.0571C35.7455 25.0569 35.7454 25.0568 35.7453 25.0566L34.5157 22.9264C34.3928 22.7087 34.1148 22.635 33.9 22.7615C33.6856 22.8851 33.6076 23.1597 33.7348 23.3777C33.7349 23.3779 33.735 23.3781 33.7351 23.3783L34.9651 25.5109Z" fill="#0E314C" stroke="#0E314C" stroke-width="0.357064"/>
<path d="M34.9651 25.5109L34.9651 25.5109L34.9662 25.5127C35.0499 25.6539 35.1998 25.736 35.3563 25.736C35.4359 25.736 35.5118 25.7141 35.5789 25.6768L35.5789 25.6769L35.5823 25.6748C35.797 25.5492 35.8725 25.2744 35.7456 25.0571C35.7455 25.0569 35.7454 25.0568 35.7453 25.0566L34.5157 22.9264C34.3928 22.7087 34.1148 22.635 33.9 22.7615C33.6856 22.8851 33.6076 23.1597 33.7348 23.3777C33.7349 23.3779 33.735 23.3781 33.7351 23.3783L34.9651 25.5109Z" fill="#0E314C" stroke="#0E314C" stroke-width="0.357064"/>
<path d="M30.9328 26.347C30.9328 26.5968 31.1335 26.7989 31.383 26.7989C31.6334 26.7989 31.8348 26.5975 31.8348 26.347V23.8858C31.8348 23.6377 31.6341 23.434 31.383 23.434C31.1335 23.434 30.9328 23.6361 30.9328 23.8858V26.347Z" fill="#0E314C" stroke="#0E314C" stroke-width="0.357064"/>
<path d="M30.9328 26.347C30.9328 26.5968 31.1335 26.7989 31.383 26.7989C31.6334 26.7989 31.8348 26.5975 31.8348 26.347V23.8858C31.8348 23.6377 31.6341 23.434 31.383 23.434C31.1335 23.434 30.9328 23.6361 30.9328 23.8858V26.347Z" fill="#0E314C" stroke="#0E314C" stroke-width="0.357064"/>
<path d="M28.7779 22.9157L28.868 22.7616C28.6513 22.6347 28.3752 22.709 28.2507 22.9257C28.2507 22.9258 28.2506 22.9259 28.2506 22.926L27.0208 25.0566C27.0207 25.0568 27.0206 25.0569 27.0205 25.0571C26.8929 25.2757 26.972 25.5493 27.1829 25.6743L27.1829 25.6744L27.1873 25.6768C27.2543 25.7141 27.3302 25.736 27.4098 25.736C27.5674 25.736 27.7175 25.6544 27.8015 25.5127L27.8015 25.5127L27.8026 25.5108L29.0314 23.3777C29.1578 23.1609 29.0834 22.8851 28.8666 22.7608L28.7779 22.9157ZM28.7779 22.9157C28.9089 22.9908 28.9537 23.157 28.8769 23.2881L28.4055 23.0148C28.4806 22.8837 28.6468 22.839 28.7779 22.9157Z" fill="#0E314C" stroke="#0E314C" stroke-width="0.357064"/>
<path d="M28.7779 22.9157L28.868 22.7616C28.6513 22.6347 28.3752 22.709 28.2507 22.9257C28.2507 22.9258 28.2506 22.9259 28.2506 22.926L27.0208 25.0566C27.0207 25.0568 27.0206 25.0569 27.0205 25.0571C26.8929 25.2757 26.972 25.5493 27.1829 25.6743L27.1829 25.6744L27.1873 25.6768C27.2543 25.7141 27.3302 25.736 27.4098 25.736C27.5674 25.736 27.7175 25.6544 27.8015 25.5127L27.8015 25.5127L27.8026 25.5108L29.0314 23.3777C29.1578 23.1609 29.0834 22.8851 28.8666 22.7608L28.7779 22.9157ZM28.7779 22.9157C28.9089 22.9908 28.9537 23.157 28.8769 23.2881L28.4055 23.0148C28.4806 22.8837 28.6468 22.839 28.7779 22.9157Z" fill="#0E314C" stroke="#0E314C" stroke-width="0.357064"/>
<path d="M24.11 22.6001L24.11 22.6001C23.9858 22.3833 24.0606 22.1091 24.2754 21.9833L24.2764 21.9828L24.2764 21.9828L26.408 20.7524C26.408 20.7523 26.4081 20.7523 26.4082 20.7523L26.4083 20.7521L26.4976 20.9068C26.627 20.8317 26.7949 20.8764 26.87 21.0075C26.9451 21.1385 26.9003 21.3047 26.7693 21.3814L24.11 22.6001ZM24.11 22.6001L24.1106 22.6011C24.1945 22.7453 24.3451 22.8273 24.5031 22.8273C24.5785 22.8273 24.6564 22.8089 24.729 22.7662L24.11 22.6001Z" fill="#0E314C" stroke="#0E314C" stroke-width="0.357064"/>
<path d="M24.11 22.6001L24.11 22.6001C23.9858 22.3833 24.0606 22.1091 24.2754 21.9833L24.2764 21.9828L24.2764 21.9828L26.408 20.7524C26.408 20.7523 26.4081 20.7523 26.4082 20.7523L26.4083 20.7521L26.4976 20.9068C26.627 20.8317 26.7949 20.8764 26.87 21.0075C26.9451 21.1385 26.9003 21.3047 26.7693 21.3814L24.11 22.6001ZM24.11 22.6001L24.1106 22.6011C24.1945 22.7453 24.3451 22.8273 24.5031 22.8273C24.5785 22.8273 24.6564 22.8089 24.729 22.7662L24.11 22.6001Z" fill="#0E314C" stroke="#0E314C" stroke-width="0.357064"/>
<path d="M23.4369 18.8543H25.8997C26.1478 18.8543 26.3515 18.6535 26.3515 18.4024C26.3515 18.1536 26.1485 17.9506 25.8997 17.9506H23.4369C23.188 17.9506 22.985 18.1536 22.985 18.4024C22.985 18.6513 23.188 18.8543 23.4369 18.8543Z" fill="#0E314C" stroke="#0E314C" stroke-width="0.357064"/>
<path d="M23.4369 18.8543H25.8997C26.1478 18.8543 26.3515 18.6535 26.3515 18.4024C26.3515 18.1536 26.1485 17.9506 25.8997 17.9506H23.4369C23.188 17.9506 22.985 18.1536 22.985 18.4024C22.985 18.6513 23.188 18.8543 23.4369 18.8543Z" fill="#0E314C" stroke="#0E314C" stroke-width="0.357064"/>
<path d="M24.266 14.2936L24.112 14.2034C23.9847 14.4209 24.0601 14.6959 24.2749 14.8217L24.2749 14.8217L24.2759 14.8222L26.4079 16.0528L26.4079 16.0528L26.4104 16.0543C26.4775 16.0915 26.5534 16.1135 26.633 16.1135C26.79 16.1135 26.9406 16.0295 27.0239 15.8914L27.024 15.8914L27.026 15.8879C27.1496 15.6722 27.0766 15.3951 26.8595 15.2704C26.8594 15.2704 26.8593 15.2703 26.8592 15.2702L24.7278 14.0384L24.7278 14.0383L24.7258 14.0372C24.5118 13.9172 24.2364 13.9863 24.1112 14.2048L24.266 14.2936ZM24.266 14.2936C24.3412 14.1626 24.5074 14.1194 24.6384 14.1929L26.7704 15.4251C26.9015 15.5002 26.9462 15.6681 26.8711 15.7991C26.8199 15.8838 26.7273 15.935 26.633 15.935C26.5866 15.935 26.5403 15.9222 26.4971 15.8982L24.3651 14.6676C24.2341 14.5909 24.1893 14.4247 24.266 14.2936Z" fill="#0E314C" stroke="#0E314C" stroke-width="0.357064"/>
<path d="M24.266 14.2936L24.112 14.2034C23.9847 14.4209 24.0601 14.6959 24.2749 14.8217L24.2749 14.8217L24.2759 14.8222L26.4079 16.0528L26.4079 16.0528L26.4104 16.0543C26.4775 16.0915 26.5534 16.1135 26.633 16.1135C26.79 16.1135 26.9406 16.0295 27.0239 15.8914L27.024 15.8914L27.026 15.8879C27.1496 15.6722 27.0766 15.3951 26.8595 15.2704C26.8594 15.2704 26.8593 15.2703 26.8592 15.2702L24.7278 14.0384L24.7278 14.0383L24.7258 14.0372C24.5118 13.9172 24.2364 13.9863 24.1112 14.2048L24.266 14.2936ZM24.266 14.2936C24.3412 14.1626 24.5074 14.1194 24.6384 14.1929L26.7704 15.4251C26.9015 15.5002 26.9462 15.6681 26.8711 15.7991C26.8199 15.8838 26.7273 15.935 26.633 15.935C26.5866 15.935 26.5403 15.9222 26.4971 15.8982L24.3651 14.6676C24.2341 14.5909 24.1893 14.4247 24.266 14.2936Z" fill="#0E314C" stroke="#0E314C" stroke-width="0.357064"/>
<path d="M28.7778 13.8893L28.8674 14.0437C29.0822 13.919 29.1555 13.644 29.0317 13.4281L29.0315 13.4276L27.8011 11.2961C27.8011 11.296 27.801 11.296 27.801 11.2959C27.6763 11.0787 27.3992 11.0057 27.1835 11.1293L27.1835 11.1293L27.1813 11.1306C26.9686 11.2567 26.8942 11.5305 27.0183 11.747L27.0183 11.747L27.0186 11.7474L28.2492 13.8794L28.2495 13.88C28.3346 14.0263 28.4882 14.1046 28.6419 14.1046C28.7156 14.1046 28.7955 14.0863 28.8688 14.0428L28.7778 13.8893ZM28.7778 13.8893C28.7346 13.9148 28.6867 13.926 28.6419 13.926C28.5476 13.926 28.4549 13.8781 28.4038 13.7902L27.2723 11.2842C27.4033 11.2091 27.5711 11.2538 27.6463 11.3849L28.8769 13.5169C28.952 13.6479 28.9072 13.8141 28.7778 13.8893Z" fill="#0E314C" stroke="#0E314C" stroke-width="0.357064"/>
<path d="M28.7778 13.8893L28.8674 14.0437C29.0822 13.919 29.1555 13.644 29.0317 13.4281L29.0315 13.4276L27.8011 11.2961C27.8011 11.296 27.801 11.296 27.801 11.2959C27.6763 11.0787 27.3992 11.0057 27.1835 11.1293L27.1835 11.1293L27.1813 11.1306C26.9686 11.2567 26.8942 11.5305 27.0183 11.747L27.0183 11.747L27.0186 11.7474L28.2492 13.8794L28.2495 13.88C28.3346 14.0263 28.4882 14.1046 28.6419 14.1046C28.7156 14.1046 28.7955 14.0863 28.8688 14.0428L28.7778 13.8893ZM28.7778 13.8893C28.7346 13.9148 28.6867 13.926 28.6419 13.926C28.5476 13.926 28.4549 13.8781 28.4038 13.7902L27.2723 11.2842C27.4033 11.2091 27.5711 11.2538 27.6463 11.3849L28.8769 13.5169C28.952 13.6479 28.9072 13.8141 28.7778 13.8893Z" fill="#0E314C" stroke="#0E314C" stroke-width="0.357064"/>
</svg>
