<svg width="39" height="33" viewBox="0 0 39 33" fill="none" xmlns="http://www.w3.org/2000/svg">
<g clip-path="url(#clip0_416_1882)">
<path d="M37.1348 4.37862C35.6254 5.27766 33.9541 5.96529 32.1854 6.41501C31.2361 5.49332 29.9744 4.84006 28.5711 4.54356C27.1677 4.24707 25.6904 4.32165 24.3389 4.75722C22.9874 5.19279 21.8269 5.96834 21.0144 6.97897C20.2019 7.9896 19.7766 9.18655 19.796 10.4079V11.7389C17.0259 11.7996 14.2811 11.2808 11.8059 10.2288C9.33077 9.17689 7.20214 7.62438 5.60962 5.70959C5.60962 5.70959 -0.695431 17.6884 13.4909 23.0123C10.2447 24.8729 6.3775 25.8059 2.45709 25.6742C16.6434 32.3291 33.9823 25.6742 33.9823 10.368C33.9809 9.99727 33.9387 9.62744 33.8562 9.2633C35.465 7.92366 36.6002 6.23228 37.1348 4.37862V4.37862Z" stroke="black" stroke-width="2" stroke-linecap="round" stroke-linejoin="round"/>
</g>
<defs>
<clipPath id="clip0_416_1882">
<rect width="37.8303" height="31.9434" fill="white" transform="translate(0.880859 0.385742)"/>
</clipPath>
</defs>
</svg>
