<svg width="20" height="20" viewBox="0 0 20 20" fill="none" xmlns="http://www.w3.org/2000/svg">
<path d="M20 10C20 10.3273 19.9838 10.6546 19.9514 10.9804C19.9198 11.3063 19.8719 11.6294 19.8079 11.951C19.7438 12.272 19.6643 12.5894 19.5693 12.9026C19.4742 13.2165 19.3637 13.5241 19.2385 13.8267C19.1132 14.1294 18.9738 14.425 18.819 14.7142C18.6648 15.0028 18.4966 15.2836 18.3143 15.556C18.1327 15.8277 17.9378 16.0909 17.7302 16.3436C17.5225 16.597 17.3029 16.8398 17.0707 17.0714C16.8391 17.3029 16.597 17.5225 16.3436 17.7302C16.0909 17.9378 15.8277 18.1327 15.5553 18.315C15.2836 18.4966 15.0028 18.6648 14.7142 18.819C14.425 18.9738 14.1294 19.1132 13.8267 19.2385C13.5241 19.3644 13.2165 19.4742 12.9026 19.5693C12.5894 19.6643 12.272 19.7438 11.951 19.8079C11.6294 19.8719 11.3063 19.9198 10.9804 19.9521C10.6539 19.9838 10.3273 20 10 20C9.67272 20 9.34544 19.9838 9.01957 19.9521C8.69369 19.9198 8.36993 19.8719 8.04899 19.8079C7.72804 19.7438 7.41061 19.6643 7.09741 19.5693C6.7835 19.4742 6.47593 19.3644 6.17328 19.2385C5.87064 19.1132 5.57503 18.9738 5.28575 18.819C4.99718 18.6648 4.71636 18.4966 4.44397 18.315C4.17159 18.1327 3.90907 17.9378 3.65569 17.7302C3.40301 17.5225 3.16019 17.3029 2.92863 17.0714C2.69707 16.8398 2.47748 16.597 2.26985 16.3436C2.06222 16.0909 1.86726 15.8277 1.68497 15.556C1.50338 15.2836 1.33516 15.0028 1.18102 14.7142C1.02618 14.425 0.886121 14.1294 0.760839 13.8267C0.635558 13.5241 0.52576 13.2165 0.430743 12.9026C0.335726 12.5894 0.256194 12.272 0.192145 11.951C0.128097 11.6294 0.0802366 11.3063 0.0478604 10.9804C0.0161881 10.6546 0 10.3273 0 10C0 9.67272 0.0161881 9.34544 0.0478604 9.01957C0.0802366 8.69369 0.128097 8.37064 0.192145 8.04899C0.256194 7.72804 0.335726 7.41061 0.430743 7.09741C0.52576 6.7835 0.635558 6.47593 0.760839 6.17328C0.886121 5.87064 1.02618 5.57503 1.18102 5.28575C1.33516 4.99718 1.50338 4.71636 1.68497 4.44397C1.86726 4.1723 2.06222 3.90907 2.26985 3.65639C2.47748 3.40301 2.69707 3.16019 2.92863 2.92863C3.16019 2.69707 3.40301 2.47748 3.65569 2.26985C3.90907 2.06222 4.17159 1.86726 4.44397 1.68497C4.71636 1.50338 4.99718 1.33516 5.28575 1.18102C5.57503 1.02618 5.87064 0.886824 6.17328 0.761543C6.47593 0.635557 6.7835 0.52576 7.09741 0.430743C7.41061 0.335726 7.72804 0.256194 8.04899 0.192145C8.36993 0.128097 8.69369 0.0802366 9.01957 0.0478604C9.34544 0.0161881 9.67272 0 10 0C10.3273 0 10.6539 0.0161881 10.9804 0.0478604C11.3063 0.0802366 11.6294 0.128097 11.951 0.192145C12.272 0.256194 12.5894 0.335726 12.9026 0.430743C13.2165 0.52576 13.5241 0.635557 13.8267 0.761543C14.1294 0.886824 14.425 1.02618 14.7142 1.18102C15.0028 1.33516 15.2836 1.50338 15.5553 1.68497C15.8277 1.86726 16.0909 2.06222 16.3436 2.26985C16.597 2.47748 16.8391 2.69707 17.0707 2.92863C17.3029 3.16019 17.5225 3.40301 17.7302 3.65639C17.9378 3.90907 18.1327 4.1723 18.3143 4.44397C18.4966 4.71636 18.6648 4.99718 18.819 5.28575C18.9738 5.57503 19.1132 5.87064 19.2385 6.17328C19.3637 6.47593 19.4742 6.7835 19.5693 7.09741C19.6643 7.41061 19.7438 7.72804 19.8079 8.04899C19.8719 8.37064 19.9198 8.69369 19.9514 9.01957C19.9838 9.34544 20 9.67272 20 10Z" fill="#1B9DF0"/>
<path d="M8.17011 15.2752C12.6049 15.2752 15.0303 11.5998 15.0303 8.41501C15.0303 8.31014 15.0303 8.20527 15.0247 8.10532C15.4949 7.76538 15.9052 7.34026 16.2297 6.85532C15.8003 7.04536 15.3351 7.17486 14.8452 7.23469C15.3449 6.93486 15.725 6.4647 15.9052 5.90023C15.44 6.17472 14.9248 6.37531 14.3751 6.48511C13.9352 6.01495 13.3102 5.72498 12.6148 5.72498C11.2853 5.72498 10.2049 6.80535 10.2049 8.13489C10.2049 8.32492 10.2253 8.51003 10.2703 8.68528C8.26513 8.58534 6.49007 7.62531 5.2999 6.16487C5.09508 6.5203 4.97473 6.93486 4.97473 7.37475C4.97473 8.2102 5.39984 8.94992 6.05018 9.37996C5.65533 9.37011 5.28512 9.26031 4.95995 9.08013C4.95995 9.08998 4.95995 9.09983 4.95995 9.10969C4.95995 10.2802 5.78976 11.25 6.89477 11.4753C6.69489 11.5302 6.48022 11.5597 6.25992 11.5597C6.10508 11.5597 5.95516 11.5449 5.80525 11.5154C6.11 12.4747 6.99964 13.1701 8.05468 13.1898C7.2298 13.8352 6.19024 14.2202 5.05989 14.2202C4.86493 14.2202 4.6749 14.2103 4.48486 14.185C5.5399 14.8748 6.81031 15.2752 8.17011 15.2752Z" fill="white"/>
</svg>
