<svg width="19" height="24" viewBox="0 0 19 24" fill="none" xmlns="http://www.w3.org/2000/svg">
<g clip-path="url(#clip0_2_257)">
<path d="M18.2083 3.00005C17.4502 3.67552 16.6108 4.19216 15.7225 4.53005C15.2457 3.83756 14.612 3.34674 13.9072 3.12397C13.2024 2.90121 12.4604 2.95724 11.7816 3.2845C11.1028 3.61176 10.52 4.19445 10.1119 4.95376C9.70386 5.71308 9.49025 6.61238 9.49999 7.53005V8.53005C8.10874 8.57561 6.73016 8.18586 5.48704 7.39549C4.24391 6.60513 3.17482 5.43868 2.37499 4.00005C2.37499 4.00005 -0.791677 13 6.33332 17C4.70291 18.398 2.76066 19.099 0.791656 19C7.91666 24 16.625 19 16.625 7.50005C16.6243 7.2215 16.6031 6.94364 16.5617 6.67005C17.3696 5.66354 17.9398 4.39276 18.2083 3.00005V3.00005Z" stroke="black" stroke-width="2" stroke-linecap="round" stroke-linejoin="round"/>
</g>
<defs>
<clipPath id="clip0_2_257">
<rect width="19" height="24" fill="white"/>
</clipPath>
</defs>
</svg>
