<svg width="58" height="51" viewBox="0 0 58 51" fill="none" xmlns="http://www.w3.org/2000/svg">
<path d="M11.7641 19.0293C11.7067 19.0293 11.6507 19.0263 11.5904 19.016C11.0955 18.9203 10.7759 18.4431 10.8672 17.9497C10.932 17.6301 11.0071 17.3031 11.0925 16.9761C11.2236 16.493 11.7288 16.2088 12.2089 16.334C12.6935 16.465 12.9807 16.9629 12.8526 17.446C12.7789 17.7332 12.7112 18.0145 12.6567 18.2943C12.5713 18.7273 12.1913 19.0293 11.7641 19.0293Z" fill="white" stroke="white" stroke-width="0.892661"/>
<path d="M16.1299 26.2299C16.0799 26.2299 16.0298 26.227 15.9797 26.2196C13.6997 25.8367 11.8042 24.2445 11.0324 22.0632C10.8615 21.5905 11.1105 21.0691 11.5832 20.9012C12.056 20.7347 12.5789 20.9836 12.7468 21.4564C13.3021 23.0118 14.6527 24.1517 16.2831 24.4257C16.778 24.5082 17.1123 24.9765 17.0298 25.4744C16.9547 25.9177 16.5674 26.2299 16.1299 26.2299Z" fill="white" stroke="white" stroke-width="0.892661"/>
<path d="M17.04 3.14588C14.9691 5.6188 8.84355 13.4809 8.84355 19.9393C8.84355 24.4536 12.5227 28.1239 17.04 28.1239C21.5616 28.1239 25.2364 24.4536 25.2364 19.9393C25.2364 13.4809 19.1108 5.6188 17.04 3.14588ZM17.04 29.9429C11.5153 29.9429 7.02164 25.4566 7.02164 19.9393C7.02164 11.5014 15.9839 1.55815 16.3683 1.13986C16.713 0.758393 17.3713 0.758393 17.716 1.13986C18.0975 1.55815 27.0583 11.5014 27.0583 19.9393C27.0583 25.4566 22.5646 29.9429 17.04 29.9429Z" fill="white" stroke="white" stroke-width="0.892661"/>
<path d="M56.2029 49.9502H1.55727C1.0565 49.9502 0.647049 49.5452 0.647049 49.0414C0.647049 48.5407 1.0565 48.1312 1.55727 48.1312H56.2029C56.7081 48.1312 57.1131 48.5407 57.1131 49.0414C57.1131 49.5452 56.7081 49.9502 56.2029 49.9502Z" fill="white" stroke="white" stroke-width="0.892661"/>
<path d="M37.9866 37.2189C36.4828 37.2189 35.2545 38.4443 35.2545 39.9466C35.2545 41.4533 36.4828 42.6758 37.9866 42.6758C39.4963 42.6758 40.7202 41.4533 40.7202 39.9466C40.7202 38.4443 39.4963 37.2189 37.9866 37.2189ZM37.9866 44.4947C35.4754 44.4947 33.434 42.4549 33.434 39.9466C33.434 37.4427 35.4754 35.3999 37.9866 35.3999C40.4993 35.3999 42.5406 37.4427 42.5406 39.9466C42.5406 42.4549 40.4993 44.4947 37.9866 44.4947Z" fill="white" stroke="white" stroke-width="0.892661"/>
<path d="M53.4709 38.1277C52.4664 38.1277 51.649 38.9451 51.649 39.9467C51.649 40.9526 52.4664 41.7656 53.4709 41.7656C54.4739 41.7656 55.2913 40.9526 55.2913 39.9467C55.2913 38.9451 54.4739 38.1277 53.4709 38.1277ZM53.4709 43.5846C51.4604 43.5846 49.8271 41.9541 49.8271 39.9467C49.8271 37.9436 51.4604 36.3087 53.4709 36.3087C55.4799 36.3087 57.1132 37.9436 57.1132 39.9467C57.1132 41.9541 55.4799 43.5846 53.4709 43.5846Z" fill="white" stroke="white" stroke-width="0.892661"/>
<path d="M51.1935 26.3049C49.9372 26.3049 48.9165 27.3286 48.9165 28.579C48.9165 29.8324 49.9372 30.8516 51.1935 30.8516C52.4484 30.8516 53.4706 29.8324 53.4706 28.579C53.4706 27.3286 52.4484 26.3049 51.1935 26.3049ZM51.1935 32.6706C48.9342 32.6706 47.0946 30.8384 47.0946 28.579C47.0946 26.3226 48.9342 24.486 51.1935 24.486C53.4514 24.486 55.291 26.3226 55.291 28.579C55.291 30.8384 53.4514 32.6706 51.1935 32.6706Z" fill="white" stroke="white" stroke-width="0.892661"/>
<path d="M18.8619 45.4035C17.3713 45.4035 16.2962 44.1251 14.6746 42.1853C12.3121 39.3604 8.7375 35.0877 1.10519 30.7354C0.667757 30.4835 0.518999 29.9283 0.76791 29.4923C1.01682 29.0549 1.57209 28.9061 2.00952 29.155C9.92461 33.6693 13.7746 38.2705 16.0723 41.0203C17.2756 42.4548 18.2212 43.5845 18.8619 43.5845C19.6764 43.5845 20.6234 42.2162 22.0535 40.1498C24.9521 35.9537 30.2072 28.3508 43.2847 19.0292H38.8985C38.3963 19.0292 37.9868 18.6241 37.9868 18.1204C37.9868 17.6197 38.3963 17.2102 38.8985 17.2102H46.1847C46.5868 17.2102 46.9388 17.4738 47.0551 17.8538C47.173 18.2368 47.0272 18.6492 46.6972 18.8731C32.1381 28.7559 26.5531 36.8389 23.5514 41.1838C21.7295 43.8158 20.6293 45.4035 18.8619 45.4035Z" fill="white" stroke="white" stroke-width="0.892661"/>
<path d="M44.3628 25.3991C44.2803 25.3991 44.1949 25.3844 44.1138 25.3638C43.6293 25.2253 43.3494 24.7201 43.4879 24.237L45.3098 17.8714C45.4483 17.3883 45.9534 17.1114 46.4336 17.2469C46.9167 17.3853 47.198 17.8891 47.0595 18.3721L45.2376 24.7378C45.1242 25.1369 44.7619 25.3991 44.3628 25.3991Z" fill="white" stroke="white" stroke-width="0.892661"/>
</svg>
