<svg width="58" height="51" viewBox="0 0 58 51" fill="none" xmlns="http://www.w3.org/2000/svg">
<path d="M17.0398 3.14588C14.969 5.6188 8.8434 13.4809 8.8434 19.9393C8.8434 24.4536 12.5226 28.1239 17.0398 28.1239C21.5615 28.1239 25.2362 24.4536 25.2362 19.9393C25.2362 13.4809 19.1106 5.6188 17.0398 3.14588ZM17.0398 29.9429C11.5151 29.9429 7.02148 25.4566 7.02148 19.9393C7.02148 11.5014 15.9838 1.55815 16.3682 1.13986C16.7128 0.758393 17.3712 0.758393 17.7158 1.13986C18.0973 1.55815 27.0581 11.5014 27.0581 19.9393C27.0581 25.4566 22.5645 29.9429 17.0398 29.9429Z" fill="#0E314C" stroke="#0E314C" stroke-width="0.892661"/>
<path d="M56.2029 49.9502H1.55719C1.05642 49.9502 0.646973 49.5452 0.646973 49.0414C0.646973 48.5407 1.05642 48.1312 1.55719 48.1312H56.2029C56.708 48.1312 57.1131 48.5407 57.1131 49.0414C57.1131 49.5452 56.708 49.9502 56.2029 49.9502Z" fill="#0E314C" stroke="#0E314C" stroke-width="0.892661"/>
<path d="M37.9867 37.2189C36.4829 37.2189 35.2545 38.4443 35.2545 39.9466C35.2545 41.4533 36.4829 42.6758 37.9867 42.6758C39.4963 42.6758 40.7203 41.4533 40.7203 39.9466C40.7203 38.4443 39.4963 37.2189 37.9867 37.2189ZM37.9867 44.4947C35.4755 44.4947 33.4341 42.4549 33.4341 39.9466C33.4341 37.4427 35.4755 35.3999 37.9867 35.3999C40.4993 35.3999 42.5407 37.4427 42.5407 39.9466C42.5407 42.4549 40.4993 44.4947 37.9867 44.4947Z" fill="#0E314C" stroke="#0E314C" stroke-width="0.892661"/>
<path d="M53.471 38.1277C52.4665 38.1277 51.6491 38.9451 51.6491 39.9467C51.6491 40.9526 52.4665 41.7656 53.471 41.7656C54.474 41.7656 55.2914 40.9526 55.2914 39.9467C55.2914 38.9451 54.474 38.1277 53.471 38.1277ZM53.471 43.5846C51.4605 43.5846 49.8271 41.9541 49.8271 39.9467C49.8271 37.9436 51.4605 36.3087 53.471 36.3087C55.4799 36.3087 57.1133 37.9436 57.1133 39.9467C57.1133 41.9541 55.4799 43.5846 53.471 43.5846Z" fill="#0E314C" stroke="#0E314C" stroke-width="0.892661"/>
<path d="M51.1937 26.3049C49.9373 26.3049 48.9166 27.3286 48.9166 28.579C48.9166 29.8324 49.9373 30.8516 51.1937 30.8516C52.4485 30.8516 53.4707 29.8324 53.4707 28.579C53.4707 27.3286 52.4485 26.3049 51.1937 26.3049ZM51.1937 32.6706C48.9343 32.6706 47.0947 30.8384 47.0947 28.579C47.0947 26.3226 48.9343 24.486 51.1937 24.486C53.4515 24.486 55.2911 26.3226 55.2911 28.579C55.2911 30.8384 53.4515 32.6706 51.1937 32.6706Z" fill="#0E314C" stroke="#0E314C" stroke-width="0.892661"/>
<path d="M19.2144 45.1933C17.7239 45.1933 16.6487 43.9148 15.0271 41.9751C12.6646 39.1502 9.09001 34.8774 1.45771 30.5252C1.02027 30.2733 0.871515 29.7181 1.12043 29.2821C1.36934 28.8447 1.9246 28.6959 2.36204 28.9448C10.2771 33.4591 14.1272 38.0603 16.4248 40.8101C17.6281 42.2446 18.5737 43.3743 19.2144 43.3743C20.0289 43.3743 20.9759 42.006 22.406 39.9396C25.3046 35.7435 30.5597 28.1406 43.6372 18.819H39.251C38.7488 18.819 38.3393 18.4139 38.3393 17.9102C38.3393 17.4095 38.7488 17 39.251 17H46.5372C46.9393 17 47.2913 17.2636 47.4077 17.6436C47.5255 18.0266 47.3797 18.439 47.0498 18.6628C32.4906 28.5457 26.9056 36.6287 23.9039 40.9736C22.082 43.6056 20.9818 45.1933 19.2144 45.1933Z" fill="#0E314C" stroke="#0E314C" stroke-width="0.892661"/>
</svg>
