<svg width="1286" height="3121" fill="none" xmlns="http://www.w3.org/2000/svg"><path d="M24.822 7h680.679c-130 904.5 472.269 211.5 569.499 717H672C700.369 276-106 941.5 24.822 7ZM16.5 1516H596c0 647.5 612.95 205 612.95 717H589.448C616.617 1785 95 2285.5 16.5 1516ZM.947 754H561.5c-8.947 571.61 667.95 290 667.95 760H776C776 1175 .947 1553 .947 754ZM14 2260h486.802C406.34 2603.6 1242 2076.1 1242 3119H676.5C767.463 2158.84 14 3163.08 14 2260Z" fill="#547BF9" fill-opacity=".1"/><path d="M772.886 0H1285.5c-22 851.589-449.014 509.5-724 754H.947C57 349.5 646.447 822.312 772.886 0ZM776 1514h453c-22 842.55-699.5 107.5-727.933 746H14c50.5-609 276.5-323 762-746Z" fill="#547BF9" fill-opacity=".1"/><path d="M672 724h603c75.5 679.5-578.221 454-679 792H15.795c0-446.5 646.705-88 656.205-792ZM589.615 2233H1209c0 598.75-647.5-82-600.388 888H27.72c-35.493-866.05 554.78-487 561.895-888Z" fill="#547BF9" fill-opacity=".1"/></svg>
